<svg xmlns="http://www.w3.org/2000/svg" viewBox="0 0 63.94 86.89"><defs><style>.cls-1{fill:#d46f84;}.cls-2{fill:#f6e7c8;}.cls-3{fill:#474847;}.cls-4{fill:#7c5b3a;}.cls-5{fill:#fff;}.cls-6{fill:#1c52bc;}</style></defs><title>bearwl</title><g id="Layer_2" data-name="Layer 2"><g id="_ÎÓÈ_1" data-name="—ÎÓÈ_1"><polygon class="cls-1" points="54.8 2.54 54.8 2.54 54.81 2.55 54.8 2.54"/><path class="cls-2" d="M14.14,4.28c-1.65.27-2.65,2.57-2.24,5.14a6.66,6.66,0,0,0,.62,2,19.92,19.92,0,0,1,4.73-4.89C16.52,5,15.32,4.1,14.14,4.28Z"/><path class="cls-2" d="M20.27,29.3c.75,5.49,5.24,9.28,11.7,9.3s11-3.81,11.7-9.3c.36-2.65-.1-5.05-2-6.75a10.68,10.68,0,0,0-5.38-2.23,28.72,28.72,0,0,0-8.55,0,10.72,10.72,0,0,0-5.39,2.23C20.37,24.25,19.91,26.65,20.27,29.3Zm14.81,5.45a5.37,5.37,0,0,1-3.11.86,5.39,5.39,0,0,1-3.11-.86.52.52,0,0,1,.62-.84,5,5,0,0,0,5,0,.5.5,0,0,1,.72.12A.51.51,0,0,1,35.08,34.75ZM32,21.26c3.12,0,5.91.51,5.65,2.79-.17,1.53-2.53,3.17-5.65,3.17s-5.47-1.64-5.65-3.17C26.06,21.77,28.85,21.26,32,21.26Z"/><path class="cls-2" d="M20.33,82.57c.85-.53,2.59-5.59.42-9.41S15.52,69,13.11,70.41,9.85,74.31,12,78.13,19.45,83.11,20.33,82.57Z"/><path class="cls-3" d="M32,27.22c3.12,0,5.48-1.64,5.65-3.17.26-2.28-2.53-2.79-5.65-2.79s-5.91.51-5.65,2.79C26.5,25.58,28.85,27.22,32,27.22Z"/><path class="cls-2" d="M21.05,13.47a.52.52,0,0,0,.33-.11,4.86,4.86,0,0,1,3.3-.52.52.52,0,0,0,.59-.45.53.53,0,0,0-.45-.6,5.91,5.91,0,0,0-4.11.74.54.54,0,0,0-.07.75A.5.5,0,0,0,21.05,13.47Z"/><path class="cls-4" d="M24.2,85.57a6.51,6.51,0,0,0,2.43-2.69,18.47,18.47,0,0,0,5.26.74h.17a18.57,18.57,0,0,0,5.26-.74,6.38,6.38,0,0,0,2.43,2.69C44.31,88.23,50,87,54.32,81c4-5.54,3.9-12.16-1.66-15.5a7.45,7.45,0,0,0-2.15-.84,30.08,30.08,0,0,0,.09-4.26c4.67,7.55,9.53,12.33,11.69,11.4,3.37-1.45,1.63-10.14-5.59-22-5.29-8.67-10.21-13.39-12.8-13,6.28-3.36,10.45-9.28,10.45-16a16.5,16.5,0,0,0-.55-4.17A8.9,8.9,0,0,0,57,5.89a9.45,9.45,0,0,0-2.18-3.33h0a8.47,8.47,0,0,0-9-2,8.14,8.14,0,0,0-3.94,3.24,25.94,25.94,0,0,0-19.83,0A8.14,8.14,0,0,0,18.12.54,8.77,8.77,0,0,0,6.94,5.89a8.91,8.91,0,0,0,3.2,10.7,16.5,16.5,0,0,0-.55,4.17c0,6.74,4.17,12.66,10.45,16-2.59-.39-7.51,4.33-12.8,13C0,61.62-1.71,70.31,1.65,71.76c2.17.93,7-3.85,11.69-11.4a30.08,30.08,0,0,0,.09,4.26,7.45,7.45,0,0,0-2.15.84C5.72,68.8,5.63,75.42,9.63,81a19,19,0,0,0,1.86,2.21C15.51,87.24,20.26,87.86,24.2,85.57ZM12.52,11.4a6.66,6.66,0,0,1-.62-2c-.41-2.57.59-4.87,2.24-5.14,1.18-.18,2.38.74,3.11,2.23A19.92,19.92,0,0,0,12.52,11.4Zm25.7,60.08A14.77,14.77,0,0,0,37.09,74,11.23,11.23,0,0,1,32,75.05h-.06A11.15,11.15,0,0,1,26.86,74a15.68,15.68,0,0,0-1.14-2.48,15.42,15.42,0,0,0-4-4.62,30.3,30.3,0,0,1-.49-10.3c.91-9.58,3.37-15.27,7.59-17a29.57,29.57,0,0,0,3.14.2,29.4,29.4,0,0,0,3.14-.2c4.22,1.77,6.68,7.46,7.6,17a30.54,30.54,0,0,1-.5,10.3A15.56,15.56,0,0,0,38.22,71.48Zm12.61-1.07c2.41,1.37,3.26,3.9,1.08,7.72s-7.41,5-8.3,4.44S41,77,43.2,73.16,48.43,69,50.83,70.41Zm-1-66.13c1.64.27,2.65,2.57,2.24,5.14a7,7,0,0,1-.63,2A20.06,20.06,0,0,0,46.7,6.51C47.43,5,48.62,4.1,49.81,4.28ZM39.12,11.79a5.89,5.89,0,0,1,4.11.74.53.53,0,0,1-.34.94.52.52,0,0,1-.33-.11,4.84,4.84,0,0,0-3.29-.52.53.53,0,0,1-.6-.45A.53.53,0,0,1,39.12,11.79Zm-18.41.74a5.91,5.91,0,0,1,4.11-.74.53.53,0,0,1,.45.6.52.52,0,0,1-.59.45,4.86,4.86,0,0,0-3.3.52.52.52,0,0,1-.33.11.5.5,0,0,1-.41-.19A.54.54,0,0,1,20.71,12.53ZM24,15.1A3.92,3.92,0,0,1,27.93,19a4,4,0,0,1-.23,1.3,28.72,28.72,0,0,1,8.55,0A3.74,3.74,0,0,1,36,19a3.92,3.92,0,1,1,5.61,3.53c1.94,1.7,2.4,4.1,2,6.75-.74,5.49-5.24,9.28-11.7,9.3S21,34.79,20.27,29.3c-.36-2.65.1-5.05,2-6.75A3.92,3.92,0,0,1,24,15.1Zm-12,63c-2.18-3.82-1.33-6.35,1.08-7.72s5.46-1.07,7.64,2.75.43,8.88-.42,9.41S14.21,82,12,78.13Z"/><path class="cls-2" d="M42.71,56.56c-.92-9.58-3.38-15.27-7.6-17a29.4,29.4,0,0,1-3.14.2,29.57,29.57,0,0,1-3.14-.2c-4.22,1.77-6.68,7.46-7.59,17a30.3,30.3,0,0,0,.49,10.3,15.42,15.42,0,0,1,4,4.62A15.68,15.68,0,0,1,26.86,74a11.15,11.15,0,0,0,5.08,1.09H32A11.23,11.23,0,0,0,37.09,74a14.77,14.77,0,0,1,1.13-2.48,15.56,15.56,0,0,1,4-4.62A30.54,30.54,0,0,0,42.71,56.56Z"/><path class="cls-5" d="M22.31,22.55a10.72,10.72,0,0,1,5.39-2.23,4,4,0,0,0,.23-1.3,3.92,3.92,0,1,0-5.62,3.53ZM24,16.61a2.21,2.21,0,1,1-2.21,2.21A2.2,2.2,0,0,1,24,16.61Z"/><path class="cls-5" d="M43.86,19A3.92,3.92,0,0,0,36,19a3.74,3.74,0,0,0,.23,1.3,10.68,10.68,0,0,1,5.38,2.23A3.92,3.92,0,0,0,43.86,19Zm-3.92,2a2.21,2.21,0,1,1,2.21-2.21A2.21,2.21,0,0,1,39.94,21Z"/><path class="cls-2" d="M51.42,11.4a7,7,0,0,0,.63-2c.41-2.57-.6-4.87-2.24-5.14C48.62,4.1,47.43,5,46.7,6.51A20.06,20.06,0,0,1,51.42,11.4Z"/><path class="cls-2" d="M43.61,82.57c.89.54,6.13-.62,8.3-4.44s1.33-6.35-1.08-7.72-5.46-1.07-7.63,2.75S42.77,82,43.61,82.57Z"/><path class="cls-2" d="M39.27,12.84a4.84,4.84,0,0,1,3.29.52.52.52,0,0,0,.33.11.53.53,0,0,0,.34-.94,5.89,5.89,0,0,0-4.11-.74.53.53,0,0,0-.45.6A.53.53,0,0,0,39.27,12.84Z"/><path class="cls-3" d="M34.47,33.91a5,5,0,0,1-5,0,.52.52,0,0,0-.62.84,5.39,5.39,0,0,0,3.11.86,5.37,5.37,0,0,0,3.11-.86.51.51,0,0,0,.11-.72A.5.5,0,0,0,34.47,33.91Z"/><path class="cls-6" d="M24,21a2.21,2.21,0,1,0-2.21-2.21A2.2,2.2,0,0,0,24,21Z"/><path class="cls-6" d="M39.94,16.61a2.21,2.21,0,1,0,2.21,2.21A2.21,2.21,0,0,0,39.94,16.61Z"/></g></g></svg>