<?xml version="1.0" encoding="utf-8"?>
<!-- Generator: Adobe Illustrator 22.0.1, SVG Export Plug-In . SVG Version: 6.00 Build 0)  -->
<svg version="1.1" id="Layer_1" xmlns="http://www.w3.org/2000/svg" xmlns:xlink="http://www.w3.org/1999/xlink" x="0px" y="0px"
	 viewBox="0 0 261.2 139.9" style="enable-background:new 0 0 261.2 139.9;" xml:space="preserve">
<style type="text/css">
	.st0{opacity:0.5;fill:#79859D;}
	.st1{fill:#C99265;}
	.st2{fill:#D69E6B;}
	.st3{fill:#E2A971;}
	.st4{fill:#EEEEEE;}
	.st5{fill:#F2F2F2;}
	.st6{fill:#E7AF72;}
	.st7{fill:#D89F71;}
	.st8{fill:#21135F;}
	.st9{fill:#A1007D;}
	.st10{fill:#79A6BC;}
	.st11{fill:#424242;}
	.st12{fill:#760D5D;}
	.st13{fill:#3A3A3A;}
	.st14{fill:#030031;}
	.st15{fill:#63899B;}
	.st16{opacity:0.3;fill:#21145F;}
	.st17{fill:#21145F;}
	.st18{opacity:0.4;}
	.st19{fill:#FFFFFF;}
	.st20{fill:#37A541;}
	.st21{fill:#90CDFF;}
	.st22{fill:#7A8AFB;}
	.st23{opacity:0.3;fill:#E84E21;}
	.st24{fill:#E84E21;}
	.st25{fill:#9C0020;}
	.st26{opacity:0.3;fill:#2B2767;}
	.st27{fill:#2B2767;}
	.st28{fill:#3094D8;}
	.st29{fill:#231F20;}
	.st30{fill:#262626;}
	.st31{fill:#1E1E1E;}
	.st32{fill:#333333;}
	.st33{fill:#4D4D4D;}
	.st34{fill:#FBB44C;}
	.st35{fill:#CE4A30;}
	.st36{opacity:0.3;fill:url(#SVGID_1_);}
	.st37{fill:#BD883B;}
	.st38{fill:#95A5A6;}
	.st39{opacity:0.4;fill:#95A5A6;}
	.st40{fill:#FC6D50;}
	.st41{fill:#DE4430;}
	.st42{fill:#FFE060;}
	.st43{fill:#DEB637;}
	.st44{fill:#4A4949;}
	.st45{fill:#3FBCE5;}
	.st46{fill:#30AAD4;}
	.st47{fill:#F8E1BB;}
	.st48{fill:#53E5C9;}
	.st49{fill:#30D4A9;}
	.st50{fill:#4A4444;}
	.st51{opacity:0.3;fill:#E3DC36;}
	.st52{fill:#E3DC36;}
	.st53{fill:#1E87C1;}
	.st54{font-family:'Lato-Bold';}
	.st55{font-size:16px;}
	.st56{fill:#E2DED9;}
	.st57{fill:#47B6E1;}
	.st58{opacity:0.3;fill:#23A934;}
	.st59{fill:#23A934;}
	.st60{fill:#C3C6C7;}
	.st61{fill:url(#SVGID_2_);}
	.st62{fill:url(#SVGID_3_);}
	.st63{fill:url(#SVGID_4_);}
	.st64{fill:url(#SVGID_5_);}
	.st65{fill:#8F54DE;}
	.st66{fill:#EF3960;}
	.st67{fill:url(#SVGID_6_);}
	.st68{fill:url(#SVGID_7_);}
	.st69{fill:#F2B980;}
	.st70{fill:url(#SVGID_8_);}
	.st71{fill:#DEAC81;}
	.st72{fill:#DB8057;}
	.st73{fill:#422B1F;}
	.st74{fill:#EE7F58;}
	.st75{fill:url(#SVGID_9_);}
	.st76{fill:#6F3B28;}
	.st77{fill:#F7F5F4;}
	.st78{clip-path:url(#SVGID_11_);fill:#412128;}
	.st79{clip-path:url(#SVGID_13_);fill:#412128;}
	.st80{fill:#232323;}
	.st81{fill:#00BCD4;}
	.st82{fill:url(#SVGID_14_);}
	.st83{clip-path:url(#SVGID_16_);fill:#F7F5F4;}
	.st84{fill:url(#SVGID_17_);}
	.st85{fill:#C9C9C9;}
	.st86{fill:url(#SVGID_18_);}
	.st87{fill:#FF4C33;}
	.st88{fill:url(#SVGID_19_);}
	.st89{fill:url(#SVGID_20_);}
	.st90{fill:url(#SVGID_21_);}
	.st91{fill:#D5EB32;}
	.st92{clip-path:url(#SVGID_23_);}
	.st93{opacity:0.44;fill:#A2D9FF;}
	.st94{opacity:0.38;fill:#FDFFFE;}
	.st95{opacity:0.38;fill:#EAECEB;}
	.st96{fill:#FFFBE6;}
	.st97{fill:url(#SVGID_24_);}
	.st98{fill:url(#SVGID_25_);}
	.st99{clip-path:url(#SVGID_27_);}
	.st100{opacity:0.44;fill:#80CBFF;}
	.st101{fill:url(#SVGID_28_);}
	.st102{fill:#552F1E;}
	.st103{fill:#F6F4F3;}
	.st104{clip-path:url(#SVGID_30_);fill:#412128;}
	.st105{clip-path:url(#SVGID_32_);fill:#412128;}
	.st106{fill:#9A5A16;}
	.st107{clip-path:url(#SVGID_34_);fill:#F6F4F3;}
	.st108{fill:#533427;}
	.st109{fill:#BA7329;}
	.st110{fill:url(#SVGID_35_);}
	.st111{fill:url(#SVGID_36_);}
	.st112{fill:#9F6321;}
	.st113{clip-path:url(#SVGID_38_);}
</style>
<linearGradient id="SVGID_1_" gradientUnits="userSpaceOnUse" x1="32.0827" y1="114.4384" x2="224.8387" y2="114.4384">
	<stop  offset="0" style="stop-color:#AB8049"/>
	<stop  offset="0.498" style="stop-color:#8E725E"/>
	<stop  offset="1" style="stop-color:#7D5F50"/>
</linearGradient>
<path class="st36" d="M220.1,109.7H36.8c-2.6,0-4.8,2.1-4.8,4.8l0,0c0,2.6,2.1,4.8,4.8,4.8h183.3c2.6,0,4.8-2.1,4.8-4.8l0,0
	C224.8,111.8,222.7,109.7,220.1,109.7z"/>
<g>
	<path class="st37" d="M32.7,100.5h192.8c2.5,0,4.6,2.1,4.6,4.6l0,0c0,2.5-2.1,4.6-4.6,4.6H32.7c-2.5,0-4.6-2.1-4.6-4.6l0,0
		C28.1,102.6,30.1,100.5,32.7,100.5z"/>
	<rect x="48.3" y="109.7" class="st38" width="18.8" height="20.9"/>
	
		<rect x="191" y="109.7" transform="matrix(-1 -1.224647e-16 1.224647e-16 -1 400.7806 240.2365)" class="st38" width="18.8" height="20.9"/>
	<rect x="48.3" y="109.7" class="st39" width="18.8" height="6.4"/>
	<rect x="191" y="109.7" class="st39" width="18.8" height="6.4"/>
</g>
<g id="XMLID_1302_">
	<rect id="XMLID_1304_" x="52.8" y="28.3" class="st40" width="17.7" height="72.1"/>
	<rect id="XMLID_1303_" x="63.8" y="28.3" class="st41" width="6.7" height="72.1"/>
</g>
<g id="XMLID_1295_">
	<rect id="XMLID_1301_" x="35.1" y="28.3" class="st42" width="17.7" height="72.1"/>
	<rect id="XMLID_1300_" x="46.1" y="28.3" class="st43" width="6.7" height="72.1"/>
	<rect id="XMLID_1299_" x="35.1" y="36.1" class="st44" width="17.7" height="1.4"/>
	<rect id="XMLID_1298_" x="35.1" y="40.7" class="st44" width="17.7" height="1.4"/>
	<rect id="XMLID_1297_" x="35.1" y="86.5" class="st44" width="17.7" height="1.4"/>
	<rect id="XMLID_1296_" x="35.1" y="91.1" class="st44" width="17.7" height="1.4"/>
</g>
<g id="XMLID_1290_">
	<rect id="XMLID_1294_" x="71.1" y="43.4" class="st45" width="15.5" height="57.2"/>
	<rect id="XMLID_1293_" x="80.7" y="43.4" class="st46" width="5.9" height="57.2"/>
	<rect id="XMLID_1292_" x="71.1" y="50.8" class="st47" width="15.5" height="1.8"/>
	<rect id="XMLID_1291_" x="71.1" y="90.3" class="st47" width="15.5" height="1.8"/>
</g>
<g id="XMLID_1283_">
	<rect id="XMLID_1289_" x="84.6" y="50.6" class="st48" width="14.8" height="51"/>
	<rect id="XMLID_1288_" x="93.8" y="50.6" class="st49" width="5.6" height="51"/>
	<rect id="XMLID_1287_" x="84.6" y="56.1" class="st50" width="14.8" height="1.6"/>
	<rect id="XMLID_1286_" x="84.6" y="60.1" class="st50" width="14.8" height="1.6"/>
	<rect id="XMLID_1285_" x="84.6" y="90.6" class="st50" width="14.8" height="1.6"/>
	<rect id="XMLID_1284_" x="84.6" y="94.6" class="st50" width="14.8" height="1.6"/>
</g>
<g>
	<path class="st51" d="M216,14H111.2c-3.4,0-6.1,2.7-6.1,6.1v74.1c0,3.4,2.7,6.1,6.1,6.1H216c3.4,0,6.1-2.7,6.1-6.1V20.1
		C222.2,16.7,219.4,14,216,14z"/>
	<path class="st52" d="M215,13.6H110.2c-3.4,0-6.1,2.7-6.1,6.1v74.1c0,3.4,2.7,6.1,6.1,6.1H215c3.4,0,6.1-2.7,6.1-6.1V19.7
		C221.2,16.4,218.4,13.6,215,13.6z"/>
	<g>
		<path class="st52" d="M198.2,16.1H180c-0.8,0-1.4-0.3-1.4-0.6c0-0.3,0.6-0.6,1.4-0.6h18.1c0.8,0,1.4,0.3,1.4,0.6
			C199.6,15.8,198.9,16.1,198.2,16.1z"/>
	</g>
	<g>
		<path class="st52" d="M110.3,54.4c-0.8,0-1.4-0.3-1.4-0.6V17.3c0-1.4,2.6-2.5,5.8-2.5h57.3c0.8,0,1.4,0.3,1.4,0.6
			c0,0.3-0.6,0.6-1.4,0.6h-57.3c-1.6,0-2.9,0.6-2.9,1.3v36.4C111.7,54.1,111.1,54.4,110.3,54.4z"/>
	</g>
	<g>
		<path class="st52" d="M110.3,81.2c-0.8,0-1.4-0.3-1.4-0.6V57.8c0-0.3,0.6-0.6,1.4-0.6c0.8,0,1.4,0.3,1.4,0.6v22.7
			C111.7,80.9,111.1,81.2,110.3,81.2z"/>
	</g>
	<g class="st18">
		<path class="st52" d="M218.7,95.1c-0.8,0-1.4-0.3-1.4-0.6V35.8c0-0.3,0.6-0.6,1.4-0.6c0.8,0,1.4,0.3,1.4,0.6v58.7
			C220.2,94.8,219.5,95.1,218.7,95.1z"/>
	</g>
</g>
<g>
	<g>
		<path class="st19" d="M212.5,21.6h-93.7c-1.6,0-2.9,1.3-2.9,2.9v65.8c0,1.6,1.3,2.9,2.9,2.9h93.7c1.6,0,2.9-1.3,2.9-2.9V24.6
			C215.4,22.9,214.1,21.6,212.5,21.6z"/>
	</g>
</g>
<text transform="matrix(1 0 0 1 120.1442 42.1474)"><tspan x="0" y="0" class="st53 st54 st55">1,000 Books  </tspan><tspan x="19.7" y="19" class="st53 st54 st55">Before  </tspan><tspan x="-2.3" y="38" class="st53 st54 st55">Kindergarten</tspan></text>
</svg>
