<svg xmlns="http://www.w3.org/2000/svg" viewBox="0 0 206.2 151.48"><defs><style>.cls-1{isolation:isolate;}.cls-2,.cls-3{fill:#2b2767;}.cls-2{opacity:0.3;}.cls-2,.cls-5{mix-blend-mode:multiply;}.cls-4{mix-blend-mode:screen;}.cls-5{opacity:0.4;}.cls-6{fill:#fff;}.cls-7{fill:#3094d8;}.cls-8{fill:#231f20;}.cls-9{fill:#262626;}.cls-10{fill:#1e1e1e;}.cls-11{fill:#f2f2f2;}.cls-12{fill:#21135f;}.cls-13{fill:#a1007d;}.cls-14{fill:#333;}.cls-15{fill:#4d4d4d;}.cls-16{fill:#fbb44c;}.cls-17{fill:#ce4a30;}</style></defs><title>gameswl</title><g class="cls-1"><g id="Layer_2" data-name="Layer 2"><g id="text"><rect class="cls-2" x="1.75" y="0.62" width="204.45" height="150.86" rx="6.12" ry="6.12"/><rect class="cls-3" width="204.45" height="150.86" rx="6.12" ry="6.12"/><g class="cls-4"><path class="cls-3" d="M164.27,4.3H132.59c-1.38,0-2.5-.49-2.5-1.08s1.12-1.07,2.5-1.07h31.68c1.39,0,2.51.48,2.51,1.07S165.66,4.3,164.27,4.3Z"/></g><g class="cls-4"><path class="cls-3" d="M10.82,71.19c-1.38,0-2.51-.48-2.51-1.07V6.49c0-2.39,4.55-4.34,10.14-4.34h100c1.39,0,2.51.48,2.51,1.07s-1.12,1.08-2.51,1.08h-100c-2.82,0-5.12,1-5.12,2.19V70.12C13.33,70.71,12.21,71.19,10.82,71.19Z"/></g><g class="cls-4"><path class="cls-3" d="M10.82,118c-1.38,0-2.51-.49-2.51-1.08V77.23c0-.59,1.13-1.07,2.51-1.07s2.51.48,2.51,1.07v39.7C13.33,117.52,12.21,118,10.82,118Z"/></g><g class="cls-5"><path class="cls-3" d="M200.21,142.34c-1.38,0-2.51-.48-2.51-1.08V38.71c0-.6,1.13-1.08,2.51-1.08s2.51.48,2.51,1.08V141.26C202.72,141.86,201.6,142.34,200.21,142.34Z"/></g><rect class="cls-6" x="20.47" y="13.96" width="173.97" height="125.26" rx="2.93" ry="2.93"/><rect class="cls-7" x="34.79" y="24.12" width="145.32" height="107.12" rx="2.29" ry="2.29"/><path class="cls-8" d="M123.7,62.32c-16.22-10.26-37.43-5.84-47.37,9.87s-4.85,36.77,11.37,47c11.12,7,35.39,9.07,47.37-9.87C145,93.64,139.92,72.59,123.7,62.32Z"/><path class="cls-9" d="M122.05,64.93c-14.74-9.32-34-5.31-43,9s-4.41,33.4,10.33,42.72,34,5.31,43-9S136.78,74.25,122.05,64.93Z"/><path class="cls-9" d="M118.29,70.87c-11.35-7.18-26.19-4.09-33.14,6.9s-3.4,25.73,7.95,32.91,26.19,4.09,33.15-6.9S129.64,78.05,118.29,70.87Z"/><path class="cls-9" d="M113.71,78.11a15,15,0,1,0,5.06,20.94A15.23,15.23,0,0,0,113.71,78.11Z"/><path class="cls-9" d="M109.47,84.82a7.06,7.06,0,1,0,2.38,9.85A7.18,7.18,0,0,0,109.47,84.82Z"/><rect class="cls-9" x="104.73" y="79.91" width="43.25" height="1.9" transform="translate(-22.44 61.75) rotate(-25.3)"/><polygon class="cls-9" points="145.5 70.76 106.4 89.24 106.57 89.61 145.68 71.13 145.5 70.76"/><polygon class="cls-9" points="154.75 70.6 147.48 74.04 143.72 72.66 145.04 68.87 152.31 65.44 150.54 69.43 154.75 70.6"/><polygon class="cls-9" points="152.31 65.44 145.04 68.87 144.96 69.11 152.21 65.66 152.31 65.44"/><path class="cls-10" d="M126.38,58.84C110.15,48.58,89,53,79,68.71s-4.85,36.77,11.37,47,37.43,5.84,47.38-9.87S142.6,69.11,126.38,58.84Z"/><path class="cls-11" d="M124.73,61.45c-14.74-9.32-34-5.31-43,9s-4.4,33.4,10.33,42.72,34,5.31,43-9S139.46,70.77,124.73,61.45Z"/><path class="cls-12" d="M121,67.39c-11.35-7.18-26.19-4.09-33.15,6.9s-3.39,25.73,8,32.91,26.19,4.09,33.14-6.9S132.32,74.57,121,67.39Z"/><path class="cls-11" d="M116.39,74.63a15,15,0,1,0,5.06,20.94A15.24,15.24,0,0,0,116.39,74.63Z"/><path class="cls-13" d="M112.14,81.34a7.05,7.05,0,1,0,2.39,9.85A7.17,7.17,0,0,0,112.14,81.34Z"/><rect class="cls-14" x="107.41" y="76.43" width="43.25" height="1.9" transform="translate(-20.69 62.56) rotate(-25.3)"/><polygon class="cls-15" points="148.18 67.28 109.08 85.76 109.25 86.13 148.35 67.65 148.18 67.28"/><polygon class="cls-16" points="157.43 67.12 150.15 70.56 146.39 69.18 147.71 65.39 154.99 61.95 153.22 65.95 157.43 67.12"/><polygon class="cls-17" points="154.99 61.95 147.71 65.39 147.63 65.62 154.89 62.17 154.99 61.95"/></g></g></g></svg>