<?xml version="1.0" encoding="utf-8"?>
<!-- Generator: Adobe Illustrator 22.0.1, SVG Export Plug-In . SVG Version: 6.00 Build 0)  -->
<svg version="1.1" id="Layer_1" xmlns="http://www.w3.org/2000/svg" xmlns:xlink="http://www.w3.org/1999/xlink" x="0px" y="0px"
	 viewBox="0 0 261.2 171.3" style="enable-background:new 0 0 261.2 171.3;" xml:space="preserve">
<style type="text/css">
	.st0{opacity:0.5;fill:#79859D;}
	.st1{fill:#C99265;}
	.st2{fill:#D69E6B;}
	.st3{fill:#E2A971;}
	.st4{fill:#EEEEEE;}
	.st5{fill:#F2F2F2;}
	.st6{fill:#E7AF72;}
	.st7{fill:#D89F71;}
	.st8{fill:#21135F;}
	.st9{fill:#A1007D;}
	.st10{fill:#79A6BC;}
	.st11{fill:#424242;}
	.st12{fill:#760D5D;}
	.st13{fill:#3A3A3A;}
	.st14{fill:#030031;}
	.st15{fill:#63899B;}
	.st16{opacity:0.3;fill:#21145F;}
	.st17{fill:#21145F;}
	.st18{opacity:0.4;}
	.st19{fill:#FFFFFF;}
	.st20{fill:#37A541;}
	.st21{fill:#90CDFF;}
	.st22{fill:#7A8AFB;}
	.st23{opacity:0.3;fill:#E84E21;}
	.st24{fill:#E84E21;}
	.st25{fill:#9C0020;}
	.st26{opacity:0.3;fill:#2B2767;}
	.st27{fill:#2B2767;}
	.st28{fill:#3094D8;}
	.st29{fill:#231F20;}
	.st30{fill:#262626;}
	.st31{fill:#1E1E1E;}
	.st32{fill:#333333;}
	.st33{fill:#4D4D4D;}
	.st34{fill:#FBB44C;}
	.st35{fill:#CE4A30;}
	.st36{font-family:'NexaRustSans-Black';}
	.st37{font-size:27px;}
	.st38{opacity:0.3;fill:url(#SVGID_1_);}
	.st39{fill:#BD883B;}
	.st40{fill:#95A5A6;}
	.st41{opacity:0.4;fill:#95A5A6;}
	.st42{fill:#FC6D50;}
	.st43{fill:#DE4430;}
	.st44{fill:#FFE060;}
	.st45{fill:#DEB637;}
	.st46{fill:#4A4949;}
	.st47{fill:#3FBCE5;}
	.st48{fill:#30AAD4;}
	.st49{fill:#F8E1BB;}
	.st50{fill:#53E5C9;}
	.st51{fill:#30D4A9;}
	.st52{fill:#4A4444;}
	.st53{opacity:0.3;fill:#E3DC36;}
	.st54{fill:#E3DC36;}
	.st55{fill:#1E87C1;}
	.st56{fill:#E2DED9;}
	.st57{fill:#47B6E1;}
	.st58{opacity:0.3;fill:#23A934;}
	.st59{fill:#23A934;}
	.st60{fill:#C3C6C7;}
	.st61{fill:url(#SVGID_2_);}
	.st62{fill:url(#SVGID_3_);}
	.st63{fill:url(#SVGID_4_);}
	.st64{fill:url(#SVGID_5_);}
	.st65{fill:#8F54DE;}
	.st66{fill:#EF3960;}
	.st67{fill:url(#SVGID_6_);}
	.st68{fill:url(#SVGID_7_);}
	.st69{fill:#F2B980;}
	.st70{fill:url(#SVGID_8_);}
	.st71{fill:#DEAC81;}
	.st72{fill:#DB8057;}
	.st73{fill:#422B1F;}
	.st74{fill:#EE7F58;}
	.st75{fill:url(#SVGID_9_);}
	.st76{fill:#6F3B28;}
	.st77{fill:#F7F5F4;}
	.st78{clip-path:url(#SVGID_11_);fill:#412128;}
	.st79{clip-path:url(#SVGID_13_);fill:#412128;}
	.st80{fill:#232323;}
	.st81{fill:#00BCD4;}
	.st82{fill:url(#SVGID_14_);}
	.st83{clip-path:url(#SVGID_16_);fill:#F7F5F4;}
	.st84{fill:url(#SVGID_17_);}
	.st85{fill:#C9C9C9;}
	.st86{fill:url(#SVGID_18_);}
	.st87{fill:#FF4C33;}
	.st88{fill:url(#SVGID_19_);}
	.st89{fill:url(#SVGID_20_);}
	.st90{fill:url(#SVGID_21_);}
	.st91{fill:#D5EB32;}
	.st92{clip-path:url(#SVGID_23_);}
	.st93{opacity:0.44;fill:#A2D9FF;}
	.st94{opacity:0.38;fill:#FDFFFE;}
	.st95{opacity:0.38;fill:#EAECEB;}
	.st96{fill:#FFFBE6;}
	.st97{fill:url(#SVGID_24_);}
	.st98{fill:url(#SVGID_25_);}
	.st99{clip-path:url(#SVGID_27_);}
	.st100{opacity:0.44;fill:#80CBFF;}
	.st101{fill:url(#SVGID_28_);}
	.st102{fill:#552F1E;}
	.st103{fill:#F6F4F3;}
	.st104{clip-path:url(#SVGID_30_);fill:#412128;}
	.st105{clip-path:url(#SVGID_32_);fill:#412128;}
	.st106{fill:#9A5A16;}
	.st107{clip-path:url(#SVGID_34_);fill:#F6F4F3;}
	.st108{fill:#533427;}
	.st109{fill:#BA7329;}
	.st110{fill:url(#SVGID_35_);}
	.st111{fill:url(#SVGID_36_);}
	.st112{fill:#9F6321;}
	.st113{clip-path:url(#SVGID_38_);}
</style>
<g>
	<path class="st26" d="M228.6,10H36.4c-3.4,0-6.1,2.7-6.1,6.1v138.6c0,3.4,2.7,6.1,6.1,6.1h192.2c3.4,0,6.1-2.7,6.1-6.1V16.1
		C234.7,12.7,232,10,228.6,10z"/>
	<path class="st27" d="M226.8,9.4H34.6c-3.4,0-6.1,2.7-6.1,6.1v138.6c0,3.4,2.7,6.1,6.1,6.1h192.2c3.4,0,6.1-2.7,6.1-6.1V15.5
		C233,12.1,230.2,9.4,226.8,9.4z"/>
	<g>
		<path class="st27" d="M192.8,13.7h-31.7c-1.4,0-2.5-0.5-2.5-1.1c0-0.6,1.1-1.1,2.5-1.1h31.7c1.4,0,2.5,0.5,2.5,1.1
			C195.3,13.2,194.2,13.7,192.8,13.7z"/>
	</g>
	<g>
		<path class="st27" d="M39.3,80.5c-1.4,0-2.5-0.5-2.5-1.1V15.8c0-2.4,4.6-4.3,10.1-4.3h100c1.4,0,2.5,0.5,2.5,1.1
			c0,0.6-1.1,1.1-2.5,1.1H47c-2.8,0-5.1,1-5.1,2.2v63.6C41.8,80.1,40.7,80.5,39.3,80.5z"/>
	</g>
	<g>
		<path class="st27" d="M39.3,127.4c-1.4,0-2.5-0.5-2.5-1.1V86.6c0-0.6,1.1-1.1,2.5-1.1c1.4,0,2.5,0.5,2.5,1.1v39.7
			C41.8,126.9,40.7,127.4,39.3,127.4z"/>
	</g>
	<g class="st18">
		<path class="st27" d="M228.7,151.7c-1.4,0-2.5-0.5-2.5-1.1V48.1c0-0.6,1.1-1.1,2.5-1.1c1.4,0,2.5,0.5,2.5,1.1v102.6
			C231.2,151.2,230.1,151.7,228.7,151.7z"/>
	</g>
</g>
<g>
	<g>
		<path class="st19" d="M220,23.3H51.9c-1.6,0-2.9,1.3-2.9,2.9v119.4c0,1.6,1.3,2.9,2.9,2.9H220c1.6,0,2.9-1.3,2.9-2.9V26.2
			C222.9,24.6,221.6,23.3,220,23.3z"/>
		<path class="st28" d="M206.3,140.6H65.6c-1.3,0-2.3-1-2.3-2.3V35.8c0-1.3,1-2.3,2.3-2.3h140.7c1.3,0,2.3,1,2.3,2.3v102.5
			C208.6,139.6,207.6,140.6,206.3,140.6z"/>
	</g>
</g>
<g>
	<g>
		<g>
			<g>
				<path class="st29" d="M152.2,71.7c-16.2-10.3-37.4-5.8-47.4,9.9c-9.9,15.7-4.9,36.8,11.4,47c11.1,7,35.4,9.1,47.4-9.9
					C173.5,103,168.4,81.9,152.2,71.7z"/>
				<path class="st30" d="M150.6,74.3c-14.7-9.3-34-5.3-43,9c-9,14.3-4.4,33.4,10.3,42.7c14.7,9.3,34,5.3,43-9
					C169.9,102.7,165.3,83.6,150.6,74.3z"/>
				<path class="st30" d="M146.8,80.2c-11.3-7.2-26.2-4.1-33.1,6.9c-7,11-3.4,25.7,8,32.9c11.4,7.2,26.2,4.1,33.1-6.9
					C161.7,102.1,158.2,87.4,146.8,80.2z"/>
				<path class="st30" d="M142.2,87.5c-7.2-4.6-16.7-2.6-21.1,4.4c-4.4,7-2.2,16.4,5.1,20.9c7.2,4.6,16.7,2.6,21.1-4.4
					C151.7,101.4,149.4,92,142.2,87.5z"/>
				<path class="st30" d="M138,94.2c-3.4-2.1-7.8-1.2-9.9,2.1c-2.1,3.3-1,7.7,2.4,9.9c3.4,2.1,7.8,1.2,9.9-2.1
					C142.4,100.7,141.4,96.3,138,94.2z"/>
			</g>
			<g>
				<g>
					
						<rect x="133.2" y="89.3" transform="matrix(0.9041 -0.4273 0.4273 0.9041 -23.7012 74.8276)" class="st30" width="43.2" height="1.9"/>
					<polygon class="st30" points="174,80.1 134.9,98.6 135.1,99 174.2,80.5 					"/>
					<polygon class="st30" points="183.3,80 176,83.4 172.2,82 173.5,78.2 180.8,74.8 179.1,78.8 					"/>
				</g>
				<polygon class="st30" points="180.8,74.8 173.5,78.2 173.5,78.5 180.7,75 				"/>
			</g>
		</g>
		<g>
			<g>
				<path class="st31" d="M154.9,68.2c-16.2-10.3-37.4-5.8-47.4,9.9c-9.9,15.7-4.9,36.8,11.4,47c16.2,10.3,37.4,5.8,47.4-9.9
					C176.2,99.5,171.1,78.5,154.9,68.2z"/>
				<path class="st5" d="M153.2,70.8c-14.7-9.3-34-5.3-43,9c-9,14.3-4.4,33.4,10.3,42.7c14.7,9.3,34,5.3,43-9
					C172.6,99.3,168,80.1,153.2,70.8z"/>
				<path class="st8" d="M149.5,76.7c-11.3-7.2-26.2-4.1-33.1,6.9c-7,11-3.4,25.7,8,32.9c11.4,7.2,26.2,4.1,33.1-6.9
					C164.4,98.7,160.8,83.9,149.5,76.7z"/>
				<path class="st5" d="M144.9,84c-7.2-4.6-16.7-2.6-21.1,4.4c-4.4,7-2.2,16.4,5.1,20.9c7.2,4.6,16.7,2.6,21.1-4.4
					C154.4,97.9,152.1,88.6,144.9,84z"/>
				<path class="st9" d="M140.7,90.7c-3.4-2.1-7.8-1.2-9.9,2.1c-2.1,3.3-1,7.7,2.4,9.9c3.4,2.1,7.8,1.2,9.9-2.1
					C145.1,97.3,144.1,92.8,140.7,90.7z"/>
			</g>
			<g>
				<g>
					
						<rect x="135.9" y="85.8" transform="matrix(0.9041 -0.4273 0.4273 0.9041 -21.9571 75.639)" class="st32" width="43.2" height="1.9"/>
					<polygon class="st33" points="176.7,76.6 137.6,95.1 137.8,95.5 176.9,77 					"/>
					<polygon class="st34" points="185.9,76.5 178.7,79.9 174.9,78.5 176.2,74.8 183.5,71.3 181.7,75.3 					"/>
				</g>
				<polygon class="st35" points="183.5,71.3 176.2,74.8 176.1,75 183.4,71.5 				"/>
			</g>
		</g>
	</g>
</g>
<text transform="matrix(1 0 0 1 82.0453 60.3353)" class="st19 st36 st37">Games</text>
</svg>
