<?xml version="1.0" encoding="utf-8"?>
<!-- Generator: Adobe Illustrator 22.0.1, SVG Export Plug-In . SVG Version: 6.00 Build 0)  -->
<svg version="1.1" id="Layer_1" xmlns="http://www.w3.org/2000/svg" xmlns:xlink="http://www.w3.org/1999/xlink" x="0px" y="0px"
	 viewBox="0 0 261.2 141.7" style="enable-background:new 0 0 261.2 141.7;" xml:space="preserve">
<style type="text/css">
	.st0{opacity:0.5;fill:#79859D;}
	.st1{fill:#C99265;}
	.st2{fill:#D69E6B;}
	.st3{fill:#E2A971;}
	.st4{fill:#EEEEEE;}
	.st5{fill:#F2F2F2;}
	.st6{fill:#E7AF72;}
	.st7{fill:#D89F71;}
	.st8{fill:#21135F;}
	.st9{fill:#A1007D;}
	.st10{fill:#79A6BC;}
	.st11{fill:#424242;}
	.st12{fill:#760D5D;}
	.st13{fill:#3A3A3A;}
	.st14{fill:#030031;}
	.st15{fill:#63899B;}
	.st16{opacity:0.3;fill:#21145F;}
	.st17{fill:#21145F;}
	.st18{opacity:0.4;}
	.st19{fill:#FFFFFF;}
	.st20{fill:#37A541;}
	.st21{fill:#90CDFF;}
	.st22{fill:#7A8AFB;}
	.st23{opacity:0.3;fill:#E84E21;}
	.st24{fill:#E84E21;}
	.st25{fill:#9C0020;}
	.st26{opacity:0.3;fill:#2B2767;}
	.st27{fill:#2B2767;}
	.st28{fill:#3094D8;}
	.st29{fill:#231F20;}
	.st30{fill:#262626;}
	.st31{fill:#1E1E1E;}
	.st32{fill:#333333;}
	.st33{fill:#4D4D4D;}
	.st34{fill:#FBB44C;}
	.st35{fill:#CE4A30;}
	.st36{opacity:0.3;fill:url(#SVGID_1_);}
	.st37{fill:#BD883B;}
	.st38{fill:#95A5A6;}
	.st39{opacity:0.4;fill:#95A5A6;}
	.st40{fill:#FC6D50;}
	.st41{fill:#DE4430;}
	.st42{fill:#FFE060;}
	.st43{fill:#DEB637;}
	.st44{fill:#4A4949;}
	.st45{fill:#3FBCE5;}
	.st46{fill:#30AAD4;}
	.st47{fill:#F8E1BB;}
	.st48{fill:#53E5C9;}
	.st49{fill:#30D4A9;}
	.st50{fill:#4A4444;}
	.st51{opacity:0.3;fill:#E3DC36;}
	.st52{fill:#E3DC36;}
	.st53{fill:#1E87C1;}
	.st54{fill:#E2DED9;}
	.st55{fill:#47B6E1;}
	.st56{opacity:0.3;fill:#23A934;}
	.st57{fill:#23A934;}
	.st58{font-family:'MuseoSlab-300Italic';}
	.st59{font-size:30.9187px;}
	.st60{fill:#C3C6C7;}
	.st61{fill:url(#SVGID_2_);}
	.st62{fill:url(#SVGID_3_);}
	.st63{fill:url(#SVGID_4_);}
	.st64{fill:url(#SVGID_5_);}
	.st65{fill:#8F54DE;}
	.st66{fill:#EF3960;}
	.st67{fill:url(#SVGID_6_);}
	.st68{fill:url(#SVGID_7_);}
	.st69{fill:#F2B980;}
	.st70{fill:url(#SVGID_8_);}
	.st71{fill:#DEAC81;}
	.st72{fill:#DB8057;}
	.st73{fill:#422B1F;}
	.st74{fill:#EE7F58;}
	.st75{fill:url(#SVGID_9_);}
	.st76{fill:#6F3B28;}
	.st77{fill:#F7F5F4;}
	.st78{clip-path:url(#SVGID_11_);fill:#412128;}
	.st79{clip-path:url(#SVGID_13_);fill:#412128;}
	.st80{fill:#232323;}
	.st81{fill:#00BCD4;}
	.st82{fill:url(#SVGID_14_);}
	.st83{clip-path:url(#SVGID_16_);fill:#F7F5F4;}
	.st84{fill:url(#SVGID_17_);}
	.st85{fill:#C9C9C9;}
	.st86{fill:url(#SVGID_18_);}
	.st87{fill:#FF4C33;}
	.st88{fill:url(#SVGID_19_);}
	.st89{fill:url(#SVGID_20_);}
	.st90{fill:url(#SVGID_21_);}
	.st91{fill:#D5EB32;}
	.st92{clip-path:url(#SVGID_23_);}
	.st93{opacity:0.44;fill:#A2D9FF;}
	.st94{opacity:0.38;fill:#FDFFFE;}
	.st95{opacity:0.38;fill:#EAECEB;}
	.st96{fill:#FFFBE6;}
	.st97{fill:url(#SVGID_24_);}
	.st98{fill:url(#SVGID_25_);}
	.st99{clip-path:url(#SVGID_27_);}
	.st100{opacity:0.44;fill:#80CBFF;}
	.st101{fill:url(#SVGID_28_);}
	.st102{fill:#552F1E;}
	.st103{fill:#F6F4F3;}
	.st104{clip-path:url(#SVGID_30_);fill:#412128;}
	.st105{clip-path:url(#SVGID_32_);fill:#412128;}
	.st106{fill:#9A5A16;}
	.st107{clip-path:url(#SVGID_34_);fill:#F6F4F3;}
	.st108{fill:#533427;}
	.st109{fill:#BA7329;}
	.st110{fill:url(#SVGID_35_);}
	.st111{fill:url(#SVGID_36_);}
	.st112{fill:#9F6321;}
	.st113{clip-path:url(#SVGID_38_);}
</style>
<g>
	<polygon id="XMLID_1350_" class="st54" points="207.1,101.2 207.1,94.6 207.1,92.7 207.1,89.7 207.1,87.8 207.1,52.9 207.1,51 
		207.1,48.1 207.1,46.2 207.1,39.5 200.3,39.5 189.2,39.5 189.2,33.3 182.1,33.3 170.5,33.3 170.5,42.2 170.5,44.4 170.5,89.9 
		170.5,92.1 170.5,102.5 182.1,102.5 189.2,102.5 189.2,101.2 200.3,101.2 	"/>
	<g id="XMLID_1345_">
		<rect id="XMLID_1349_" x="163.8" y="31.1" class="st55" width="18.7" height="69.2"/>
		<rect id="XMLID_1348_" x="175.4" y="31.1" class="st46" width="7.1" height="69.2"/>
		<rect id="XMLID_1347_" x="163.8" y="40" class="st47" width="18.7" height="2.2"/>
		<rect id="XMLID_1346_" x="163.8" y="87.7" class="st47" width="18.7" height="2.2"/>
	</g>
	<g id="XMLID_1338_">
		<rect id="XMLID_1344_" x="182.5" y="37.3" class="st48" width="17.9" height="61.7"/>
		<rect id="XMLID_1343_" x="193.6" y="37.3" class="st49" width="6.8" height="61.7"/>
		<rect id="XMLID_1342_" x="182.5" y="43.9" class="st50" width="17.9" height="1.9"/>
		<rect id="XMLID_1341_" x="182.5" y="48.8" class="st50" width="17.9" height="1.9"/>
		<rect id="XMLID_1340_" x="182.5" y="85.6" class="st50" width="17.9" height="1.9"/>
		<rect id="XMLID_1339_" x="182.5" y="90.5" class="st50" width="17.9" height="1.9"/>
	</g>
</g>
<g>
	<path class="st37" d="M41.4,99.8h192.8c2.5,0,4.6,2.1,4.6,4.6l0,0c0,2.5-2.1,4.6-4.6,4.6H41.4c-2.5,0-4.6-2.1-4.6-4.6l0,0
		C36.8,101.9,38.8,99.8,41.4,99.8z"/>
	<rect x="57" y="109" class="st38" width="18.8" height="20.9"/>
	
		<rect x="199.7" y="109" transform="matrix(-1 -1.224647e-16 1.224647e-16 -1 418.2443 238.8829)" class="st38" width="18.8" height="20.9"/>
	<rect x="57" y="109" class="st39" width="18.8" height="6.4"/>
	<rect x="199.7" y="109" class="st39" width="18.8" height="6.4"/>
</g>
<g>
	<path class="st56" d="M154,13.5H49.1c-3.4,0-6.1,2.7-6.1,6.1v74.1c0,3.4,2.7,6.1,6.1,6.1H154c3.4,0,6.1-2.7,6.1-6.1V19.6
		C160.1,16.2,157.3,13.5,154,13.5z"/>
	<path class="st57" d="M152.9,13.1H48.1c-3.4,0-6.1,2.7-6.1,6.1v74.1c0,3.4,2.7,6.1,6.1,6.1h104.8c3.4,0,6.1-2.7,6.1-6.1V19.2
		C159.1,15.9,156.3,13.1,152.9,13.1z"/>
	<g>
		<path class="st57" d="M136.1,15.6h-18.1c-0.8,0-1.4-0.3-1.4-0.6c0-0.3,0.6-0.6,1.4-0.6h18.1c0.8,0,1.4,0.3,1.4,0.6
			C137.5,15.3,136.9,15.6,136.1,15.6z"/>
	</g>
	<g>
		<path class="st57" d="M48.2,53.9c-0.8,0-1.4-0.3-1.4-0.6V16.8c0-1.4,2.6-2.5,5.8-2.5h57.3c0.8,0,1.4,0.3,1.4,0.6
			c0,0.3-0.6,0.6-1.4,0.6H52.6c-1.6,0-2.9,0.6-2.9,1.3v36.4C49.7,53.6,49,53.9,48.2,53.9z"/>
	</g>
	<g>
		<path class="st57" d="M48.2,80.7c-0.8,0-1.4-0.3-1.4-0.6V57.3c0-0.3,0.6-0.6,1.4-0.6c0.8,0,1.4,0.3,1.4,0.6v22.7
			C49.7,80.4,49,80.7,48.2,80.7z"/>
	</g>
	<g class="st18">
		<path class="st57" d="M156.6,94.6c-0.8,0-1.4-0.3-1.4-0.6V35.3c0-0.3,0.6-0.6,1.4-0.6c0.8,0,1.4,0.3,1.4,0.6V94
			C158.1,94.3,157.4,94.6,156.6,94.6z"/>
	</g>
</g>
<g>
	<g>
		<path class="st19" d="M150.4,21.1H56.7c-1.6,0-2.9,1.3-2.9,2.9v65.8c0,1.6,1.3,2.9,2.9,2.9h93.7c1.6,0,2.9-1.3,2.9-2.9V24
			C153.3,22.4,152,21.1,150.4,21.1z"/>
	</g>
</g>
<text transform="matrix(1 0 0 1 63.2237 52.1908)"><tspan x="0" y="0" class="st17 st58 st59">Great </tspan><tspan x="-4.7" y="30.9" class="st17 st58 st59">Reads</tspan></text>
</svg>
