<?xml version="1.0" encoding="utf-8"?>
<!-- Generator: Adobe Illustrator 22.0.1, SVG Export Plug-In . SVG Version: 6.00 Build 0)  -->
<svg version="1.1" id="Layer_1" xmlns="http://www.w3.org/2000/svg" xmlns:xlink="http://www.w3.org/1999/xlink" x="0px" y="0px"
	 viewBox="0 0 261.2 215.1" style="enable-background:new 0 0 261.2 215.1;" xml:space="preserve">
<style type="text/css">
	.st0{opacity:0.5;fill:#79859D;}
	.st1{fill:#C99265;}
	.st2{fill:#D69E6B;}
	.st3{fill:#E2A971;}
	.st4{fill:#EEEEEE;}
	.st5{fill:#F2F2F2;}
	.st6{fill:#E7AF72;}
	.st7{fill:#D89F71;}
	.st8{fill:#21135F;}
	.st9{fill:#A1007D;}
	.st10{fill:#79A6BC;}
	.st11{fill:#424242;}
	.st12{fill:#760D5D;}
	.st13{fill:#3A3A3A;}
	.st14{fill:#030031;}
	.st15{fill:#63899B;}
	.st16{opacity:0.3;fill:#21145F;}
	.st17{fill:#21145F;}
	.st18{opacity:0.4;}
	.st19{fill:#FFFFFF;}
	.st20{fill:#37A541;}
	.st21{fill:#90CDFF;}
	.st22{fill:#7A8AFB;}
	.st23{opacity:0.3;fill:#E84E21;}
	.st24{fill:#E84E21;}
	.st25{fill:#9C0020;}
	.st26{font-family:'MarkerFelt-Wide';}
	.st27{font-size:26.9074px;}
	.st28{opacity:0.3;fill:#2B2767;}
	.st29{fill:#2B2767;}
	.st30{fill:#3094D8;}
	.st31{fill:#231F20;}
	.st32{fill:#262626;}
	.st33{fill:#1E1E1E;}
	.st34{fill:#333333;}
	.st35{fill:#4D4D4D;}
	.st36{fill:#FBB44C;}
	.st37{fill:#CE4A30;}
	.st38{opacity:0.3;fill:url(#SVGID_1_);}
	.st39{fill:#BD883B;}
	.st40{fill:#95A5A6;}
	.st41{opacity:0.4;fill:#95A5A6;}
	.st42{fill:#FC6D50;}
	.st43{fill:#DE4430;}
	.st44{fill:#FFE060;}
	.st45{fill:#DEB637;}
	.st46{fill:#4A4949;}
	.st47{fill:#3FBCE5;}
	.st48{fill:#30AAD4;}
	.st49{fill:#F8E1BB;}
	.st50{fill:#53E5C9;}
	.st51{fill:#30D4A9;}
	.st52{fill:#4A4444;}
	.st53{opacity:0.3;fill:#E3DC36;}
	.st54{fill:#E3DC36;}
	.st55{fill:#1E87C1;}
	.st56{fill:#E2DED9;}
	.st57{fill:#47B6E1;}
	.st58{opacity:0.3;fill:#23A934;}
	.st59{fill:#23A934;}
	.st60{fill:#C3C6C7;}
	.st61{fill:url(#SVGID_2_);}
	.st62{fill:url(#SVGID_3_);}
	.st63{fill:url(#SVGID_4_);}
	.st64{fill:url(#SVGID_5_);}
	.st65{fill:#8F54DE;}
	.st66{fill:#EF3960;}
	.st67{fill:url(#SVGID_6_);}
	.st68{fill:url(#SVGID_7_);}
	.st69{fill:#F2B980;}
	.st70{fill:url(#SVGID_8_);}
	.st71{fill:#DEAC81;}
	.st72{fill:#DB8057;}
	.st73{fill:#422B1F;}
	.st74{fill:#EE7F58;}
	.st75{fill:url(#SVGID_9_);}
	.st76{fill:#6F3B28;}
	.st77{fill:#F7F5F4;}
	.st78{clip-path:url(#SVGID_11_);fill:#412128;}
	.st79{clip-path:url(#SVGID_13_);fill:#412128;}
	.st80{fill:#232323;}
	.st81{fill:#00BCD4;}
	.st82{fill:url(#SVGID_14_);}
	.st83{clip-path:url(#SVGID_16_);fill:#F7F5F4;}
	.st84{fill:url(#SVGID_17_);}
	.st85{fill:#C9C9C9;}
	.st86{fill:url(#SVGID_18_);}
	.st87{fill:#FF4C33;}
	.st88{fill:url(#SVGID_19_);}
	.st89{fill:url(#SVGID_20_);}
	.st90{fill:url(#SVGID_21_);}
	.st91{fill:#D5EB32;}
	.st92{clip-path:url(#SVGID_23_);}
	.st93{opacity:0.44;fill:#A2D9FF;}
	.st94{opacity:0.38;fill:#FDFFFE;}
	.st95{opacity:0.38;fill:#EAECEB;}
	.st96{fill:#FFFBE6;}
	.st97{fill:url(#SVGID_24_);}
	.st98{fill:url(#SVGID_25_);}
	.st99{clip-path:url(#SVGID_27_);}
	.st100{opacity:0.44;fill:#80CBFF;}
	.st101{fill:url(#SVGID_28_);}
	.st102{fill:#552F1E;}
	.st103{fill:#F6F4F3;}
	.st104{clip-path:url(#SVGID_30_);fill:#412128;}
	.st105{clip-path:url(#SVGID_32_);fill:#412128;}
	.st106{fill:#9A5A16;}
	.st107{clip-path:url(#SVGID_34_);fill:#F6F4F3;}
	.st108{fill:#533427;}
	.st109{fill:#BA7329;}
	.st110{fill:url(#SVGID_35_);}
	.st111{fill:url(#SVGID_36_);}
	.st112{fill:#9F6321;}
	.st113{clip-path:url(#SVGID_38_);}
</style>
<g>
	<polygon class="st20" points="29.8,47.2 20.3,53.2 16.4,96.6 40.2,50.6 	"/>
	<polygon class="st21" points="27.6,47.2 17.7,52.6 11.2,95.7 37.7,51.2 	"/>
	<polygon class="st20" points="90.5,23 96.6,33.3 83.6,28.1 	"/>
	<path class="st22" d="M12.3,9.4c1.1,0,53.5,10.9,53.5,10.9l13.9,23.5l-41.2,8.7L12.3,9.4z"/>
	<polygon class="st21" points="67.4,35.8 80.8,20.8 90.5,23 76,50.3 65.1,52.6 	"/>
	<path class="st21" d="M8.6,15.9c1.1,0,53.5,10.9,53.5,10.9L76,50.3L34.7,59L8.6,15.9z"/>
	<polygon class="st20" points="62.1,26.8 60.4,53.6 76,50.3 	"/>
</g>
<g>
	<g>
		<path class="st23" d="M246.5,55.1H54.3c-3.4,0-6.1,2.7-6.1,6.1v138.6c0,3.4,2.7,6.1,6.1,6.1h192.2c3.4,0,6.1-2.7,6.1-6.1V61.2
			C252.6,57.8,249.9,55.1,246.5,55.1z"/>
		<path class="st24" d="M234.7,51.5H42.5c-3.4,0-6.1,2.7-6.1,6.1v138.6c0,3.4,2.7,6.1,6.1,6.1h192.2c3.4,0,6.1-2.7,6.1-6.1V57.6
			C240.9,54.2,238.1,51.5,234.7,51.5z"/>
		<g>
			<path class="st24" d="M200.7,55.8H169c-1.4,0-2.5-0.5-2.5-1.1c0-0.6,1.1-1.1,2.5-1.1h31.7c1.4,0,2.5,0.5,2.5,1.1
				C203.2,55.3,202.1,55.8,200.7,55.8z"/>
		</g>
		<g>
			<path class="st24" d="M47.2,122.6c-1.4,0-2.5-0.5-2.5-1.1V57.9c0-2.4,4.6-4.3,10.1-4.3h100c1.4,0,2.5,0.5,2.5,1.1
				c0,0.6-1.1,1.1-2.5,1.1h-100c-2.8,0-5.1,1-5.1,2.2v63.6C49.7,122.2,48.6,122.6,47.2,122.6z"/>
		</g>
		<g>
			<path class="st24" d="M47.2,169.5c-1.4,0-2.5-0.5-2.5-1.1v-39.7c0-0.6,1.1-1.1,2.5-1.1c1.4,0,2.5,0.5,2.5,1.1v39.7
				C49.7,169,48.6,169.5,47.2,169.5z"/>
		</g>
		<g class="st18">
			<path class="st24" d="M236.6,193.8c-1.4,0-2.5-0.5-2.5-1.1V90.2c0-0.6,1.1-1.1,2.5-1.1c1.4,0,2.5,0.5,2.5,1.1v102.6
				C239.1,193.3,238,193.8,236.6,193.8z"/>
		</g>
	</g>
	<g>
		<g>
			<path class="st19" d="M226.9,65.4H58.8c-1.6,0-2.9,1.3-2.9,2.9v119.4c0,1.6,1.3,2.9,2.9,2.9h168.1c1.6,0,2.9-1.3,2.9-2.9V68.3
				C229.8,66.7,228.5,65.4,226.9,65.4z"/>
			<path class="st25" d="M213.2,182.7H72.5c-1.3,0-2.3-1-2.3-2.3V77.9c0-1.3,1-2.3,2.3-2.3h140.7c1.3,0,2.3,1,2.3,2.3v102.5
				C215.5,181.7,214.5,182.7,213.2,182.7z"/>
		</g>
	</g>
	<text transform="matrix(1 0 0 1 80.588 134.4528)" class="st19 st26 st27">Grown Ups</text>
</g>
</svg>
