<svg xmlns="http://www.w3.org/2000/svg" viewBox="0 0 244.07 196.52"><defs><style>.cls-1{isolation:isolate;}.cls-2{fill:#37a541;}.cls-3{fill:#90cdff;}.cls-4{fill:#7a8afb;}.cls-5,.cls-6{fill:#e84e21;}.cls-5{opacity:0.3;}.cls-5,.cls-8{mix-blend-mode:multiply;}.cls-7{mix-blend-mode:screen;}.cls-8{opacity:0.4;}.cls-9{fill:#fff;}.cls-10{fill:#9c0020;}</style></defs><title>grownwl</title><g class="cls-1"><g id="Layer_2" data-name="Layer 2"><g id="_ÎÓÈ_1" data-name="—ÎÓÈ_1"><polygon class="cls-2" points="21.25 37.77 11.71 43.75 7.82 87.14 31.63 41.21 21.25 37.77"/><polygon class="cls-3" points="19.02 37.77 9.13 43.16 2.63 86.24 29.16 41.83 19.02 37.77"/><polygon class="cls-2" points="81.92 13.54 88.06 23.86 75.08 18.7 81.92 13.54"/><path class="cls-4" d="M3.78,0C4.84,0,57.29,10.93,57.29,10.93L71.18,34.42,30,43.16Z"/><polygon class="cls-3" points="58.85 26.39 72.22 11.35 81.92 13.54 67.4 40.85 56.52 43.16 58.85 26.39"/><path class="cls-3" d="M0,6.43c1.06,0,53.51,10.93,53.51,10.93L67.4,40.85,26.19,49.59Z"/><polygon class="cls-2" points="53.51 17.36 51.88 44.15 67.4 40.85 53.51 17.36"/></g><g id="text"><rect class="cls-5" x="39.62" y="45.66" width="204.45" height="150.86" rx="6.12" ry="6.12"/><rect class="cls-6" x="27.86" y="42.04" width="204.45" height="150.86" rx="6.12" ry="6.12"/><g class="cls-7"><path class="cls-6" d="M192.13,46.33H160.45c-1.38,0-2.5-.48-2.5-1.07s1.12-1.07,2.5-1.07h31.68c1.39,0,2.51.48,2.51,1.07S193.52,46.33,192.13,46.33Z"/></g><g class="cls-7"><path class="cls-6" d="M38.68,113.23c-1.38,0-2.51-.48-2.51-1.08V48.53c0-2.4,4.55-4.34,10.14-4.34h100c1.39,0,2.51.48,2.51,1.07s-1.12,1.07-2.51,1.07h-100c-2.82,0-5.12,1-5.12,2.2v63.62C41.19,112.75,40.07,113.23,38.68,113.23Z"/></g><g class="cls-7"><path class="cls-6" d="M38.68,160c-1.38,0-2.51-.48-2.51-1.07v-39.7c0-.59,1.13-1.08,2.51-1.08s2.51.49,2.51,1.08V159C41.19,159.56,40.07,160,38.68,160Z"/></g><g class="cls-8"><path class="cls-6" d="M228.07,184.38c-1.38,0-2.51-.49-2.51-1.08V80.75c0-.6,1.13-1.08,2.51-1.08s2.51.48,2.51,1.08V183.3C230.58,183.89,229.46,184.38,228.07,184.38Z"/></g><rect class="cls-9" x="47.33" y="55.99" width="173.97" height="125.26" rx="2.93" ry="2.93"/><rect class="cls-10" x="61.65" y="66.16" width="145.32" height="107.12" rx="2.29" ry="2.29"/></g></g></g></svg>