<?xml version="1.0" encoding="utf-8"?>
<!-- Generator: Adobe Illustrator 22.0.1, SVG Export Plug-In . SVG Version: 6.00 Build 0)  -->
<svg version="1.1" id="Layer_1" xmlns="http://www.w3.org/2000/svg" xmlns:xlink="http://www.w3.org/1999/xlink" x="0px" y="0px"
	 viewBox="0 0 261.2 139.9" style="enable-background:new 0 0 261.2 139.9;" xml:space="preserve">
<style type="text/css">
	.st0{fill:#E2DED9;}
	.st1{fill:#2E8DAF;}
	.st2{fill:#205D6D;}
	.st3{fill:#E9D1B0;}
	.st4{fill:#FFFFFF;}
	.st5{fill:#6357EB;}
	.st6{fill:#3C2DCA;}
	.st7{fill:#FBE4C1;}
	.st8{fill:#41D0EB;}
	.st9{fill:#14B5CA;}
	.st10{fill:#21135F;}
	.st11{fill:#00002C;}
	.st12{fill:#F6CE30;}
	.st13{fill:#D5A50E;}
	.st14{fill:#24AEDC;}
	.st15{fill:#179DCB;}
	.st16{fill:#F6DBBD;}
	.st17{fill:#353434;}
	.st18{fill:#BD883B;}
	.st19{fill:#95A5A6;}
	.st20{opacity:0.4;fill:#95A5A6;}
</style>
<g>
	<polygon id="XMLID_65_" class="st0" points="85.9,9.9 135.9,9.9 135.9,105 85.9,105 65.9,105 65.9,9.9 	"/>
	
		<rect id="XMLID_64_" x="75" y="9.9" transform="matrix(-1 -1.224647e-16 1.224647e-16 -1 220.0515 114.8581)" class="st1" width="70" height="95.1"/>
	
		<rect id="XMLID_63_" x="75" y="9.9" transform="matrix(-1 -1.224647e-16 1.224647e-16 -1 170.0507 114.8581)" class="st2" width="20" height="95.1"/>
	<polygon id="XMLID_23_" class="st3" points="131.5,19.1 135.9,19.1 135.9,95.8 131.5,95.8 131.5,22.4 83.9,22.4 83.9,19.1 	"/>
	<rect x="83.9" y="19.1" class="st4" width="54.4" height="73.3"/>
</g>
<polygon id="XMLID_210_" class="st0" points="218.5,64.1 211,64.1 211,45.8 206.9,45.8 200.2,45.8 200.2,51.9 200.2,105.9 
	206.9,105.9 211,105.9 218.5,105.9 223.1,105.9 223.1,97.9 223.1,96.8 223.1,94.6 223.1,92.9 223.1,86.6 223.1,85.5 223.1,83.2 
	223.1,81.6 223.1,76.1 223.1,75 223.1,72.4 223.1,70.8 223.1,64.1 "/>
<g id="XMLID_200_">
	<rect id="XMLID_208_" x="206.1" y="58.5" class="st5" width="12.1" height="41.8"/>
	<rect id="XMLID_207_" x="213.6" y="58.5" class="st6" width="4.6" height="41.8"/>
	<rect id="XMLID_206_" x="206.1" y="65.2" class="st7" width="12.1" height="1.7"/>
	<rect id="XMLID_205_" x="206.1" y="76" class="st7" width="12.1" height="1.7"/>
	<rect id="XMLID_204_" x="206.1" y="69.4" class="st7" width="12.1" height="1.1"/>
	<rect id="XMLID_203_" x="206.1" y="79.9" class="st7" width="12.1" height="1.1"/>
	<rect id="XMLID_202_" x="206.1" y="87.4" class="st7" width="12.1" height="1.7"/>
	<rect id="XMLID_201_" x="206.1" y="91.3" class="st7" width="12.1" height="1.1"/>
</g>
<g id="XMLID_197_">
	<rect id="XMLID_199_" x="195.3" y="40.3" class="st8" width="10.7" height="60.1"/>
	<rect id="XMLID_198_" x="202" y="40.3" class="st9" width="4.1" height="60.1"/>
</g>
<g id="XMLID_174_">
	<rect id="XMLID_182_" x="206.1" y="58.5" class="st10" width="12.1" height="41.8"/>
	<rect id="XMLID_181_" x="213.6" y="58.5" class="st11" width="4.6" height="41.8"/>
	<rect id="XMLID_180_" x="206.1" y="65.2" class="st7" width="12.1" height="1.7"/>
	<rect id="XMLID_179_" x="206.1" y="76" class="st7" width="12.1" height="1.7"/>
	<rect id="XMLID_178_" x="206.1" y="69.4" class="st7" width="12.1" height="1.1"/>
	<rect id="XMLID_177_" x="206.1" y="79.9" class="st7" width="12.1" height="1.1"/>
	<rect id="XMLID_176_" x="206.1" y="87.4" class="st7" width="12.1" height="1.7"/>
	<rect id="XMLID_175_" x="206.1" y="91.3" class="st7" width="12.1" height="1.1"/>
</g>
<g id="XMLID_171_">
	<rect id="XMLID_173_" x="195.3" y="40.3" class="st8" width="10.7" height="60.1"/>
	<rect id="XMLID_172_" x="202" y="40.3" class="st9" width="4.1" height="60.1"/>
</g>
<g id="XMLID_112_">
	<g id="XMLID_148_">
		
			<rect id="XMLID_150_" x="166.3" y="31.7" transform="matrix(-1 -1.224647e-16 1.224647e-16 -1 347.1502 131.9164)" class="st12" width="14.5" height="68.6"/>
		
			<rect id="XMLID_149_" x="166.3" y="31.7" transform="matrix(-1 -1.224647e-16 1.224647e-16 -1 338.1636 131.9164)" class="st13" width="5.5" height="68.6"/>
	</g>
	<g id="XMLID_141_">
		
			<rect id="XMLID_147_" x="180.8" y="19.1" transform="matrix(-1 -1.224647e-16 1.224647e-16 -1 376.139 119.3068)" class="st14" width="14.5" height="81.2"/>
		
			<rect id="XMLID_146_" x="180.8" y="19.1" transform="matrix(-1 -1.224647e-16 1.224647e-16 -1 367.1526 119.3068)" class="st15" width="5.5" height="81.2"/>
		
			<rect id="XMLID_143_" x="180.8" y="29.2" transform="matrix(-1 -1.224647e-16 1.224647e-16 -1 376.139 60.8699)" class="st16" width="14.5" height="2.5"/>
		
			<rect id="XMLID_142_" x="180.8" y="35.5" transform="matrix(-1 -1.224647e-16 1.224647e-16 -1 376.139 73.5865)" class="st16" width="14.5" height="2.5"/>
	</g>
	<g id="XMLID_136_">
		
			<rect id="XMLID_140_" x="143.7" y="25.6" transform="matrix(-1 -1.224647e-16 1.224647e-16 -1 306.4492 125.8352)" class="st14" width="19.1" height="74.6"/>
		
			<rect id="XMLID_139_" x="143.7" y="25.6" transform="matrix(-1 -1.224647e-16 1.224647e-16 -1 294.6063 125.8352)" class="st15" width="7.3" height="74.6"/>
		
			<rect id="XMLID_138_" x="143.7" y="35.2" transform="matrix(-1 -1.224647e-16 1.224647e-16 -1 306.4492 72.7907)" class="st16" width="19.1" height="2.4"/>
		
			<rect id="XMLID_137_" x="143.7" y="86.7" transform="matrix(-1 -1.224647e-16 1.224647e-16 -1 306.4492 175.6947)" class="st16" width="19.1" height="2.4"/>
	</g>
	<g id="XMLID_127_">
		
			<rect id="XMLID_135_" x="166.3" y="31.7" transform="matrix(-1 -1.224647e-16 1.224647e-16 -1 347.1502 131.9164)" class="st12" width="14.5" height="68.6"/>
		
			<rect id="XMLID_128_" x="166.3" y="31.7" transform="matrix(-1 -1.224647e-16 1.224647e-16 -1 338.1636 131.9164)" class="st13" width="5.5" height="68.6"/>
	</g>
	<g id="XMLID_122_">
		
			<rect id="XMLID_126_" x="180.8" y="19.1" transform="matrix(-1 -1.224647e-16 1.224647e-16 -1 376.139 119.3068)" class="st14" width="14.5" height="81.2"/>
		
			<rect id="XMLID_125_" x="180.8" y="19.1" transform="matrix(-1 -1.224647e-16 1.224647e-16 -1 367.1526 119.3068)" class="st15" width="5.5" height="81.2"/>
		
			<rect id="XMLID_124_" x="180.8" y="29.2" transform="matrix(-1 -1.224647e-16 1.224647e-16 -1 376.139 60.8699)" class="st17" width="14.5" height="2.5"/>
		
			<rect id="XMLID_123_" x="180.8" y="35.5" transform="matrix(-1 -1.224647e-16 1.224647e-16 -1 376.139 73.5865)" class="st17" width="14.5" height="2.5"/>
	</g>
	<g id="XMLID_117_">
		
			<rect id="XMLID_121_" x="143.7" y="25.6" transform="matrix(-1 -1.224647e-16 1.224647e-16 -1 306.4492 125.8352)" class="st14" width="19.1" height="74.6"/>
		
			<rect id="XMLID_120_" x="143.7" y="25.6" transform="matrix(-1 -1.224647e-16 1.224647e-16 -1 294.6063 125.8352)" class="st15" width="7.3" height="74.6"/>
		
			<rect id="XMLID_119_" x="143.7" y="35.2" transform="matrix(-1 -1.224647e-16 1.224647e-16 -1 306.4492 72.7907)" class="st12" width="19.1" height="2.4"/>
		
			<rect id="XMLID_118_" x="143.7" y="86.7" transform="matrix(-1 -1.224647e-16 1.224647e-16 -1 306.4492 175.6947)" class="st12" width="19.1" height="2.4"/>
	</g>
	<path id="XMLID_116_" class="st17" d="M183.6,56.5c0,2.6,2.1,4.7,4.7,4.7c2.6,0,4.7-2.1,4.7-4.7s-2.1-4.7-4.7-4.7
		C185.7,51.8,183.6,53.9,183.6,56.5z"/>
	
		<ellipse id="XMLID_115_" transform="matrix(0.9734 -0.229 0.229 0.9734 -12.7353 37.044)" class="st12" cx="153.2" cy="73.4" rx="7.3" ry="7.3"/>
	
		<rect id="XMLID_114_" x="143.7" y="44.2" transform="matrix(-1 -1.224647e-16 1.224647e-16 -1 306.4492 102.5852)" class="st12" width="19.1" height="14.2"/>
	
		<rect id="XMLID_113_" x="183.6" y="82.4" transform="matrix(-1 -1.224647e-16 1.224647e-16 -1 376.6216 175.9749)" class="st17" width="9.5" height="11.2"/>
</g>
<g>
	<path class="st18" d="M27.6,99.9h192.8c2.5,0,4.6,2.1,4.6,4.6l0,0c0,2.5-2.1,4.6-4.6,4.6H27.6c-2.5,0-4.6-2.1-4.6-4.6l0,0
		C23,102,25,99.9,27.6,99.9z"/>
	<rect x="43.2" y="109.1" class="st19" width="18.8" height="20.9"/>
	
		<rect x="185.9" y="109.1" transform="matrix(-1 -1.224647e-16 1.224647e-16 -1 390.5962 239.0834)" class="st19" width="18.8" height="20.9"/>
	<rect x="43.2" y="109.1" class="st20" width="18.8" height="6.4"/>
	<rect x="185.9" y="109.1" class="st20" width="18.8" height="6.4"/>
</g>
</svg>
