<svg xmlns="http://www.w3.org/2000/svg" viewBox="0 0 168.46 345.93"><defs><style>.cls-1{isolation:isolate;}.cls-2{fill:#79859d;opacity:0.5;}.cls-18,.cls-2,.cls-21{mix-blend-mode:multiply;}.cls-3{fill:#c99265;}.cls-4{fill:#d69e6b;}.cls-5{fill:#e2a971;}.cls-6{fill:#eee;}.cls-7{fill:#f2f2f2;}.cls-8{fill:#e7af72;}.cls-9{fill:#d89f71;}.cls-10{fill:#21135f;}.cls-11{fill:#a1007d;}.cls-12{fill:#79a6bc;}.cls-13{fill:#424242;}.cls-14{fill:#760d5d;}.cls-15{fill:#3a3a3a;}.cls-16{fill:#030031;}.cls-17{fill:#63899b;}.cls-18,.cls-19{fill:#21145f;}.cls-18{opacity:0.3;}.cls-20{mix-blend-mode:screen;}.cls-21{opacity:0.4;}.cls-22{fill:#fff;}</style></defs><title>programswl</title><g class="cls-1"><g id="Layer_2" data-name="Layer 2"><g id="text"><path class="cls-2" d="M9.1,345.93H159.66a4.75,4.75,0,0,0,4.82-4.66h0a4.75,4.75,0,0,0-4.82-4.67H9.1a4.75,4.75,0,0,0-4.81,4.67h0A4.74,4.74,0,0,0,9.1,345.93Z"/><path class="cls-2" d="M64.08,327H103c.69,0,1.24-2.09,1.24-4.67h0c0-2.57-.55-4.66-1.24-4.66H64.08c-.69,0-1.25,2.09-1.25,4.66h0C62.83,324.9,63.39,327,64.08,327Z"/><rect class="cls-3" x="78.77" width="10.92" height="319.77"/><polygon class="cls-4" points="50.41 0 15.39 339 26.37 339 61.39 0 50.41 0"/><polygon class="cls-4" points="117.4 0 106.42 0 141.44 339 152.42 339 117.4 0"/><rect class="cls-5" x="43.41" y="219.63" width="81.63" height="19.33"/><rect class="cls-4" x="43.41" y="222.03" width="81.63" height="10.27"/><rect class="cls-6" x="15.6" y="41.59" width="137.26" height="171.2"/><polygon class="cls-7" points="15.6 41.59 152.86 212.8 152.86 41.59 15.6 41.59"/><rect class="cls-8" y="211.24" width="168.46" height="18.05"/><rect class="cls-8" x="43.41" y="34.72" width="81.63" height="12.97"/><rect class="cls-4" x="43.41" y="44.71" width="81.63" height="2.97"/><rect class="cls-9" x="30.42" y="270.2" width="112.56" height="10.46"/><path class="cls-10" d="M128.06,127.25c-2.37-1.27-6.1-2.3-8.88-1.42a3.26,3.26,0,0,0-1.43.49l-.06.05c-2,1.4-.59,5,2.52,5.63,1.76.36,3.21-.83,4.84.25l1,.6c-.15,1-.3,1.9-.44,2.85-.64.76-2.52.05-3.11-.25-.87-.44-1.41-1.2-2.23-1.67a5.33,5.33,0,0,0-7.13,1.58c-3.75,5.36,6,11.38,10.32,12,2.7.39,5.4-1.44,6.92-3.54,1.12-1.54,1.08-3.07,1.58-4.83s1.73-3.36,1.8-5.26C133.92,130.77,130.35,128.47,128.06,127.25Z"/><path class="cls-10" d="M119,114.22c-.2-1.65-.6-4-2.4-4.55a.66.66,0,0,0-.58.09.78.78,0,0,0-.2.11c-1.09.91-1.21,2.29-1,3.73a16.69,16.69,0,0,0,.94,4.71,26.87,26.87,0,0,0,.45,3,5.5,5.5,0,0,0,1.1,2.64,1.89,1.89,0,0,0,1.28,1.22.63.63,0,0,0,.85-.42.69.69,0,0,0,.52-.64A88.88,88.88,0,0,0,119,114.22Z"/><path class="cls-10" d="M126.65,110.41c-.4-2.49-3.48-4-4.78-1.16-.89,1.94,0,4.47.16,6.48a37.55,37.55,0,0,0,1.13,8,.52.52,0,0,0,.63.36c.34.27.82.25,1.45-.33,1.09-1,1.14-3.43,1.35-4.78A29.23,29.23,0,0,0,126.65,110.41Z"/><path class="cls-10" d="M132.28,112c-3.61-2.48-4.63,11.63-4.65,12.46a.53.53,0,0,0,.43.56.57.57,0,0,0,.28.36c2.24,1.13,3.39-4.13,3.88-5.42C132.87,118.22,134.33,113.42,132.28,112Z"/><path class="cls-10" d="M140,122c.66-.95,1.24-2.25.42-3.28s-1.93-.7-2.79,0a10.69,10.69,0,0,0-2.63,3.57,22,22,0,0,0-1.54,3.83,3.83,3.83,0,0,0-.37,1.83c0,.15,0,.31,0,.45a.48.48,0,0,0,.61.5,1.38,1.38,0,0,0,.39.16c1.34.31,2.42-1.47,2.87-2.43.05-.13.11-.25.16-.36a13.72,13.72,0,0,0,2.28-3.44A10,10,0,0,0,140,122Z"/><path class="cls-10" d="M112.46,132.9a15.67,15.67,0,0,0-2-2.81c-.89-1.1-1.6-2.36-3-2.94-2-.87-3.82.38-2.47,2.4a27.61,27.61,0,0,0,2.43,2.75,9,9,0,0,0,3.21,2.7c.83.31,2.22.29,2.46-.84A1.22,1.22,0,0,0,112.46,132.9Z"/><path class="cls-11" d="M130.17,186.57c-2.37-1.26-6.09-2.29-8.87-1.41a3,3,0,0,0-1.43.49l-.07,0c-2,1.41-.58,5,2.52,5.63,1.76.37,3.22-.83,4.85.26l1,.6-.45,2.84c-.63.76-2.51,0-3.11-.25-.86-.44-1.4-1.19-2.22-1.67a5.34,5.34,0,0,0-7.13,1.58c-3.75,5.36,6,11.38,10.32,12,2.7.38,5.39-1.44,6.92-3.55,1.11-1.53,1.07-3.07,1.58-4.82s1.73-3.36,1.8-5.26C136,190.1,132.47,187.8,130.17,186.57Z"/><path class="cls-11" d="M121.12,173.54c-.2-1.64-.61-4-2.4-4.55a.73.73,0,0,0-.59.1.47.47,0,0,0-.19.11c-1.1.9-1.22,2.29-1,3.73a16.52,16.52,0,0,0,1,4.7,24.91,24.91,0,0,0,.45,3,5.5,5.5,0,0,0,1.1,2.63,1.88,1.88,0,0,0,1.27,1.23.64.64,0,0,0,.86-.43.67.67,0,0,0,.52-.64A89.11,89.11,0,0,0,121.12,173.54Z"/><path class="cls-11" d="M128.77,169.74c-.41-2.49-3.48-4-4.78-1.16-.9,1.94,0,4.47.16,6.47a37.55,37.55,0,0,0,1.13,8,.51.51,0,0,0,.62.36c.35.27.82.24,1.46-.34,1.09-1,1.14-3.43,1.35-4.78A29.51,29.51,0,0,0,128.77,169.74Z"/><path class="cls-11" d="M134.4,171.34c-3.61-2.48-4.63,11.63-4.65,12.46a.51.51,0,0,0,.42.55.64.64,0,0,0,.29.37c2.24,1.13,3.39-4.14,3.87-5.42C135,177.55,136.45,172.75,134.4,171.34Z"/><path class="cls-11" d="M142.15,181.28c.67-.94,1.25-2.24.42-3.27s-1.92-.71-2.78,0a10.89,10.89,0,0,0-2.64,3.58,22.81,22.81,0,0,0-1.53,3.83,3.79,3.79,0,0,0-.37,1.82c0,.16,0,.31-.05.46a.48.48,0,0,0,.61.5,1.38,1.38,0,0,0,.39.15c1.34.31,2.42-1.46,2.86-2.43l.17-.36a13.94,13.94,0,0,0,2.28-3.43A10,10,0,0,0,142.15,181.28Z"/><path class="cls-11" d="M114.58,192.22a16.11,16.11,0,0,0-2-2.8c-.89-1.1-1.6-2.36-3-2.94-2-.87-3.82.38-2.47,2.4a28.78,28.78,0,0,0,2.43,2.75,9,9,0,0,0,3.21,2.69c.83.32,2.22.29,2.45-.83A1.22,1.22,0,0,0,114.58,192.22Z"/><path class="cls-12" d="M90.49,159.36c2.37-1.26,6.09-2.3,8.87-1.42a3.1,3.1,0,0,1,1.43.5l.07,0c2,1.4.58,5-2.52,5.63-1.76.36-3.22-.83-4.85.25l-1,.6.45,2.85c.63.76,2.51.05,3.11-.25.87-.44,1.41-1.19,2.22-1.67a5.33,5.33,0,0,1,7.13,1.58c3.75,5.36-6,11.38-10.32,12-2.7.38-5.39-1.45-6.92-3.55-1.11-1.54-1.07-3.07-1.58-4.82s-1.73-3.36-1.8-5.27C84.62,162.88,88.19,160.58,90.49,159.36Z"/><path class="cls-12" d="M99.54,146.33c.2-1.65.61-4,2.4-4.55a.68.68,0,0,1,.59.09,1.36,1.36,0,0,1,.2.11c1.09.91,1.21,2.29,1,3.73a16.67,16.67,0,0,1-1,4.71,25.21,25.21,0,0,1-.45,3,5.41,5.41,0,0,1-1.1,2.63A1.85,1.85,0,0,1,100,157.3a.63.63,0,0,1-.86-.42.69.69,0,0,1-.52-.64A88.88,88.88,0,0,1,99.54,146.33Z"/><path class="cls-12" d="M91.89,142.52c.41-2.49,3.49-4,4.78-1.16.9,1.95,0,4.47-.16,6.48a37.55,37.55,0,0,1-1.13,8,.5.5,0,0,1-.62.36c-.35.28-.82.25-1.46-.33-1.09-1-1.14-3.43-1.35-4.78A29.57,29.57,0,0,1,91.89,142.52Z"/><path class="cls-12" d="M86.33,152.08c.48,1.29,1.63,6.55,3.87,5.42a.61.61,0,0,0,.29-.36.53.53,0,0,0,.42-.56c0-.83-1-14.94-4.65-12.46C84.21,145.54,85.67,150.33,86.33,152.08Z"/><path class="cls-12" d="M79.15,154.88a14,14,0,0,0,2.28,3.44l.17.36c.44,1,1.52,2.74,2.86,2.43a1.38,1.38,0,0,0,.39-.16.47.47,0,0,0,.61-.49c0-.15,0-.31,0-.46a3.71,3.71,0,0,0-.37-1.83,23.16,23.16,0,0,0-1.53-3.83,10.85,10.85,0,0,0-2.64-3.57c-.86-.68-2-1-2.78,0s-.25,2.33.42,3.28C78.71,154.35,78.93,154.62,79.15,154.88Z"/><path class="cls-12" d="M105.44,166.27c.23,1.13,1.62,1.15,2.45.84a9,9,0,0,0,3.21-2.69,27.73,27.73,0,0,0,2.43-2.76c1.35-2-.43-3.27-2.46-2.4-1.37.59-2.08,1.85-3,3a15.74,15.74,0,0,0-2,2.8A1.2,1.2,0,0,0,105.44,166.27Z"/><polygon class="cls-11" points="55.02 155.87 50.57 157.35 50.57 162.88 55.02 162.88 55.02 155.87"/><path class="cls-11" d="M57.41,210.69h-8.9A1.49,1.49,0,0,1,47,209.2l-.74-37.54H59.63l-.74,37.54A1.49,1.49,0,0,1,57.41,210.69Z"/><path class="cls-13" d="M47,208.22l0,1a1.49,1.49,0,0,0,1.48,1.49h8.9a1.49,1.49,0,0,0,1.48-1.49l0-1Z"/><polygon class="cls-13" points="56.67 167.04 49.26 167.04 46.29 171.66 59.63 171.66 56.67 167.04"/><rect class="cls-13" x="49.25" y="165.4" width="7.33" height="1.65"/><rect class="cls-13" x="50.2" y="161.61" width="5.43" height="4.94"/><polygon class="cls-14" points="52.71 156.64 52.71 162.88 55.02 162.88 55.02 155.87 52.71 156.64"/><path class="cls-14" d="M52.71,171.66v39h4.7a1.49,1.49,0,0,0,1.48-1.49l.74-37.54Z"/><path class="cls-15" d="M52.71,208.22v2.47h4.7a1.49,1.49,0,0,0,1.48-1.49l0-1Z"/><polygon class="cls-15" points="52.71 171.66 59.63 171.66 56.67 167.04 52.71 167.04 52.71 171.66"/><rect class="cls-15" x="52.71" y="165.4" width="3.87" height="1.65"/><rect class="cls-15" x="52.71" y="161.61" width="2.92" height="4.94"/><polygon class="cls-10" points="72.49 155.87 68.04 157.35 68.04 162.88 72.49 162.88 72.49 155.87"/><path class="cls-10" d="M74.88,210.69H66a1.49,1.49,0,0,1-1.48-1.49l-.74-37.54H77.1l-.74,37.54A1.49,1.49,0,0,1,74.88,210.69Z"/><path class="cls-13" d="M64.48,208.22l0,1A1.49,1.49,0,0,0,66,210.69h8.9a1.49,1.49,0,0,0,1.48-1.49l0-1Z"/><polygon class="cls-13" points="74.14 167.04 66.72 167.04 63.76 171.66 77.1 171.66 74.14 167.04"/><rect class="cls-13" x="66.72" y="165.4" width="7.33" height="1.65"/><rect class="cls-13" x="67.67" y="161.61" width="5.43" height="4.94"/><polygon class="cls-16" points="70.18 156.64 70.18 162.88 72.49 162.88 72.49 155.87 70.18 156.64"/><path class="cls-16" d="M70.18,171.66v39h4.7a1.49,1.49,0,0,0,1.48-1.49l.74-37.54Z"/><path class="cls-15" d="M70.18,208.22v2.47h4.7a1.49,1.49,0,0,0,1.48-1.49l0-1Z"/><polygon class="cls-15" points="70.18 171.66 77.1 171.66 74.14 167.04 70.18 167.04 70.18 171.66"/><rect class="cls-15" x="70.18" y="165.4" width="3.87" height="1.65"/><rect class="cls-15" x="70.18" y="161.61" width="2.92" height="4.94"/><polygon class="cls-12" points="36.51 155.87 32.06 157.35 32.06 162.88 36.51 162.88 36.51 155.87"/><path class="cls-12" d="M38.9,210.69H30a1.49,1.49,0,0,1-1.48-1.49l-.74-37.54H41.12l-.74,37.54A1.49,1.49,0,0,1,38.9,210.69Z"/><path class="cls-13" d="M28.5,208.22l0,1A1.49,1.49,0,0,0,30,210.69h8.9a1.49,1.49,0,0,0,1.48-1.49l0-1Z"/><polygon class="cls-13" points="38.16 167.04 30.75 167.04 27.78 171.66 41.12 171.66 38.16 167.04"/><rect class="cls-13" x="30.74" y="165.4" width="7.33" height="1.65"/><rect class="cls-13" x="31.69" y="161.61" width="5.43" height="4.94"/><polygon class="cls-17" points="34.2 156.64 34.2 162.88 36.51 162.88 36.51 155.87 34.2 156.64"/><path class="cls-17" d="M34.2,171.66v39h4.7a1.49,1.49,0,0,0,1.48-1.49l.74-37.54Z"/><path class="cls-15" d="M34.2,208.22v2.47h4.7a1.49,1.49,0,0,0,1.48-1.49l0-1Z"/><polygon class="cls-15" points="34.2 171.66 41.12 171.66 38.16 167.04 34.2 167.04 34.2 171.66"/><rect class="cls-15" x="34.2" y="165.4" width="3.87" height="1.65"/><rect class="cls-15" x="34.2" y="161.61" width="2.92" height="4.94"/><rect class="cls-18" x="28.68" y="54.24" width="117.04" height="46.62" rx="6.12" ry="6.12"/><rect class="cls-19" x="27.68" y="54.05" width="117.04" height="46.62" rx="6.12" ry="6.12"/><g class="cls-20"><path class="cls-19" d="M121.72,55.38H103.58c-.79,0-1.43-.15-1.43-.34s.64-.33,1.43-.33h18.14c.79,0,1.44.15,1.44.33S122.51,55.38,121.72,55.38Z"/></g><g class="cls-20"><path class="cls-19" d="M33.87,76.05c-.79,0-1.44-.15-1.44-.33V56.05c0-.74,2.61-1.34,5.81-1.34H95.5c.8,0,1.44.15,1.44.33s-.64.34-1.44.34H38.24c-1.62,0-2.93.3-2.93.67V75.72C35.31,75.9,34.66,76.05,33.87,76.05Z"/></g><g class="cls-20"><path class="cls-19" d="M33.87,90.51c-.79,0-1.44-.14-1.44-.33V77.91c0-.18.65-.33,1.44-.33s1.44.15,1.44.33V90.18C35.31,90.37,34.66,90.51,33.87,90.51Z"/></g><g class="cls-21"><path class="cls-19" d="M142.3,98c-.8,0-1.44-.15-1.44-.33V66c0-.18.64-.33,1.44-.33s1.43.15,1.43.33V97.7C143.73,97.88,143.09,98,142.3,98Z"/></g><rect class="cls-22" x="39.39" y="60.01" width="99.59" height="33.21" rx="2.93" ry="2.93"/></g></g></g></svg>