<svg xmlns="http://www.w3.org/2000/svg" viewBox="0 0 258.82 400"><defs><style>.cls-1{isolation:isolate;}.cls-2{fill:#79859d;opacity:0.5;}.cls-18,.cls-2,.cls-21{mix-blend-mode:multiply;}.cls-3{fill:#c99265;}.cls-4{fill:#d69e6b;}.cls-5{fill:#e2a971;}.cls-6{fill:#eee;}.cls-7{fill:#f2f2f2;}.cls-8{fill:#e7af72;}.cls-9{fill:#d89f71;}.cls-10{fill:#21135f;}.cls-11{fill:#a1007d;}.cls-12{fill:#79a6bc;}.cls-13{fill:#424242;}.cls-14{fill:#760d5d;}.cls-15{fill:#3a3a3a;}.cls-16{fill:#030031;}.cls-17{fill:#63899b;}.cls-18,.cls-19{fill:#21145f;}.cls-18{opacity:0.3;}.cls-20{mix-blend-mode:screen;}.cls-21{opacity:0.4;}.cls-22{fill:#fff;}.cls-23{font-size:16px;fill:#9c3a85;font-family:MuseoSlab-700, Museo Slab;}</style></defs><title>Artboard 2</title><g class="cls-1"><g id="Layer_1" data-name="Layer 1"><path class="cls-2" d="M47.45,372.25H198a4.74,4.74,0,0,0,4.81-4.66h0a4.74,4.74,0,0,0-4.81-4.67H47.45a4.74,4.74,0,0,0-4.81,4.67h0A4.74,4.74,0,0,0,47.45,372.25Z"/><path class="cls-2" d="M102.42,353.31h38.89c.68,0,1.24-2.09,1.24-4.67h0c0-2.57-.56-4.66-1.24-4.66H102.42c-.68,0-1.24,2.09-1.24,4.66h0C101.18,351.22,101.74,353.31,102.42,353.31Z"/><rect class="cls-3" x="117.12" y="26.32" width="10.92" height="319.77"/><polygon class="cls-4" points="88.76 26.32 53.74 365.32 64.72 365.32 99.74 26.32 88.76 26.32"/><polygon class="cls-4" points="155.75 26.32 144.77 26.32 179.79 365.32 190.76 365.32 155.75 26.32"/><rect class="cls-5" x="81.76" y="245.95" width="81.63" height="19.33"/><rect class="cls-4" x="81.76" y="248.35" width="81.63" height="10.27"/><rect class="cls-6" x="53.94" y="67.91" width="137.26" height="171.2"/><polygon class="cls-7" points="53.94 67.92 191.21 239.12 191.21 67.92 53.94 67.92"/><rect class="cls-8" x="38.35" y="237.56" width="168.46" height="18.05"/><rect class="cls-8" x="81.76" y="61.04" width="81.63" height="12.97"/><rect class="cls-4" x="81.76" y="71.03" width="81.63" height="2.97"/><rect class="cls-9" x="68.76" y="296.52" width="112.56" height="10.46"/><path class="cls-10" d="M166.4,153.57c-2.37-1.27-6.09-2.3-8.87-1.42a3.3,3.3,0,0,0-1.44.49l-.06.05c-1.95,1.4-.58,5,2.52,5.63,1.76.36,3.22-.83,4.85.25l1,.6L164,162c-.63.76-2.52,0-3.11-.25-.87-.44-1.41-1.2-2.23-1.67a5.32,5.32,0,0,0-7.12,1.58c-3.76,5.36,6,11.38,10.32,12,2.69.39,5.39-1.44,6.92-3.54,1.11-1.54,1.07-3.07,1.58-4.83s1.73-3.36,1.8-5.26C172.27,157.09,168.7,154.79,166.4,153.57Z"/><path class="cls-10" d="M157.35,140.54c-.2-1.65-.61-4-2.4-4.55a.68.68,0,0,0-.59.09,1,1,0,0,0-.2.11c-1.09.91-1.21,2.29-1,3.73a16.67,16.67,0,0,0,1,4.71,24.76,24.76,0,0,0,.45,3,5.41,5.41,0,0,0,1.1,2.64,1.85,1.85,0,0,0,1.27,1.22.63.63,0,0,0,.86-.42.69.69,0,0,0,.52-.64A88.88,88.88,0,0,0,157.35,140.54Z"/><path class="cls-10" d="M165,136.73c-.41-2.49-3.49-4-4.78-1.16-.9,1.94,0,4.47.16,6.48a37.55,37.55,0,0,0,1.13,8,.5.5,0,0,0,.62.36c.35.27.82.25,1.46-.33,1.09-1,1.14-3.43,1.35-4.78A29.57,29.57,0,0,0,165,136.73Z"/><path class="cls-10" d="M170.62,138.33C167,135.85,166,150,166,150.79a.55.55,0,0,0,.43.56.61.61,0,0,0,.29.36c2.24,1.13,3.39-4.13,3.87-5.42C171.22,144.54,172.68,139.74,170.62,138.33Z"/><path class="cls-10" d="M178.38,148.28c.66-.95,1.25-2.25.42-3.28s-1.92-.7-2.78,0a10.85,10.85,0,0,0-2.64,3.57,22,22,0,0,0-1.53,3.83,3.71,3.71,0,0,0-.37,1.83c0,.15,0,.31,0,.45a.48.48,0,0,0,.61.5,1.38,1.38,0,0,0,.39.16c1.33.31,2.42-1.47,2.86-2.43.06-.13.11-.25.17-.36a14,14,0,0,0,2.28-3.44C178,148.83,178.18,148.56,178.38,148.28Z"/><path class="cls-10" d="M150.81,159.22a16.18,16.18,0,0,0-2-2.81c-.89-1.1-1.6-2.36-3-2.94-2-.87-3.81.38-2.46,2.4a26.4,26.4,0,0,0,2.43,2.75,9,9,0,0,0,3.2,2.7c.84.31,2.23.29,2.46-.84A1.19,1.19,0,0,0,150.81,159.22Z"/><path class="cls-11" d="M168.52,212.89c-2.37-1.26-6.09-2.29-8.88-1.41a3,3,0,0,0-1.43.49l-.06,0c-2,1.41-.59,5,2.52,5.63,1.76.37,3.21-.83,4.85.26l1,.6c-.14.95-.29,1.89-.44,2.84-.64.76-2.52,0-3.11-.25-.87-.44-1.41-1.19-2.23-1.67a5.34,5.34,0,0,0-7.13,1.58c-3.75,5.36,6,11.38,10.32,12,2.7.38,5.4-1.44,6.92-3.55,1.12-1.53,1.08-3.07,1.59-4.82s1.72-3.36,1.8-5.26C174.38,216.42,170.82,214.12,168.52,212.89Z"/><path class="cls-11" d="M159.47,199.86c-.2-1.64-.61-4-2.4-4.55a.72.72,0,0,0-.59.1.5.5,0,0,0-.2.11c-1.09.9-1.21,2.29-1,3.73a16.18,16.18,0,0,0,1,4.7,24.91,24.91,0,0,0,.45,3,5.32,5.32,0,0,0,1.1,2.63,1.88,1.88,0,0,0,1.27,1.23.65.65,0,0,0,.86-.43.65.65,0,0,0,.51-.64A86.77,86.77,0,0,0,159.47,199.86Z"/><path class="cls-11" d="M167.12,196.06c-.41-2.49-3.49-4-4.79-1.16-.89,1.94,0,4.47.16,6.47a37.55,37.55,0,0,0,1.13,8,.53.53,0,0,0,.63.36c.34.27.82.24,1.46-.34,1.08-1,1.14-3.43,1.34-4.78A29.17,29.17,0,0,0,167.12,196.06Z"/><path class="cls-11" d="M172.74,197.66c-3.61-2.48-4.63,11.63-4.65,12.46a.51.51,0,0,0,.43.55.64.64,0,0,0,.29.37c2.23,1.13,3.39-4.14,3.87-5.42C173.34,203.87,174.8,199.07,172.74,197.66Z"/><path class="cls-11" d="M180.5,207.6c.66-.94,1.25-2.24.42-3.27s-1.92-.71-2.78,0a10.76,10.76,0,0,0-2.64,3.58,21.24,21.24,0,0,0-1.53,3.83,3.67,3.67,0,0,0-.37,1.82c0,.16,0,.31,0,.46a.48.48,0,0,0,.6.5,1.51,1.51,0,0,0,.39.15c1.34.31,2.42-1.46,2.87-2.43.06-.12.11-.24.16-.36a13.67,13.67,0,0,0,2.28-3.43A10.16,10.16,0,0,0,180.5,207.6Z"/><path class="cls-11" d="M152.92,218.55a15.75,15.75,0,0,0-2-2.81c-.89-1.1-1.6-2.36-3-2.94-2-.87-3.82.38-2.46,2.4a27.46,27.46,0,0,0,2.43,2.75,8.93,8.93,0,0,0,3.2,2.69c.84.32,2.22.29,2.46-.83A1.19,1.19,0,0,0,152.92,218.55Z"/><path class="cls-12" d="M128.83,185.68c2.37-1.26,6.1-2.3,8.88-1.42a3.14,3.14,0,0,1,1.43.5l.06,0c2,1.4.59,5-2.52,5.63-1.76.36-3.21-.83-4.84.25l-1.05.6c.15.95.29,1.9.44,2.85.64.76,2.52.05,3.11-.25.87-.44,1.41-1.19,2.23-1.67a5.33,5.33,0,0,1,7.13,1.58c3.75,5.36-6,11.38-10.32,12-2.7.38-5.4-1.45-6.92-3.55-1.12-1.54-1.08-3.07-1.58-4.82s-1.73-3.36-1.8-5.27C123,189.2,126.54,186.9,128.83,185.68Z"/><path class="cls-12" d="M137.89,172.65c.2-1.65.6-4,2.4-4.55a.66.66,0,0,1,.58.09.78.78,0,0,1,.2.11c1.09.91,1.21,2.29,1,3.73a16.33,16.33,0,0,1-.95,4.71,25.15,25.15,0,0,1-.44,3,5.5,5.5,0,0,1-1.1,2.63,1.89,1.89,0,0,1-1.28,1.22.63.63,0,0,1-.85-.42.69.69,0,0,1-.52-.64A86.57,86.57,0,0,1,137.89,172.65Z"/><path class="cls-12" d="M130.24,168.84c.4-2.49,3.48-4,4.78-1.16.89,1.95,0,4.47-.16,6.48a37.55,37.55,0,0,1-1.13,8,.52.52,0,0,1-.63.36c-.34.28-.82.25-1.45-.33-1.09-1-1.15-3.43-1.35-4.78A29.23,29.23,0,0,1,130.24,168.84Z"/><path class="cls-12" d="M124.67,178.4c.49,1.29,1.64,6.55,3.88,5.42a.6.6,0,0,0,.28-.36.52.52,0,0,0,.43-.56c0-.83-1-14.94-4.65-12.46C122.56,171.86,124,176.65,124.67,178.4Z"/><path class="cls-12" d="M117.5,181.2a13.72,13.72,0,0,0,2.28,3.44l.16.36c.45,1,1.53,2.74,2.87,2.43a1.38,1.38,0,0,0,.39-.16.47.47,0,0,0,.61-.49c0-.15,0-.31,0-.46a3.83,3.83,0,0,0-.37-1.83,22.32,22.32,0,0,0-1.54-3.83,10.69,10.69,0,0,0-2.63-3.57c-.87-.68-2-1-2.79,0s-.24,2.33.42,3.28A10,10,0,0,0,117.5,181.2Z"/><path class="cls-12" d="M143.78,192.59c.24,1.13,1.63,1.15,2.46.84a9,9,0,0,0,3.21-2.69,26.41,26.41,0,0,0,2.42-2.76c1.36-2-.42-3.27-2.46-2.4-1.36.59-2.07,1.85-3,2.95a15.26,15.26,0,0,0-2,2.8A1.21,1.21,0,0,0,143.78,192.59Z"/><polygon class="cls-11" points="93.36 182.19 88.92 183.67 88.92 189.2 93.36 189.2 93.36 182.19"/><path class="cls-11" d="M95.75,237H86.86a1.49,1.49,0,0,1-1.48-1.49L84.64,198H98l-.75,37.54A1.49,1.49,0,0,1,95.75,237Z"/><path class="cls-13" d="M85.36,234.54l0,1A1.49,1.49,0,0,0,86.86,237h8.89a1.49,1.49,0,0,0,1.48-1.49l0-1Z"/><polygon class="cls-13" points="95.01 193.37 87.6 193.37 84.64 197.98 97.98 197.98 95.01 193.37"/><rect class="cls-13" x="87.6" y="191.72" width="7.33" height="1.65"/><rect class="cls-13" x="88.55" y="187.93" width="5.43" height="4.94"/><polygon class="cls-14" points="91.06 182.96 91.06 189.2 93.36 189.2 93.36 182.19 91.06 182.96"/><path class="cls-14" d="M91.06,198v39h4.69a1.49,1.49,0,0,0,1.48-1.49L98,198Z"/><path class="cls-15" d="M91.06,234.54V237h4.69a1.49,1.49,0,0,0,1.48-1.49l0-1Z"/><polygon class="cls-15" points="91.06 197.98 97.98 197.98 95.01 193.37 91.06 193.37 91.06 197.98"/><rect class="cls-15" x="91.06" y="191.72" width="3.87" height="1.65"/><rect class="cls-15" x="91.06" y="187.93" width="2.92" height="4.94"/><polygon class="cls-10" points="110.83 182.19 106.39 183.67 106.39 189.2 110.83 189.2 110.83 182.19"/><path class="cls-10" d="M113.22,237h-8.89a1.49,1.49,0,0,1-1.48-1.49L102.11,198h13.34l-.75,37.54A1.49,1.49,0,0,1,113.22,237Z"/><path class="cls-13" d="M102.83,234.54l0,1a1.49,1.49,0,0,0,1.48,1.49h8.89a1.49,1.49,0,0,0,1.48-1.49l0-1Z"/><polygon class="cls-13" points="112.48 193.37 105.07 193.37 102.11 197.98 115.45 197.98 112.48 193.37"/><rect class="cls-13" x="105.07" y="191.72" width="7.33" height="1.65"/><rect class="cls-13" x="106.02" y="187.93" width="5.43" height="4.94"/><polygon class="cls-16" points="108.53 182.96 108.53 189.2 110.83 189.2 110.83 182.19 108.53 182.96"/><path class="cls-16" d="M108.53,198v39h4.69a1.49,1.49,0,0,0,1.48-1.49l.75-37.54Z"/><path class="cls-15" d="M108.53,234.54V237h4.69a1.49,1.49,0,0,0,1.48-1.49l0-1Z"/><polygon class="cls-15" points="108.53 197.98 115.45 197.98 112.48 193.37 108.53 193.37 108.53 197.98"/><rect class="cls-15" x="108.53" y="191.72" width="3.87" height="1.65"/><rect class="cls-15" x="108.53" y="187.93" width="2.92" height="4.94"/><polygon class="cls-12" points="74.86 182.19 70.41 183.67 70.41 189.2 74.86 189.2 74.86 182.19"/><path class="cls-12" d="M77.24,237H68.35a1.49,1.49,0,0,1-1.48-1.49L66.13,198H79.47l-.75,37.54A1.49,1.49,0,0,1,77.24,237Z"/><path class="cls-13" d="M66.85,234.54l0,1A1.49,1.49,0,0,0,68.35,237h8.89a1.49,1.49,0,0,0,1.48-1.49l0-1Z"/><polygon class="cls-13" points="76.5 193.37 69.09 193.37 66.13 197.98 79.47 197.98 76.5 193.37"/><rect class="cls-13" x="69.09" y="191.72" width="7.33" height="1.65"/><rect class="cls-13" x="70.04" y="187.93" width="5.43" height="4.94"/><polygon class="cls-17" points="72.55 182.96 72.55 189.2 74.86 189.2 74.86 182.19 72.55 182.96"/><path class="cls-17" d="M72.55,198v39h4.69a1.49,1.49,0,0,0,1.48-1.49L79.47,198Z"/><path class="cls-15" d="M72.55,234.54V237h4.69a1.49,1.49,0,0,0,1.48-1.49l0-1Z"/><polygon class="cls-15" points="72.55 197.98 79.47 197.98 76.5 193.37 72.55 193.37 72.55 197.98"/><rect class="cls-15" x="72.55" y="191.72" width="3.87" height="1.65"/><rect class="cls-15" x="72.55" y="187.93" width="2.92" height="4.94"/><rect class="cls-18" x="67.03" y="80.56" width="117.04" height="46.62" rx="6.12" ry="6.12"/><rect class="cls-19" x="66.02" y="80.37" width="117.04" height="46.62" rx="6.12" ry="6.12"/><g class="cls-20"><path class="cls-19" d="M160.07,81.7H141.93c-.79,0-1.44-.15-1.44-.34s.65-.33,1.44-.33h18.14c.79,0,1.43.15,1.43.33S160.86,81.7,160.07,81.7Z"/></g><g class="cls-20"><path class="cls-19" d="M72.22,102.37c-.8,0-1.44-.15-1.44-.33V82.37c0-.74,2.61-1.34,5.81-1.34h57.26c.79,0,1.44.15,1.44.33s-.65.34-1.44.34H76.59c-1.62,0-2.94.3-2.94.67V102C73.65,102.22,73,102.37,72.22,102.37Z"/></g><g class="cls-20"><path class="cls-19" d="M72.22,116.83c-.8,0-1.44-.14-1.44-.33V104.23c0-.18.64-.33,1.44-.33s1.43.15,1.43.33V116.5C73.65,116.69,73,116.83,72.22,116.83Z"/></g><g class="cls-21"><path class="cls-19" d="M180.64,124.35c-.79,0-1.44-.14-1.44-.33V92.33c0-.18.65-.33,1.44-.33s1.44.15,1.44.33V124C182.08,124.21,181.43,124.35,180.64,124.35Z"/></g><rect class="cls-22" x="77.74" y="86.33" width="99.59" height="33.21" rx="2.93" ry="2.93"/><text class="cls-23" transform="translate(88.92 108.18)">Programs</text></g></g></svg>