<svg id="Layer_1" data-name="Layer 1" xmlns="http://www.w3.org/2000/svg" viewBox="0 0 168.46 345.93"><defs><style>.cls-1{fill:#79859d;opacity:0.5;}.cls-1,.cls-17{isolation:isolate;}.cls-2{fill:#c99265;}.cls-3{fill:#d69e6b;}.cls-4{fill:#e2a971;}.cls-5{fill:#eee;}.cls-6{fill:#f2f2f2;}.cls-7{fill:#e7af72;}.cls-8{fill:#d89f71;}.cls-9{fill:#a1007d;}.cls-10{fill:#79a6bc;}.cls-11{fill:#424242;}.cls-12{fill:#760d5d;}.cls-13{fill:#3a3a3a;}.cls-14{fill:#21135f;}.cls-15{fill:#030031;}.cls-16{fill:#63899b;}.cls-17,.cls-18,.cls-21{fill:#21145f;}.cls-17{opacity:0.3;}.cls-19{opacity:0.4;}.cls-20{fill:#fff;}.cls-21{font-size:24px;font-family:ChalkboardSE-Bold, Chalkboard SE;font-weight:700;letter-spacing:-0.02em;}.cls-22{letter-spacing:-0.01em;}.cls-23{letter-spacing:0.02em;}.cls-24{letter-spacing:0.03em;}.cls-25{letter-spacing:-0.07em;}.cls-26{letter-spacing:0em;}</style></defs><title>programswl</title><path class="cls-1" d="M9.1,345.93H159.66a4.74,4.74,0,0,0,4.82-4.66h0a4.75,4.75,0,0,0-4.82-4.67H9.1a4.74,4.74,0,0,0-4.81,4.67h0A4.74,4.74,0,0,0,9.1,345.93Z"/><path class="cls-1" d="M64.08,327H103c.69,0,1.24-2.09,1.24-4.67h0c0-2.57-.55-4.66-1.24-4.66H64.08c-.69,0-1.25,2.09-1.25,4.66h0C62.83,324.9,63.39,327,64.08,327Z"/><rect class="cls-2" x="78.77" width="10.92" height="319.77"/><polygon class="cls-3" points="50.41 0 15.39 339 26.37 339 61.39 0 50.41 0"/><polygon class="cls-3" points="117.4 0 106.42 0 141.44 339 152.42 339 117.4 0"/><rect class="cls-4" x="43.41" y="219.63" width="81.63" height="19.33"/><rect class="cls-3" x="43.41" y="222.03" width="81.63" height="10.27"/><rect class="cls-5" x="15.6" y="41.59" width="137.26" height="171.2"/><polygon class="cls-6" points="15.6 41.59 152.86 212.8 152.86 41.59 15.6 41.59"/><rect class="cls-7" y="211.24" width="168.46" height="18.05"/><rect class="cls-7" x="43.41" y="34.72" width="81.63" height="12.97"/><rect class="cls-3" x="43.41" y="44.71" width="81.63" height="2.97"/><rect class="cls-8" x="30.42" y="270.2" width="112.56" height="10.46"/><path class="cls-9" d="M130.17,186.57c-2.37-1.26-6.09-2.29-8.87-1.41a3.06,3.06,0,0,0-1.43.49h-.07c-2,1.41-.58,5,2.52,5.63,1.76.37,3.22-.83,4.85.26l1,.6-.45,2.84c-.63.76-2.51,0-3.11-.25-.86-.44-1.4-1.19-2.22-1.67a5.35,5.35,0,0,0-7.13,1.58c-3.75,5.36,6,11.38,10.32,12,2.7.38,5.39-1.44,6.92-3.55,1.11-1.53,1.07-3.07,1.58-4.82s1.73-3.36,1.8-5.26C136,190.1,132.47,187.8,130.17,186.57Z"/><path class="cls-9" d="M121.12,173.54c-.2-1.64-.61-4-2.4-4.55a.72.72,0,0,0-.59.1.45.45,0,0,0-.19.11c-1.1.9-1.22,2.29-1,3.73a16.44,16.44,0,0,0,1,4.7,25.24,25.24,0,0,0,.45,3,5.5,5.5,0,0,0,1.1,2.63,1.87,1.87,0,0,0,1.27,1.23.63.63,0,0,0,.83-.35l0-.08a.67.67,0,0,0,.52-.64A90.86,90.86,0,0,0,121.12,173.54Z"/><path class="cls-9" d="M128.77,169.74c-.41-2.49-3.48-4-4.78-1.16-.9,1.94,0,4.47.16,6.47a37.91,37.91,0,0,0,1.13,8,.51.51,0,0,0,.62.36c.35.27.82.24,1.46-.34,1.09-1,1.14-3.43,1.35-4.78A29.51,29.51,0,0,0,128.77,169.74Z"/><path class="cls-9" d="M134.4,171.34c-3.61-2.48-4.63,11.63-4.65,12.46a.52.52,0,0,0,.42.55.64.64,0,0,0,.29.37c2.24,1.13,3.39-4.14,3.87-5.42C135,177.55,136.45,172.75,134.4,171.34Z"/><path class="cls-9" d="M142.15,181.28c.67-.94,1.25-2.24.42-3.27s-1.92-.71-2.78,0a10.82,10.82,0,0,0-2.64,3.58,23,23,0,0,0-1.53,3.83,3.82,3.82,0,0,0-.37,1.82,1.41,1.41,0,0,1-.05.46.49.49,0,0,0,.44.52.5.5,0,0,0,.17,0,1.32,1.32,0,0,0,.39.15c1.34.31,2.42-1.46,2.86-2.43l.17-.36a13.85,13.85,0,0,0,2.28-3.43A10.49,10.49,0,0,0,142.15,181.28Z"/><path class="cls-9" d="M114.58,192.22a16.21,16.21,0,0,0-2-2.8c-.89-1.1-1.6-2.36-3-2.94-2-.87-3.82.38-2.47,2.4a27.61,27.61,0,0,0,2.43,2.75,8.89,8.89,0,0,0,3.21,2.69c.83.32,2.22.29,2.45-.83A1.22,1.22,0,0,0,114.58,192.22Z"/><path class="cls-10" d="M90.49,159.36c2.37-1.26,6.09-2.3,8.87-1.42a3.19,3.19,0,0,1,1.43.5h.07c2,1.4.58,5-2.52,5.63-1.76.36-3.22-.83-4.85.25l-1,.6.45,2.85c.63.76,2.51,0,3.11-.25.87-.44,1.41-1.19,2.22-1.67a5.33,5.33,0,0,1,7.13,1.58c3.75,5.36-6,11.38-10.32,12-2.7.38-5.39-1.45-6.92-3.55-1.11-1.54-1.07-3.07-1.58-4.82s-1.73-3.36-1.8-5.27C84.62,162.88,88.19,160.58,90.49,159.36Z"/><path class="cls-10" d="M99.54,146.33c.2-1.65.61-4,2.4-4.55a.68.68,0,0,1,.59.09l.2.11c1.09.91,1.21,2.29,1,3.73a16.51,16.51,0,0,1-1,4.71,25.24,25.24,0,0,1-.45,3,5.31,5.31,0,0,1-1.1,2.63A1.85,1.85,0,0,1,100,157.3a.63.63,0,0,1-.83-.33l0-.09a.68.68,0,0,1-.52-.64A88.8,88.8,0,0,1,99.54,146.33Z"/><path class="cls-10" d="M91.89,142.52c.41-2.49,3.49-4,4.78-1.16.9,1.95,0,4.47-.16,6.48a37.91,37.91,0,0,1-1.13,8,.5.5,0,0,1-.61.36h0c-.35.28-.82.25-1.46-.33-1.09-1-1.14-3.43-1.35-4.78A29.3,29.3,0,0,1,91.89,142.52Z"/><path class="cls-10" d="M86.33,152.08c.48,1.29,1.63,6.55,3.87,5.42a.65.65,0,0,0,.29-.36.53.53,0,0,0,.42-.56c0-.83-1-14.94-4.65-12.46C84.21,145.54,85.67,150.33,86.33,152.08Z"/><path class="cls-10" d="M79.15,154.88a14.1,14.1,0,0,0,2.28,3.44l.17.36c.44,1,1.52,2.74,2.86,2.43a1.34,1.34,0,0,0,.39-.16.47.47,0,0,0,.59-.31.37.37,0,0,0,0-.18V160a3.74,3.74,0,0,0-.37-1.83,23.9,23.9,0,0,0-1.53-3.83,10.78,10.78,0,0,0-2.64-3.57c-.86-.68-2-1-2.78,0s-.25,2.33.42,3.28A4.32,4.32,0,0,0,79.15,154.88Z"/><path class="cls-10" d="M105.44,166.27c.23,1.13,1.62,1.15,2.45.84a8.89,8.89,0,0,0,3.21-2.69,28.9,28.9,0,0,0,2.43-2.76c1.35-2-.43-3.27-2.46-2.4-1.37.59-2.08,1.85-3,3a15.69,15.69,0,0,0-2,2.8A1.2,1.2,0,0,0,105.44,166.27Z"/><polygon class="cls-9" points="55.02 155.87 50.57 157.35 50.57 162.88 55.02 162.88 55.02 155.87"/><path class="cls-9" d="M57.41,210.69h-8.9A1.49,1.49,0,0,1,47,209.22v0l-.74-37.54H59.63l-.74,37.54A1.49,1.49,0,0,1,57.41,210.69Z"/><path class="cls-11" d="M47,208.22v1a1.49,1.49,0,0,0,1.48,1.49h8.9a1.49,1.49,0,0,0,1.48-1.49v-1Z"/><polygon class="cls-11" points="56.67 167.04 49.26 167.04 46.29 171.66 59.63 171.66 56.67 167.04"/><rect class="cls-11" x="49.25" y="165.4" width="7.33" height="1.65"/><rect class="cls-11" x="50.2" y="161.61" width="5.43" height="4.94"/><polygon class="cls-12" points="52.71 156.64 52.71 162.88 55.02 162.88 55.02 155.87 52.71 156.64"/><path class="cls-12" d="M52.71,171.66v39h4.7a1.49,1.49,0,0,0,1.48-1.49l.74-37.54Z"/><path class="cls-13" d="M52.71,208.22v2.47h4.7a1.49,1.49,0,0,0,1.48-1.49v-1Z"/><polygon class="cls-13" points="52.71 171.66 59.63 171.66 56.67 167.04 52.71 167.04 52.71 171.66"/><rect class="cls-13" x="52.71" y="165.4" width="3.87" height="1.65"/><rect class="cls-13" x="52.71" y="161.61" width="2.92" height="4.94"/><polygon class="cls-14" points="72.49 155.87 68.04 157.35 68.04 162.88 72.49 162.88 72.49 155.87"/><path class="cls-14" d="M74.88,210.69H66a1.49,1.49,0,0,1-1.48-1.49l-.74-37.54H77.1l-.74,37.54A1.49,1.49,0,0,1,74.88,210.69Z"/><path class="cls-11" d="M64.48,208.22v1A1.49,1.49,0,0,0,66,210.69H74.9a1.49,1.49,0,0,0,1.48-1.49v-1Z"/><polygon class="cls-11" points="74.14 167.04 66.72 167.04 63.76 171.66 77.1 171.66 74.14 167.04"/><rect class="cls-11" x="66.72" y="165.4" width="7.33" height="1.65"/><rect class="cls-11" x="67.67" y="161.61" width="5.43" height="4.94"/><polygon class="cls-15" points="70.18 156.64 70.18 162.88 72.49 162.88 72.49 155.87 70.18 156.64"/><path class="cls-15" d="M70.18,171.66v39h4.7a1.49,1.49,0,0,0,1.48-1.49l.74-37.54Z"/><path class="cls-13" d="M70.18,208.22v2.47h4.7a1.49,1.49,0,0,0,1.48-1.49v-1Z"/><polygon class="cls-13" points="70.18 171.66 77.1 171.66 74.14 167.04 70.18 167.04 70.18 171.66"/><rect class="cls-13" x="70.18" y="165.4" width="3.87" height="1.65"/><rect class="cls-13" x="70.18" y="161.61" width="2.92" height="4.94"/><polygon class="cls-10" points="36.51 155.87 32.06 157.35 32.06 162.88 36.51 162.88 36.51 155.87"/><path class="cls-10" d="M38.9,210.69H30a1.49,1.49,0,0,1-1.48-1.49l-.74-37.54H41.12l-.74,37.54A1.49,1.49,0,0,1,38.9,210.69Z"/><path class="cls-11" d="M28.5,208.22v1a1.49,1.49,0,0,0,1.5,1.47h8.9a1.49,1.49,0,0,0,1.48-1.49v-1Z"/><polygon class="cls-11" points="38.16 167.04 30.75 167.04 27.78 171.66 41.12 171.66 38.16 167.04"/><rect class="cls-11" x="30.74" y="165.4" width="7.33" height="1.65"/><rect class="cls-11" x="31.69" y="161.61" width="5.43" height="4.94"/><polygon class="cls-16" points="34.2 156.64 34.2 162.88 36.51 162.88 36.51 155.87 34.2 156.64"/><path class="cls-16" d="M34.2,171.66v39h4.7a1.49,1.49,0,0,0,1.48-1.49l.74-37.54Z"/><path class="cls-13" d="M34.2,208.22v2.47h4.7a1.49,1.49,0,0,0,1.48-1.49v-1Z"/><polygon class="cls-13" points="34.2 171.66 41.12 171.66 38.16 167.04 34.2 167.04 34.2 171.66"/><rect class="cls-13" x="34.2" y="165.4" width="3.87" height="1.65"/><rect class="cls-13" x="34.2" y="161.61" width="2.92" height="4.94"/><rect class="cls-17" x="28.68" y="54.24" width="117.04" height="46.62" rx="6.12" ry="6.12"/><rect class="cls-18" x="27.68" y="54.05" width="117.04" height="46.62" rx="6.12" ry="6.12"/><path class="cls-18" d="M121.72,55.38H103.58c-.79,0-1.43-.15-1.43-.34s.64-.33,1.43-.33h18.14c.79,0,1.44.15,1.44.33S122.51,55.38,121.72,55.38Z"/><path class="cls-18" d="M33.87,76.05c-.79,0-1.44-.15-1.44-.33V56.05c0-.74,2.61-1.34,5.81-1.34H95.5c.8,0,1.44.15,1.44.33s-.64.34-1.44.34H38.24c-1.62,0-2.93.3-2.93.67V75.72C35.31,75.9,34.66,76.05,33.87,76.05Z"/><path class="cls-18" d="M33.87,90.51c-.79,0-1.44-.14-1.44-.33V77.91c0-.18.65-.33,1.44-.33s1.44.15,1.44.33V90.18C35.31,90.37,34.66,90.51,33.87,90.51Z"/><g class="cls-19"><path class="cls-18" d="M142.3,98c-.8,0-1.44-.15-1.44-.33V66c0-.18.64-.33,1.44-.33s1.43.15,1.43.33V97.7C143.73,97.88,143.09,98,142.3,98Z"/></g><rect class="cls-20" x="39.39" y="60.01" width="99.59" height="33.21" rx="2.93" ry="2.93"/><text class="cls-21" transform="translate(40.38 84.05)">P<tspan class="cls-22" x="14.06" y="0">r</tspan><tspan class="cls-23" x="24.74" y="0">o</tspan><tspan class="cls-24" x="37.34" y="0">g</tspan><tspan class="cls-25" x="51.21" y="0">r</tspan><tspan class="cls-26" x="60.65" y="0">ams</tspan></text></svg>