<svg xmlns="http://www.w3.org/2000/svg" viewBox="0 0 201.95 116.75"><defs><style>.cls-1{isolation:isolate;}.cls-2{fill:#e2ded9;}.cls-3{fill:#47b6e1;}.cls-4{fill:#30aad4;}.cls-5{fill:#f8e1bb;}.cls-6{fill:#53e5c9;}.cls-7{fill:#30d4a9;}.cls-8{fill:#4a4444;}.cls-9{fill:#bd883b;}.cls-10,.cls-11{fill:#95a5a6;}.cls-11,.cls-15{opacity:0.4;}.cls-11,.cls-12,.cls-15{mix-blend-mode:multiply;}.cls-12,.cls-13{fill:#23a934;}.cls-12{opacity:0.3;}.cls-14{mix-blend-mode:screen;}.cls-16{fill:#fff;}</style></defs><title>readswl</title><g class="cls-1"><g id="Layer_2" data-name="Layer 2"><g id="text"><polygon id="_Path_" data-name="&lt;Path&gt;" class="cls-2" points="170.28 88.09 170.28 81.49 170.28 79.59 170.28 76.63 170.28 74.72 170.28 39.81 170.28 37.9 170.28 34.94 170.28 33.04 170.28 26.38 163.5 26.38 152.43 26.38 152.43 20.2 145.32 20.2 133.73 20.2 133.73 29.11 133.73 31.32 133.73 76.81 133.73 79.02 133.73 89.4 145.32 89.4 152.43 89.4 152.43 88.09 163.5 88.09 170.28 88.09"/><g id="_Group_" data-name="&lt;Group&gt;"><rect id="_Rectangle_" data-name="&lt;Rectangle&gt;" class="cls-3" x="127.03" y="17.98" width="18.7" height="69.2"/><rect id="_Rectangle_2" data-name="&lt;Rectangle&gt;" class="cls-4" x="138.63" y="17.98" width="7.11" height="69.2"/><rect id="_Rectangle_3" data-name="&lt;Rectangle&gt;" class="cls-5" x="127.03" y="26.88" width="18.7" height="2.21"/><rect id="_Rectangle_4" data-name="&lt;Rectangle&gt;" class="cls-5" x="127.03" y="74.58" width="18.7" height="2.21"/></g><g id="_Group_2" data-name="&lt;Group&gt;"><rect id="_Rectangle_5" data-name="&lt;Rectangle&gt;" class="cls-6" x="145.73" y="24.15" width="17.85" height="61.71"/><rect id="_Rectangle_6" data-name="&lt;Rectangle&gt;" class="cls-7" x="156.8" y="24.15" width="6.78" height="61.71"/><rect id="_Rectangle_7" data-name="&lt;Rectangle&gt;" class="cls-8" x="145.73" y="30.81" width="17.85" height="1.9"/><rect id="_Rectangle_8" data-name="&lt;Rectangle&gt;" class="cls-8" x="145.73" y="35.68" width="17.85" height="1.9"/><rect id="_Rectangle_9" data-name="&lt;Rectangle&gt;" class="cls-8" x="145.73" y="72.5" width="17.85" height="1.9"/><rect id="_Rectangle_10" data-name="&lt;Rectangle&gt;" class="cls-8" x="145.73" y="77.36" width="17.85" height="1.9"/></g><path class="cls-9" d="M4.6,86.7H197.35a4.6,4.6,0,0,1,4.6,4.59h0a4.6,4.6,0,0,1-4.6,4.6H4.6A4.6,4.6,0,0,1,0,91.29H0A4.6,4.6,0,0,1,4.6,86.7Z"/><rect class="cls-10" x="20.22" y="95.89" width="18.8" height="20.86"/><rect class="cls-10" x="162.93" y="95.89" width="18.79" height="20.86" transform="translate(344.66 212.64) rotate(180)"/><rect class="cls-11" x="20.22" y="95.89" width="18.8" height="6.4"/><rect class="cls-11" x="162.93" y="95.89" width="18.79" height="6.4"/><rect class="cls-12" x="6.23" y="0.36" width="117.04" height="86.36" rx="6.12" ry="6.12"/><rect class="cls-13" x="5.23" width="117.04" height="86.36" rx="6.12" ry="6.12"/><g class="cls-14"><path class="cls-13" d="M99.27,2.46H81.14c-.8,0-1.44-.28-1.44-.62s.64-.61,1.44-.61H99.27c.8,0,1.44.27,1.44.61S100.07,2.46,99.27,2.46Z"/></g><g class="cls-14"><path class="cls-13" d="M11.42,40.76c-.79,0-1.43-.28-1.43-.62V3.71c0-1.37,2.6-2.48,5.8-2.48H73.06c.79,0,1.43.27,1.43.61s-.64.62-1.43.62H15.79c-1.61,0-2.93.56-2.93,1.25V40.14C12.86,40.48,12.22,40.76,11.42,40.76Z"/></g><g class="cls-14"><path class="cls-13" d="M11.42,67.56c-.79,0-1.43-.28-1.43-.62V44.21c0-.34.64-.61,1.43-.61s1.44.27,1.44.61V66.94C12.86,67.28,12.22,67.56,11.42,67.56Z"/></g><g class="cls-15"><path class="cls-13" d="M119.85,81.49c-.79,0-1.44-.28-1.44-.62V22.16c0-.34.65-.62,1.44-.62s1.43.28,1.43.62V80.87C121.28,81.21,120.64,81.49,119.85,81.49Z"/></g><rect class="cls-16" x="16.95" y="7.99" width="99.59" height="71.71" rx="2.93" ry="2.93"/></g></g></g></svg>