<svg xmlns="http://www.w3.org/2000/svg" xmlns:xlink="http://www.w3.org/1999/xlink" viewBox="0 0 204.79 96.39"><defs><style>.cls-1{isolation:isolate;}.cls-2{fill:#e2ded9;}.cls-3{fill:#3fbce5;}.cls-4{fill:#30aad4;}.cls-5{fill:#f8e1bb;}.cls-6{fill:#4b76df;}.cls-7{fill:#1c52bc;}.cls-8{fill:#21135f;}.cls-9{fill:#00002c;}.cls-10{fill:#fff1e1;}.cls-11{fill:#a1007d;}.cls-12{fill:#e9d1b0;}.cls-13{fill:#7f1c3c;}.cls-14{fill:#53e5c9;}.cls-15{fill:#30d4a9;}.cls-16{fill:#ffdc4e;}.cls-17{fill:#deb227;}.cls-18{opacity:0.3;fill:url(#_ÂÁ_Ï_ÌÌ_È_ËÂÌÚ_42);}.cls-18,.cls-21{mix-blend-mode:multiply;}.cls-19{fill:#bd883b;}.cls-20,.cls-21{fill:#95a5a6;}.cls-21{opacity:0.4;}</style><linearGradient id="_ÂÁ_Ï_ÌÌ_È_ËÂÌÚ_42" x1="12.03" y1="80.28" x2="204.79" y2="80.28" gradientUnits="userSpaceOnUse"><stop offset="0" stop-color="#ab8049"/><stop offset="0.5" stop-color="#8e725e"/><stop offset="1" stop-color="#7d5f50"/></linearGradient></defs><title>shelfwl</title><g class="cls-1"><g id="Layer_2" data-name="Layer 2"><g id="_ÎÓÈ_1" data-name="—ÎÓÈ_1"><polygon id="_Path_" data-name="&lt;Path&gt;" class="cls-2" points="94.16 10.69 94.16 10.69 93.91 9.93 92.56 10.36 92.81 11.12 88.34 12.54 88.09 11.77 86.74 12.2 96.22 42.14 104.16 67.23 104.16 67.23 104.46 68.16 105.81 67.73 105.51 66.8 107.75 66.09 107.75 66.09 108.44 65.88 109.98 65.39 110.28 66.32 111.63 65.89 99.63 27.99 94.16 10.69"/><polygon id="_Path_2" data-name="&lt;Path&gt;" class="cls-2" points="82.64 5.19 75.96 5.19 75.96 10.29 70.79 10.29 62.36 10.29 62.36 13.01 59.37 13.01 54.48 13.01 54.48 17.34 50.92 17.34 45.1 17.34 45.1 2.23 40.15 2.23 32.07 2.23 32.07 14.57 25.97 14.57 16.01 14.57 16.01 21.48 16.01 23.2 16.01 58.49 16.01 60.21 16.01 68.27 25.97 68.27 32.07 68.27 40.15 68.27 45.1 68.27 45.1 68.16 50.92 68.16 54.48 68.16 59.37 68.16 62.36 68.16 70.79 68.16 75.96 68.16 82.64 68.16 86.74 68.16 86.74 12.2 86.74 5.19 82.64 5.19"/><rect id="_Rectangle_" data-name="&lt;Rectangle&gt;" class="cls-3" x="9.31" y="12.35" width="16.06" height="53.69"/><rect id="_Rectangle_2" data-name="&lt;Rectangle&gt;" class="cls-4" x="19.27" y="12.35" width="6.1" height="53.69"/><rect id="_Rectangle_3" data-name="&lt;Rectangle&gt;" class="cls-5" x="9.31" y="19.26" width="16.06" height="1.72"/><rect id="_Rectangle_4" data-name="&lt;Rectangle&gt;" class="cls-5" x="9.31" y="56.27" width="16.06" height="1.72"/><rect id="_Rectangle_5" data-name="&lt;Rectangle&gt;" class="cls-6" x="47.79" y="10.78" width="7.88" height="55.15"/><rect id="_Rectangle_6" data-name="&lt;Rectangle&gt;" class="cls-7" x="52.67" y="10.78" width="2.99" height="55.15"/><rect id="_Rectangle_7" data-name="&lt;Rectangle&gt;" class="cls-8" x="25.38" width="13.03" height="66.04"/><rect id="_Rectangle_8" data-name="&lt;Rectangle&gt;" class="cls-9" x="33.46" width="4.95" height="66.04"/><rect id="_Rectangle_9" data-name="&lt;Rectangle&gt;" class="cls-10" x="88.7" y="8.28" width="7.52" height="56.92" transform="translate(-6.77 29.61) rotate(-17.56)"/><rect id="_Rectangle_10" data-name="&lt;Rectangle&gt;" class="cls-11" x="94.69" y="6.55" width="1.42" height="58.7" transform="translate(-6.38 30.45) rotate(-17.56)"/><rect id="_Rectangle_11" data-name="&lt;Rectangle&gt;" class="cls-11" x="88.87" y="8.39" width="1.42" height="58.7" transform="matrix(0.95, -0.3, 0.3, 0.95, -7.21, 28.8)"/><rect id="_Rectangle_12" data-name="&lt;Rectangle&gt;" class="cls-12" x="92.45" y="8.13" width="0.98" height="56.92" transform="translate(-6.71 29.76) rotate(-17.57)"/><rect id="_Rectangle_13" data-name="&lt;Rectangle&gt;" class="cls-11" x="38.41" y="15.11" width="9.38" height="50.82"/><rect id="_Rectangle_14" data-name="&lt;Rectangle&gt;" class="cls-13" x="44.22" y="15.11" width="3.56" height="50.82"/><rect id="_Rectangle_15" data-name="&lt;Rectangle&gt;" class="cls-14" x="55.66" y="8.07" width="13.6" height="57.87"/><rect id="_Rectangle_16" data-name="&lt;Rectangle&gt;" class="cls-15" x="64.1" y="8.07" width="5.17" height="57.87"/><rect id="_Rectangle_17" data-name="&lt;Rectangle&gt;" class="cls-16" x="69.26" y="2.96" width="10.78" height="62.97"/><rect id="_Rectangle_18" data-name="&lt;Rectangle&gt;" class="cls-17" x="75.95" y="2.96" width="4.1" height="62.97"/><path class="cls-18" d="M200,75.53H16.78A4.75,4.75,0,0,0,12,80.28h0A4.75,4.75,0,0,0,16.78,85H200a4.75,4.75,0,0,0,4.75-4.75h0A4.75,4.75,0,0,0,200,75.53Z"/><path class="cls-19" d="M4.6,66.34H197.35a4.6,4.6,0,0,1,4.6,4.59h0a4.6,4.6,0,0,1-4.6,4.6H4.6A4.6,4.6,0,0,1,0,70.93H0A4.6,4.6,0,0,1,4.6,66.34Z"/><rect class="cls-20" x="20.22" y="75.53" width="18.8" height="20.86"/><rect class="cls-20" x="162.93" y="75.53" width="18.79" height="20.86" transform="translate(344.66 171.92) rotate(180)"/><rect class="cls-21" x="20.22" y="75.53" width="18.8" height="6.4"/><rect class="cls-21" x="162.93" y="75.53" width="18.79" height="6.4"/></g></g></g></svg>