<?xml version="1.0" encoding="utf-8"?>
<!-- Generator: Adobe Illustrator 22.0.1, SVG Export Plug-In . SVG Version: 6.00 Build 0)  -->
<svg version="1.1" xmlns="http://www.w3.org/2000/svg" xmlns:xlink="http://www.w3.org/1999/xlink" x="0px" y="0px"
	 viewBox="0 0 562.9 449" style="enable-background:new 0 0 562.9 449;" xml:space="preserve">
<style type="text/css">
	.st0{fill:#444443;}
	.st1{fill:#8A8989;}
	.st2{fill:#6D6D6C;}
	.st3{fill:#F1F3EC;}
	.st4{fill:#535352;}
	.st5{filter:url(#Adobe_OpacityMaskFilter);}
	.st6{filter:url(#Adobe_OpacityMaskFilter_1_);}
	.st7{mask:url(#SVGID_1_);fill:url(#SVGID_2_);}
	.st8{fill:url(#SVGID_3_);}
	.st9{fill:#9C3A85;}
	.st10{font-family:'MarketPro';}
	.st11{font-size:60.2572px;}
	.st12{fill:#FF6200;}
	.st13{fill:#FFCC00;}
	.st14{fill:#612E0C;}
	.st15{fill:#944D22;}
	.st16{fill:#471D00;}
	.st17{fill:#B3661E;}
	.st18{fill:#7EC223;}
	.st19{fill:#A9D30F;}
	.st20{fill:#F72A3B;}
	.st21{fill:#B80000;}
	.st22{fill:#D60012;}
	.st23{fill:#FFECD4;}
	.st24{fill:#38D1D1;}
	.st25{fill:#FF9500;}
</style>
<g id="_x2014_ÎÓÈ_x5F_1">
</g>
<g id="text">
	<path class="st0" d="M546.7,55.9c-4-40.9-35.8-36.5-35.8-36.5H385.3H181.6H55.9c0,0-31.7-4.3-35.8,36.5l-0.4,8.9v320l0.4,8.9
		c4,40.9,35.8,36.5,35.8,36.5h125.7h203.7h125.7c0,0,31.7,4.3,35.8-36.5l0.4-8.9v-320L546.7,55.9z"/>
	<g>
		<path class="st1" d="M30.7,34.2c-5.1,5.3-9.2,13.6-10.5,26.5l-0.4,8.8V383l0.4,8.8c1.3,13.3,5.7,21.7,11,27L218,226.7L30.7,34.2z"
			/>
		<path class="st2" d="M31.1,418.8c10.6,10.7,24.8,8.8,24.8,8.8h125.7h203.7h125.7c0,0,13.8,1.8,24.3-8.4L218,226.7L31.1,418.8z"/>
		<path class="st1" d="M510.9,24.9H385.3H181.6H55.9c0,0-14.6-1.9-25.2,9.3L218,226.7l317.7-193C525.1,23,510.9,24.9,510.9,24.9z"/>
		<path class="st2" d="M535.3,419.2c5.5-5.3,10.1-13.8,11.4-27.4l0.4-8.8V69.4l-0.4-8.8c-1.3-13.3-5.7-21.6-11-26.9L218,226.7
			L535.3,419.2z"/>
	</g>
	<path class="st0" d="M530.4,74.3c-3.7-36.7-32.8-32.9-32.8-32.9H382.2H184.6H69.3c0,0-29.1-3.9-32.8,32.9l-0.4,8v287.7l0.4,8
		c3.7,36.7,32.8,32.9,32.8,32.9h115.3h197.6h115.3c0,0,29.1,3.9,32.8-32.9l0.4-8V82.3L530.4,74.3z"/>
	<path class="st3" d="M527.7,73.8c-3.6-36.2-32.3-32.4-32.3-32.4H381.7H185.1H71.5c0,0-28.7-3.8-32.3,32.4l-0.4,7.9v283.4l0.4,7.9
		c3.6,36.2,32.3,32.4,32.3,32.4h113.6h196.6h113.6c0,0,28.7,3.8,32.3-32.4l0.4-7.9V81.7L527.7,73.8z"/>
	<g>
		<path class="st4" d="M35.7,51.1c0,1.9-1.3,3.5-2.8,3.5c-1.6,0-2.8-1.5-2.8-3.5s1.3-3.5,2.8-3.5C34.4,47.7,35.7,49.2,35.7,51.1z"/>
		<path class="st4" d="M46.4,37c0,1.7-1.1,3.1-2.5,3.1c-1.4,0-2.5-1.4-2.5-3.1c0-1.7,1.1-3.1,2.5-3.1C45.2,33.9,46.4,35.3,46.4,37z"
			/>
		<path class="st4" d="M529.7,51.1c0,1.9,1.3,3.5,2.8,3.5c1.5,0,2.8-1.5,2.8-3.5s-1.3-3.5-2.8-3.5C531,47.7,529.7,49.2,529.7,51.1z"
			/>
		<path class="st4" d="M519.1,37c0,1.7,1.1,3.1,2.5,3.1c1.4,0,2.5-1.4,2.5-3.1c0-1.7-1.1-3.1-2.5-3.1
			C520.2,33.9,519.1,35.3,519.1,37z"/>
	</g>
	<g>
		<path class="st4" d="M35.7,400.7c0-1.9-1.3-3.5-2.8-3.5c-1.6,0-2.8,1.5-2.8,3.5c0,1.9,1.3,3.5,2.8,3.5
			C34.4,404.2,35.7,402.7,35.7,400.7z"/>
		<path class="st4" d="M46.4,414.9c0-1.7-1.1-3.1-2.5-3.1c-1.4,0-2.5,1.4-2.5,3.1c0,1.7,1.1,3.1,2.5,3.1
			C45.2,418,46.4,416.6,46.4,414.9z"/>
		<path class="st4" d="M529.7,400.7c0-1.9,1.3-3.5,2.8-3.5c1.5,0,2.8,1.5,2.8,3.5c0,1.9-1.3,3.5-2.8,3.5
			C531,404.2,529.7,402.7,529.7,400.7z"/>
		<path class="st4" d="M519.1,414.9c0-1.7,1.1-3.1,2.5-3.1c1.4,0,2.5,1.4,2.5,3.1c0,1.7-1.1,3.1-2.5,3.1
			C520.2,418,519.1,416.6,519.1,414.9z"/>
	</g>
	<defs>
		<filter id="Adobe_OpacityMaskFilter" filterUnits="userSpaceOnUse" x="23.4" y="27.6" width="394.2" height="281.2">
			<feFlood  style="flood-color:white;flood-opacity:1" result="back"/>
			<feBlend  in="SourceGraphic" in2="back" mode="normal"/>
		</filter>
	</defs>
	<mask maskUnits="userSpaceOnUse" x="23.4" y="27.6" width="394.2" height="281.2" id="SVGID_1_">
		<g class="st5">
			<defs>
				<filter id="Adobe_OpacityMaskFilter_1_" filterUnits="userSpaceOnUse" x="153.3" y="27.6" width="264.2" height="281.2">
					<feFlood  style="flood-color:white;flood-opacity:1" result="back"/>
					<feBlend  in="SourceGraphic" in2="back" mode="normal"/>
				</filter>
			</defs>
			<mask maskUnits="userSpaceOnUse" x="153.3" y="27.6" width="264.2" height="281.2" id="SVGID_1_">
				<g class="st6">
				</g>
			</mask>
			
				<radialGradient id="SVGID_2_" cx="-13.7033" cy="-113.4633" r="341.0263" gradientTransform="matrix(1.1474 0 0 1.4131 14.7413 -65.6005)" gradientUnits="userSpaceOnUse">
				<stop  offset="2.215490e-03" style="stop-color:#FFFFFF"/>
				<stop  offset="0.1645" style="stop-color:#FCFCFC"/>
				<stop  offset="0.2947" style="stop-color:#F2F2F2"/>
				<stop  offset="0.4138" style="stop-color:#E1E1E1"/>
				<stop  offset="0.5262" style="stop-color:#C9C9C9"/>
				<stop  offset="0.6342" style="stop-color:#AAAAAA"/>
				<stop  offset="0.7385" style="stop-color:#848484"/>
				<stop  offset="0.8402" style="stop-color:#585858"/>
				<stop  offset="0.9371" style="stop-color:#252525"/>
				<stop  offset="1" style="stop-color:#000000"/>
			</radialGradient>
			<path class="st7" d="M153.3,308.9l0.6-235.6c0,0-3.9-43.5,38.7-45.6h225l-6.2,9.7H196.5c0,0-33.1,2.1-33.7,35.2v221.1
				L153.3,308.9z"/>
		</g>
	</mask>
	
		<radialGradient id="SVGID_3_" cx="-193.0701" cy="-113.4633" r="430.0271" gradientTransform="matrix(1.1474 0 0 1.4131 14.7413 -65.6005)" gradientUnits="userSpaceOnUse">
		<stop  offset="2.215490e-03" style="stop-color:#FFFFFF"/>
		<stop  offset="0.9102" style="stop-color:#FFFFFF"/>
		<stop  offset="1" style="stop-color:#FFFFFF"/>
	</radialGradient>
	<path class="st8" d="M23.4,308.9l0.6-235.6c0,0-3.9-43.5,38.7-45.6h354.9l-6.2,9.7H66.6c0,0-33.1,2.1-33.7,35.2v221.1L23.4,308.9z"
		/>
	<text transform="matrix(1 0 0 1 60.4204 113.1299)" class="st9 st10 st11">Today’s Message</text>
	<g>
		<g>
			<g>
				<path class="st12" d="M471.3,303.1c-6.7,1.7-7.4,4.5-7.4,7.4c-10-0.9-12.7,3.6-13.8,7.1c-2.7-2.7-8.2-4.7-11.7-4.7v-13.2
					L471.3,303.1z"/>
				<path class="st12" d="M465.6,274.6l-27.4,25.1v-40.4c0,0,3.8,8.1,8.9,10.8c-6.4,11,8.1,10.8,9.6,3.7
					C458.3,275.2,461.1,276.1,465.6,274.6z"/>
				<path class="st12" d="M438.3,299.6v13.2c-3.5,0-9,2.1-11.7,4.7c-1.1-3.5-3.9-8-13.8-7.1c0-2.9-0.8-5.7-7.4-7.4L438.3,299.6z"/>
			</g>
			<g>
				<path class="st13" d="M471.3,303.1l-33-3.4l27.4-25.1c0.2-0.1,0.4-0.1,0.6-0.2c-2.4,3-2.7,7.7-0.5,9.9
					c-9.1-0.7-14.9,13.1-1.5,10.1C464.3,297.6,467.5,301.4,471.3,303.1z"/>
				<path class="st13" d="M438.3,259.2v40.4l-27.4-25.1c4.6,1.5,7.4,0.6,8.8-0.8c1.4,7.1,15.9,7.3,9.6-3.7
					C434.5,267.3,438.3,259.2,438.3,259.2z"/>
				<path class="st13" d="M438.3,299.6l-33,3.4c3.8-1.7,7-5.5,7-8.7c13.5,3,7.7-10.8-1.5-10.1c2.2-2.2,1.8-6.9-0.5-9.9
					c0.2,0.1,0.4,0.2,0.6,0.2L438.3,299.6z"/>
			</g>
			<g>
				<polygon class="st14" points="438.3,300.3 405.3,303.1 438.2,299 				"/>
				<polygon class="st14" points="437.8,300.1 410.9,274.6 438.7,299.1 				"/>
				<polygon class="st14" points="438.3,299 471.3,303.1 438.2,300.3 				"/>
				<polygon class="st14" points="437.8,299.1 465.6,274.6 438.7,300.1 				"/>
				<polygon class="st14" points="438.3,259.2 439.6,338.8 436.9,338.8 				"/>
			</g>
		</g>
		<g>
			<path class="st13" d="M409.2,325.8c-1.4-8.3-10.4,4.8-11.8-3.5c-0.6-3.2,12-6.9,9-14c-2.4-5.7-9.2,4.7-10.7,0.3
				c-1.8-5.1,12.3-8.7,6.5-15.7c-2.3-2.7-6.6,4.4-8.7,2.6c-2.2-1.9,2.8-8.6,0.7-11.5c-1.8-2.3-3.4-2.4-4.3-2.4c-0.8,0-2.5,0-4.3,2.4
				c-2.2,2.8,2.9,9.6,0.7,11.5c-2.1,1.8-6.4-5.4-8.7-2.6c-5.8,7.1,8.3,10.6,6.5,15.7c-1.6,4.4-8.3-6.1-10.7-0.3
				c-3,7.1,9.6,10.9,9,14c-1.5,8.3-10.4-4.7-11.8,3.5c-1.9,10.9,13,16.3,19.4,16.3C396.2,342.1,411.1,336.8,409.2,325.8z"/>
			<g>
				<g>
					<path class="st14" d="M385,330c2,1.3,3.7,2.8,5.4,4.4l-0.9,0c1.6-1.6,3.4-3.2,5.4-4.4c-1.3,2-2.8,3.7-4.4,5.4l-0.5,0.5
						l-0.5-0.5C387.8,333.8,386.2,332,385,330z"/>
					<path class="st14" d="M385,315c2,1.3,3.7,2.8,5.4,4.4h-0.9c1.6-1.6,3.4-3.2,5.4-4.4c-1.3,2-2.8,3.7-4.4,5.4l-0.5,0.5l-0.5-0.5
						C387.8,318.7,386.2,317,385,315z"/>
					<path class="st14" d="M385,300c2,1.3,3.7,2.8,5.4,4.4l-0.9,0c1.6-1.6,3.4-3.2,5.4-4.4c-1.3,2-2.8,3.7-4.4,5.4l-0.5,0.5
						l-0.5-0.5C387.8,303.7,386.2,302,385,300z"/>
				</g>
				<polygon class="st14" points="389.9,287 391.2,357.1 388.5,357.1 				"/>
			</g>
		</g>
		<g>
			<g>
				<path class="st15" d="M443.4,380.7c-1.3,6.4-4,10.8-7.9,11.7c-2.1,0.5-5,0.2-7.9-2.2c-22.1-25.5-19-50.5-20.3-50.5
					c-1.3-13,3.2-22.4,8.9-23.8c3.6-0.9,7.6,1.2,11.5,5.4c5.5,6,10.7,16.5,13.8,28.9C444.5,361.9,445,372.8,443.4,380.7z"/>
				<path class="st16" d="M437.5,379.8c-1,5.8-3.2,9.7-6.3,10.5c-1.7,0.5-4,0.2-6.3-2c-17.8-22.9-15.3-45.4-16.3-45.4
					c-1-11.7,2.5-20.1,7.2-21.4c2.9-0.8,6.1,1.1,9.2,4.9c4.4,5.4,8.6,14.8,11.1,26C438.4,362.9,438.8,372.7,437.5,379.8z"/>
				<path class="st17" d="M459.9,366.8c-0.7,8.7-4,14.8-9.1,15.8c-2,0.4-4.5,0.1-7.4-1.9c1.6-7.9,1.1-18.8-1.8-30.5
					c-3.1-12.4-8.3-22.8-13.8-28.9c1.5-2.5,4-4,6.2-4.4c3.8-0.7,7.9,1.5,11.8,5.7c5,5.4,9.5,14.1,12.1,24.3
					C459.8,354.2,460.4,361,459.9,366.8z"/>
				<path class="st15" d="M466.7,368.8c-1.8,0.3-4.3,0.1-6.9-2c0.5-5.8-0.1-12.7-2-19.9c-2.6-10.2-7.1-18.9-12.1-24.3
					c1.1-5.1,4.5-7.5,7.4-8c3.3-0.6,7,1.6,10.4,5.5v0c3.8,4.5,7.2,11.4,9.2,19.4c1,3.8,1.5,7.5,1.6,10.9
					C474.8,360.3,472,367.9,466.7,368.8z"/>
				<path class="st17" d="M481.6,353.1c-1.9,0.4-4.3-0.2-7.2-2.7c-0.2-3.4-0.7-7.1-1.6-10.9c-2-8-5.4-14.8-9.2-19.4v0
					c0-6,2.7-8.9,5.7-9.5c2.3-0.4,4.9,0.7,7.3,3c3.6,3.4,7,9.3,9.1,16.2c0.4,1.4,0.7,2.8,1,4.2C488.5,344,486.5,352.1,481.6,353.1z"
					/>
				<path class="st15" d="M492.8,335.8c-1.4,0.4-3.9,0.2-6.2-1.8c-0.3-1.4-0.6-2.8-1-4.2c-2-7-5.5-12.8-9.1-16.2
					c-0.5-4.6,1.6-7.4,3.9-8c1.9-0.5,4.3,0.5,6.6,2.5c2.7,2.3,5.3,6.1,7.1,10.5c0.6,1.4,1.1,2.9,1.4,4.3
					C497.2,329.5,496.2,334.9,492.8,335.8z"/>
				<path class="st17" d="M500.9,324.9c-1.6,0.5-3.5-0.3-5.4-1.9c-0.4-1.4-0.8-2.8-1.4-4.3c-1.8-4.5-4.4-8.2-7.1-10.5
					c-0.6-4.4,1.2-7.2,3.3-7.8c1.6-0.5,3.6,0.4,5.6,2.1c2.2,1.9,4.3,4.8,5.8,8.4c0.1,0.2,0.2,0.4,0.2,0.6
					C504.7,317.9,504.3,323.9,500.9,324.9z"/>
				<path class="st15" d="M505.8,311.8c-1,0.6-2.4,0.4-3.8-0.4c-0.1-0.2-0.2-0.4-0.2-0.6c-1.5-3.5-3.7-6.5-5.8-8.4
					c-0.4-2.2,0-4.1,1.2-4.8c2.1-1.2,5.6,0.9,8,4.8C507.6,306.4,507.8,310.6,505.8,311.8z"/>
			</g>
			<g>
				<g>
					<path class="st18" d="M398.8,334.5c-0.5-0.2-0.9-0.2-1.3-0.2c-2.8-5.9-1.9-14.3-1.9-14.3l5.2,1.2
						C400.8,321.1,398.1,326.5,398.8,334.5z"/>
					<g>
						<path class="st13" d="M393.6,380c-1,1.2-2.1,1.9-3.3,1.9c-1.4,0-3.2-0.9-5.1-2.4c-4.7-3.9-9.8-12-9.8-21.4
							c0-8.9,4.6-16.2,9.1-19.9c2.1-1.7,4.2-2.7,5.8-2.7c1,0,2,0.4,2.8,1.2c-3.7,3.8-7,12-7,21.4C386.2,367.9,389.7,376.3,393.6,380
							z"/>
						<path class="st12" d="M385.2,379.4c-1.1,1.5-2.3,2.4-3.8,2.4c-4.9,0-16.1-10.1-16.1-22.6c0-12.5,11.1-22.6,16.1-22.6
							c1.1,0,2.2,0.5,3.1,1.5c-4.5,3.7-9.1,11-9.1,19.9C375.4,367.4,380.5,375.6,385.2,379.4z"/>
						<path class="st12" d="M408.8,358c0,9.9-3.6,18.3-7.5,21.9c-1.3,1.2-2.6,1.9-3.9,1.9c-1.2,0-2.6-0.7-3.9-1.9
							c-3.9-3.6-7.5-12.1-7.5-21.9c0-9.4,3.3-17.6,7-21.4c1.4-1.5,3-2.4,4.3-2.4c0.4,0,0.9,0.1,1.3,0.2c1,0.3,2,1.1,3,2.1
							C405.5,340.4,408.8,348.6,408.8,358z"/>
						<path class="st13" d="M419.5,358c0,9.4-5.1,17.5-9.8,21.4c-1.9,1.5-3.7,2.4-5.1,2.4c-1.2,0-2.3-0.7-3.3-1.9
							c3.9-3.6,7.5-12.1,7.5-21.9c0-9.4-3.3-17.6-7-21.4c0.8-0.8,1.8-1.2,2.8-1.2c1.6,0,3.7,1,5.8,2.7
							C414.9,341.8,419.5,349.1,419.5,358z"/>
						<path class="st12" d="M429.5,359.2c0,12.5-11.1,22.6-16.1,22.6c-1.4,0-2.7-0.9-3.8-2.4c4.7-3.9,9.8-12,9.8-21.4
							c0-8.9-4.6-16.2-9.1-19.9c0.9-1,1.9-1.5,3.1-1.5C418.4,336.6,429.5,346.7,429.5,359.2z"/>
					</g>
					<path class="st18" d="M397.5,332.2c-0.5,0.2-1.1,0.5-1.5,0.6c-0.3,0.1-0.7,0.2-1.2,0.3c-0.9,0.2-2,0.3-3.3,0.1
						c-2.5-0.4-4.3-1.5-5.9-3.4c-0.6-0.7-1.1-1.5-1.5-2.3c-0.9-1.7-1.3-4-0.8-5.9c0.3-1.1,1.1-2.3,2.3-2.8c1.2-0.5,2.5-0.2,3.4,0
						c4.1,1.1,5.8,4.6,4.3,8c-0.4,1.1-1.2,1.9-2,2.6c-0.4,0.3-0.8,0.7-1.3,1c-1.3,0.8-0.6,0.4-1.4,0.8c-0.5,0.2-0.9,0.4-1.4,0.6
						c-0.5,0.1-1,0.3-1.5,0.4c-2,0.4-3.9,0-5.7-0.5c-5.2-1.6-8.3-7.7-8.3-12.1c0-0.1,0.5-0.8,0.7,0.5c0.2,1.9,1.9,6.4,4,8.2
						c2.3,2.2,6.5,3.4,9,2.9c0.4-0.1,0.8-0.3,1.3-0.4c0.4-0.1,0.9-0.4,1.3-0.6c0.7-0.4,0.1,0,1.2-0.7c0.4-0.2,0.7-0.6,1.1-0.9
						c1.4-1.3,2.2-3.1,1.8-4.8c-0.7-3.1-4.8-3.8-6.1-3.3c-3,1.2-1.1,10.1,5.5,11.8c2.5,0.4,4.7-0.5,5.8-1.1
						C397.5,331.1,397.6,332.2,397.5,332.2z"/>
				</g>
				<g>
					<polygon class="st15" points="372.9,397.2 370,393.1 367,397.2 369,396.6 370,398.2 371,396.6 					"/>
					<path class="st16" d="M369.9,357.4c0,0-1.2-9.5-1.1-13.9h2.4c-0.3,3.6-1.1,13.9-1.1,13.9C370,357.5,369.9,357.5,369.9,357.4z"
						/>
					<path class="st18" d="M378.9,346.3c0,0-1.4,2.6-3.9,3.3c-2.5,0.7-5.1-0.6-5.1-0.6s1.4-2.6,3.9-3.3
						C376.3,345,378.9,346.3,378.9,346.3z"/>
					<path class="st19" d="M377.9,364.4c0-8.8-6.6-10.3-8-10.3c-1.7,0-8,1.5-8,10.3c0,6.9-9.7,13.6-4.7,23.4
						c3.6,6.8,9.6,7.5,12.6,7.5c2.9,0,9.1-0.6,12.6-7.5C387.7,378,377.9,371.3,377.9,364.4z"/>
				</g>
				<g>
					<polygon class="st16" points="425.4,391.2 423.3,388.3 421.2,391.2 422.6,390.8 423.3,391.9 424,390.8 					"/>
					<path class="st16" d="M423.2,370.6c0,0-1.2-9.2-1.1-13.5h2.3c-0.3,3.5-1.1,13.5-1.1,13.5C423.3,370.6,423.2,370.6,423.2,370.6z
						"/>
					<path class="st20" d="M438.2,367.6c-0.3-0.4-0.5-0.8-0.9-1.1c-1.9-1.9-9.5-5.3-14,1.8c-3.2-4.9-7.7-4.8-10.9-3.7
						c-1.4,0.5-2.6,1.3-3.2,1.9c-6,6,0.4,21.8,7.8,24.5c1.9,0.7,6.2-2,6.2-2s4.4,2.6,6.2,2c0.4-0.2,0.8-0.4,1.2-0.6
						c2-1.1,3.9-3.2,5.4-5.7c0.6-1.4,1-3.1,1.4-5C438.2,376.3,438.4,372.2,438.2,367.6z"/>
					<path class="st18" d="M432,358.9c0,0-1.4,2.5-3.8,3.2c-2.4,0.7-5-0.6-5-0.6s1.4-2.5,3.8-3.2C429.5,357.6,432,358.9,432,358.9z"
						/>
				</g>
				<g>
					<g>
						<path class="st18" d="M379.1,383.8c0,0.4,0.1,0.8,0.2,1.2l-12.3-4c0,0,7.1-1.7,11.1-0.3c0.6,0.2,1.2,0.5,1.7,0.8
							C379.4,382.1,379.1,382.9,379.1,383.8z"/>
						<path class="st18" d="M379.5,385.5c-0.9,0.6-1.6,1.6-1.9,2.7c-0.6,0-1.2-0.2-1.8-0.4c-4.1-1.3-8.8-6.9-8.8-6.9l12.3,4
							C379.4,385.1,379.4,385.3,379.5,385.5z"/>
					</g>
					<g>
						<path class="st19" d="M401.4,378.1l-11.4,5.3c-0.4-0.1-0.9-0.2-1.3-0.2c-0.5,0-0.9,0.1-1.4,0.2c-0.1-0.7-0.3-1.4-0.7-2
							c0.7-0.8,1.7-1.5,2.8-2C393.6,377.4,401.4,378.1,401.4,378.1z"/>
						<path class="st18" d="M401.4,378.1c0,0-4.3,6.2-8.5,8.2c-0.4-1.4-1.5-2.5-2.8-3L401.4,378.1z"/>
					</g>
					<g>
						<g>
							<path class="st20" d="M386.2,389.1c0,0.6-0.1,1.1-0.3,1.6c-0.2,0.6-0.6,1.1-1,1.5c-0.8,0.8-1.9,1.2-3,1.2
								c-2.4,0-4.3-1.9-4.3-4.3c0-0.3,0-0.6,0.1-0.9c0.3-1.1,0.9-2.1,1.9-2.7c0.7-0.4,1.5-0.7,2.4-0.7c1.1,0,2.1,0.4,2.8,1
								C385.6,386.6,386.2,387.8,386.2,389.1z"/>
							<path class="st16" d="M379.5,388.6c0.3,0.3,0.9,0.1,1.3-0.4c0.4-0.5,0.4-1.1,0.1-1.4c-0.3-0.3-0.9-0.1-1.3,0.4
								C379.2,387.7,379.2,388.3,379.5,388.6z"/>
						</g>
						<g>
							<path class="st21" d="M387.3,383.4c-1.2,0.4-2.1,1.3-2.6,2.4c-0.8-0.7-1.7-1-2.8-1c-0.9,0-1.7,0.3-2.4,0.7
								c-0.1-0.2-0.1-0.3-0.2-0.5c-0.1-0.4-0.2-0.8-0.2-1.2c0-0.9,0.3-1.7,0.7-2.3c0.7-1.1,2-1.8,3.4-1.8c1.4,0,2.6,0.7,3.4,1.8
								C387,382,387.3,382.7,387.3,383.4z"/>
							<path class="st16" d="M380.8,383.5c0.3,0.2,0.8,0,1.1-0.4c0.3-0.4,0.3-0.9,0-1.2c-0.3-0.2-0.8,0-1.1,0.4
								C380.5,382.8,380.5,383.3,380.8,383.5z"/>
						</g>
						<g>
							<path class="st22" d="M393,387.5c0,0.8-0.2,1.6-0.7,2.3c-0.7,1.1-1.8,1.8-3.2,2c-0.2,0-0.3,0-0.5,0c-1.1,0-2-0.4-2.8-1
								c0.2-0.5,0.3-1.1,0.3-1.6c0-1.3-0.6-2.5-1.5-3.3c0.5-1.1,1.4-2,2.6-2.4c0.4-0.1,0.9-0.2,1.4-0.2c0.5,0,0.9,0.1,1.3,0.2
								c1.4,0.4,2.5,1.6,2.8,3C392.9,386.7,393,387.1,393,387.5z"/>
							<path class="st16" d="M390.7,386.2c-0.3,0.2-0.8,0.1-1.1-0.3c-0.4-0.4-0.4-0.9-0.2-1.1c0.3-0.2,0.8-0.1,1.1,0.3
								C390.8,385.5,390.9,386,390.7,386.2z"/>
						</g>
					</g>
				</g>
				<g>
					<g>
						<path class="st18" d="M420.5,373.6l0-0.5l-1.1,0l0,0.5c0,0.1,0,1.9-1,4.1l-1.4-2.5l-0.9,0.5l1.8,3.1c-0.3,0.6-0.8,1.2-1.3,1.8
							c-0.4-1.6-1.3-2.1-1.4-2.1l-0.5,1c0,0,0.8,0.5,0.9,2.1c-1,0.9-2.2,1.8-3.8,2.7l-0.5,0.2l0.5,1l0.5-0.3
							C420.7,381,420.6,373.9,420.5,373.6z"/>
						<path class="st18" d="M426,391.5l1-0.4c-0.5-1.2-1.7-2.8-2.5-3.8c2,0.1,3.8,0.4,4.7,1.4l0.4,0.4l0.8-0.8l-0.4-0.4
							c-1.7-1.8-5.3-1.9-8.6-1.6l1.8-2.1l-0.8-0.7l-2.5,3c-3.1,0.4-5.7,1.2-6,1.3l-0.5,0.2l0.3,1l0.5-0.2c0.6-0.2,1.4-0.4,2.3-0.6
							c0.9,0.6,2.9,2.1,3.3,3l1-0.4c-0.4-1-1.8-2.2-2.9-2.9c1.6-0.3,3.5-0.6,5.2-0.6C423.6,387.9,425.3,390.1,426,391.5z"/>
						<path class="st18" d="M427.3,380c-1.4,0.3-3.5,0.5-4.7,0.5c0.7-0.8,1.3-1.6,1.8-2.6c1-0.1,2.8-0.7,4.2-1.4l-0.4-1
							c-1.1,0.5-2.3,0.9-3.2,1.2c0.6-1.3,1-2.6,1.2-4.2l0.1-0.5l-1.1-0.1l-0.1,0.5c-1.2,9.4-12.1,13.3-12.2,13.3l-0.5,0.2l0.4,1
							l0.5-0.2c0.3-0.1,4.7-1.7,8.3-5.3c1.6,0.3,5.1-0.4,5.9-0.5L427.3,380z"/>
					</g>
					<g>
						<path class="st12" d="M411.4,397.7c1.9-2.2,4.4-5.2,2.1-10.5c-2.3-5.3-6.2-5.6-9.1-5.6c-8.4-0.2-28.7,22.1-28.7,22.1
							S405.8,404,411.4,397.7z"/>
						<g>
							<path class="st13" d="M398.7,391.9l-2.9-6.7c-0.3,0.2-0.5,0.4-0.8,0.6l2.8,6.5L398.7,391.9z"/>
							<path class="st13" d="M404.8,392.9l3,6.9c0.3-0.1,0.6-0.3,0.9-0.4l-3-6.9L404.8,392.9z"/>
							
								<rect x="394.6" y="394.4" transform="matrix(0.9169 -0.3991 0.3991 0.9169 -125.9029 190.7245)" class="st13" width="1" height="6.7"/>
							
								<rect x="385.9" y="395.2" transform="matrix(0.9169 -0.3991 0.3991 0.9169 -126.8847 187.3239)" class="st13" width="1" height="6.3"/>
						</g>
					</g>
				</g>
			</g>
		</g>
		<g>
			<g>
				<path class="st23" d="M349.6,371.5h-1.7c0-2.9,0.3-5.6,0.9-8c0-0.8,0-2,0-2.9H338c-0.2,16.7-3.7,16.3-3.4,23.8
					c0.3,7.1,6,9,8.8,9c2.8,0,8.5-1.9,8.8-9C352.5,379,350.7,377.9,349.6,371.5z"/>
				<path class="st15" d="M364.7,352c-1-0.3-2.2-0.5-3.4-0.5c-5.5,0-9.4,3.6-11.5,9.1h-27.3c0-12.6,8.3-23.8,20.9-23.8
					C353.1,336.7,361.3,343.3,364.7,352z"/>
			</g>
			<g>
				<path class="st23" d="M364.4,371.5h-6.2c-0.8,3.8-2.1,11.1-1.9,15.1c0.2,5.3,3.2,6.8,5,6.8c1.9,0,4.8-1.4,5-6.8
					C366.5,382.6,365.2,375.4,364.4,371.5z"/>
				<path class="st16" d="M374.7,371.5h-26.8c0-2.9,0.3-5.6,0.9-8c0.3-1,0.6-2,0.9-2.9c2.1-5.5,6-9.1,11.5-9.1
					c1.2,0,2.3,0.2,3.4,0.5C371.2,354,374.7,361.9,374.7,371.5z"/>
			</g>
		</g>
		<g>
			<rect x="257.1" y="335.2" class="st13" width="29.7" height="6.2"/>
			<rect x="257.1" y="341.4" class="st20" width="29.7" height="2.1"/>
			<path class="st24" d="M292.5,357.2l-1.7-0.9l-6.3,3.1l-6.3-3.1l-6.3,3.1l-6.3-3.1l-6.3,3.1l-6.3-3.1l-1.7,0.9
				c-2.8,17.9,6.9,36.1,6.9,36.1h27.3C285.7,393.3,295.3,375.1,292.5,357.2z"/>
			<rect x="258.8" y="366.3" class="st23" width="26.4" height="14.1"/>
			<polygon class="st13" points="297,359.4 292.5,357.2 290.8,356.4 284.5,359.4 278.3,356.4 272,359.4 265.7,356.4 259.5,359.4 
				253.2,356.4 251.5,357.2 247,359.4 257.1,343.6 286.9,343.6 			"/>
			<rect x="263.5" y="371.8" class="st25" width="17" height="3"/>
		</g>
		<g>
			<polygon class="st14" points="304.6,392.6 302.4,389.6 300.3,392.6 301.7,392.1 302.4,393.3 303.2,392.1 			"/>
			<path class="st15" d="M302.4,371.4c0,0-1.2-9.5-1.1-13.9h2.4c-0.3,3.6-1.1,13.9-1.1,13.9C302.5,371.4,302.4,371.4,302.4,371.4z"
				/>
			<path class="st22" d="M316.9,367.2c-2-2-9.7-5.4-14.4,1.8c-4.7-7.3-12.4-3.8-14.4-1.8c-6.1,6.1,0.4,22.4,8,25.2
				c1.9,0.7,6.4-2,6.4-2s4.5,2.7,6.4,2C316.4,389.5,323,373.3,316.9,367.2z"/>
			<path class="st23" d="M296.9,389.2c-3.1-1.4-6.6-6.6-7.7-11.8c-0.8-3.5-0.4-6.5,1.1-7.9c0.6-0.6,2.5-1.6,4.6-1.6
				c2,0,3.5,1,4.8,2.9l2.7,4.2l2.7-4.2c1.3-2,2.9-2.9,4.8-2.9c2.1,0,4,1.1,4.6,1.6c1.4,1.4,1.9,4.4,1.1,7.9
				c-1.1,5.2-4.6,10.4-7.7,11.8c-0.7-0.1-2.5-0.9-3.8-1.6l-1.7-1l-1.7,1C299.5,388.4,297.7,389.1,296.9,389.2z"/>
			<path class="st18" d="M311.4,359.4c0,0-1.4,2.6-3.9,3.3c-2.5,0.7-5.1-0.6-5.1-0.6s1.4-2.6,3.9-3.3
				C308.8,358,311.4,359.4,311.4,359.4z"/>
			<g>
				<path class="st16" d="M310.9,377c-1.1,1.1-5.5,2.2-5.5,2.2s1.1-4.4,2.2-5.5c1.1-1.1,2.8-1.3,3.7-0.4
					C312.2,374.2,312,375.9,310.9,377z"/>
				<path class="st16" d="M294,377c1.1,1.1,5.5,2.2,5.5,2.2s-1.1-4.4-2.2-5.5c-1.1-1.1-2.8-1.3-3.7-0.4
					C292.7,374.2,292.9,375.9,294,377z"/>
			</g>
		</g>
		<g>
			<path class="st12" d="M370.5,315.9v35.6C391,315.6,370.5,315.9,370.5,315.9z"/>
			<path class="st13" d="M370.5,351.5v-35.6C370.5,315.9,350,315.6,370.5,351.5z"/>
		</g>
	</g>
</g>
</svg>
