<svg xmlns="http://www.w3.org/2000/svg" viewBox="0 0 187.67 223.29"><defs><style>.cls-1{isolation:isolate;}.cls-2{fill:#79859d;opacity:0.5;mix-blend-mode:multiply;}.cls-3{fill:#eb2c3b;}.cls-4{fill:#0b18b5;}.cls-5{fill:#3cf;}.cls-6{fill:#ffcd92;}.cls-7{opacity:0.82;}.cls-12,.cls-8{fill:#fff;}.cls-8{opacity:0.38;}.cls-9{fill:#ffb624;}.cls-10{fill:#7ec42d;}.cls-11{fill:#68a01f;}.cls-12{opacity:0.35;}.cls-13{fill:#ffce00;}.cls-14{fill:#ce192f;}.cls-15{fill:#ffa300;}.cls-16{fill:#f49600;}.cls-17{fill:#001477;}.cls-18{fill:#17a6cc;}</style></defs><title>toyswl</title><g class="cls-1"><g id="Layer_2" data-name="Layer 2"><g id="text"><path class="cls-2" d="M128.3,223.29c-7.1,0-28.42-.16-28.42-.16-3,0-4-2.19-2.12-4.85l6.45-10.06a12.08,12.08,0,0,1,8.8-4.79l28.42.16c3,0,3.92,2.16,2.12,4.85-1.66,2.49-4.82,7.56-6.45,10.06C134.37,222.72,133.39,223.3,128.3,223.29Z"/><path class="cls-2" d="M77.93,223.29c-7.1,0-28.42-.16-28.42-.16-3,0-4-2.19-2.12-4.85l6.45-10.06a12.08,12.08,0,0,1,8.8-4.79l28.42.16c3,0,3.92,2.16,2.12,4.85-1.66,2.49-4.82,7.56-6.45,10.06C84,222.72,83,223.3,77.93,223.29Z"/><path class="cls-3" d="M91.07,183.7a5.14,5.14,0,0,0-5.14-5.14l-20.09.08A18,18,0,0,0,58.61,180c-2.34,1-9.13,3.9-9.13,3.9l5.84,8.26v14.7A5.14,5.14,0,0,0,60.46,212h15l6.82,6.74s4.21-5.83,5.32-7.86c1.3-2.38,3.07-4,3.07-8.2C90.64,197.36,91.07,183.7,91.07,183.7Z"/><path class="cls-4" d="M89.16,179.71a5.07,5.07,0,0,0-3.23-1.15l-20.09.08A18,18,0,0,0,58.61,180c-2.34,1-9.13,3.9-9.13,3.9l5.84,8.26v14.7a5.14,5.14,0,0,0,1.43,3.55l18-19.29Z"/><rect class="cls-5" x="46.61" y="183.32" width="37.02" height="37.02" rx="5.14" ry="5.14"/><rect class="cls-6" x="49.87" y="186.58" width="30.5" height="30.5" rx="4.23" ry="4.23"/><path class="cls-4" d="M78.74,211.06c-2.55-9.19-9.86-18-11.81-19.4a5.52,5.52,0,0,0-3.1-1.27A4,4,0,0,0,61,191.52c-1.86,1.75-9.3,17.34-9.52,19.89a1.37,1.37,0,0,0,1.13,1.48,15.68,15.68,0,0,0,3.83.36c4.11,0,4.43-.48,4.59-1.92.07-.58.28-2.8,1.51-3.37,3.49-1.6,3.16,4.11,3.48,4.41a2.54,2.54,0,0,0,1.28.59,35.14,35.14,0,0,0,5.4.3,15,15,0,0,0,4.63-.51C78.27,212.4,79,211.81,78.74,211.06Zm-12.58-6.68c-1.37.58-3.61.78-4.52-.25-1.11-1.25.53-4.29,1.44-4.9C65.88,197.38,68.22,203.51,66.16,204.38Z"/><g class="cls-7"><path class="cls-8" d="M54.53,217.07h7.23l14.95-30.45a3.56,3.56,0,0,0-.57,0H70.92Z"/><path class="cls-8" d="M67.15,186.58H63.34l-13.47,25.6v.66a4.23,4.23,0,0,0,2.49,3.85Z"/></g><path class="cls-4" d="M141.28,183.7a5.14,5.14,0,0,0-5.14-5.14l-20.09.08a18.11,18.11,0,0,0-7.24,1.31c-2.33,1-9.12,3.9-9.12,3.9l5.84,8.26v14.7a5.14,5.14,0,0,0,5.14,5.14h15l6.83,6.74s4.21-5.83,5.32-7.86c1.29-2.38,3.07-4,3.07-8.2C140.85,197.36,141.28,183.7,141.28,183.7Z"/><path class="cls-5" d="M139.37,179.71a5.09,5.09,0,0,0-3.23-1.15l-20.09.08a18.11,18.11,0,0,0-7.24,1.31c-2.33,1-9.12,3.9-9.12,3.9l5.84,8.26v14.7a5.13,5.13,0,0,0,1.42,3.55L125,191.07Z"/><rect class="cls-3" x="96.82" y="183.32" width="37.02" height="37.02" rx="5.14" ry="5.14"/><rect class="cls-6" x="100.08" y="186.58" width="30.5" height="30.5" rx="4.23" ry="4.23"/><path class="cls-3" d="M106.31,208.45a11.92,11.92,0,0,1-2.1-6.77,11.51,11.51,0,0,1,1.75-5.82c4.07-7,16.27-7,19.4-1.45.8,1.44.75,2.49.15,3.32-.9,1.25-6.59,1.46-6.73-.82-.08-1.24-4.1-2.34-5.11,2.26-.85,3.84,1.18,8.84,7.58,5.49,1.36-.71,2.81-2.31,4.3-1.14a3,3,0,0,1,.56,3.55C122.17,215,111,215.15,106.31,208.45Z"/><g class="cls-7"><path class="cls-8" d="M104.74,217.07H112l15-30.45a3.64,3.64,0,0,0-.57,0h-5.22Z"/><path class="cls-8" d="M117.36,186.58h-3.81l-13.47,25.6v.66a4.21,4.21,0,0,0,2.49,3.85Z"/></g><path class="cls-4" d="M126,160.31a5.14,5.14,0,0,0-1.73-7.06L107,142.88a18.08,18.08,0,0,0-6.86-2.64c-2.51-.37-9.82-1.4-9.82-1.4l.7,10.09L83.4,161.49a5.14,5.14,0,0,0,1.73,7.06l12.78,7.77,2.34,9.31s6.62-2.8,8.62-3.95c2.35-1.36,4.69-1.81,6.88-5.41C118.49,171.76,126,160.31,126,160.31Z"/><path class="cls-9" d="M126.4,155.91a5.11,5.11,0,0,0-2.17-2.66L107,142.88a18.08,18.08,0,0,0-6.86-2.64c-2.51-.37-9.82-1.4-9.82-1.4l.7,10.09L83.4,161.49a5.16,5.16,0,0,0-.62,3.77l25.44-7.1Z"/><rect class="cls-10" x="75.86" y="143.81" width="37.02" height="37.02" rx="5.14" ry="5.14" transform="translate(-93.36 158.64) rotate(-58.71)"/><rect class="cls-6" x="79.12" y="147.07" width="30.5" height="30.5" rx="4.23" ry="4.23" transform="translate(-93.36 158.64) rotate(-58.71)"/><path class="cls-11" d="M102.44,168.88a5.77,5.77,0,0,0-1-2.57c-.27-.36-.34-.65-.21-.86a1.14,1.14,0,0,1,.84-.38,4.07,4.07,0,0,0,1.8-.72,4.38,4.38,0,0,0,1.42-1.49c3.77-7.18-11.46-15.58-14.79-12.74-2,1.7-9,14.71-9.18,14.95s-.42.85-.12,1.21c3.39,4.08,16.18,13.12,20.59,5.72A4.56,4.56,0,0,0,102.44,168.88Zm-7.21-14.14c1.38.69,3.42,3,1.77,4.51-.93.87-3,.1-4.11-.66C90.8,157.14,93,153.59,95.23,154.74Zm-1.61,12.92c-1,1.34-3.53.33-5-.8a2.59,2.59,0,0,1-.78-3.36A2.86,2.86,0,0,1,91.56,162C93.32,162.63,95.15,165.7,93.62,167.66Z"/><g class="cls-7"><path class="cls-12" d="M77.4,169.85l6.17,3.75,28.6-18.25a5.66,5.66,0,0,0-.47-.34l-4.46-2.71Z"/><path class="cls-12" d="M104,150.35l-3.25-2L76,163.25l-.34.56a4.23,4.23,0,0,0,.12,4.59Z"/></g><path class="cls-2" d="M187.64,127.14c0,2.13-21.85,3.86-48.81,3.86S90,129.27,90,127.14s21.85-3.85,48.8-3.85S187.64,125,187.64,127.14Z"/><path class="cls-13" d="M90.34,91.5c3.25,1.61,6.34,4.79,4.56,8.37-1.6,3.23-6.17,3-9.42,1.43a9.53,9.53,0,0,1,.72-5.75C87.92,92.08,90.34,91.5,90.34,91.5Z"/><path class="cls-3" d="M85.48,101.3a11.44,11.44,0,0,0,1.69.67,9.54,9.54,0,0,1,.75-5.57,7.48,7.48,0,0,1,4-4,13.62,13.62,0,0,0-1.55-.91s-2.42.58-4.14,4A9.53,9.53,0,0,0,85.48,101.3Z"/><path class="cls-3" d="M152.45,67.45c-32.67,1-24.11,17.49-48.71,22.69-8.28,1.74-14.58,8.32-14.61,15.25v.32a13,13,0,0,0,12.92,13.1l16.51.08,10.58,0,16,.07,10.58,0,16.51.08a13,13,0,0,0,13-12.92h0C185.27,99.07,188.61,66.29,152.45,67.45Z"/><path class="cls-14" d="M170.29,70.6c4.49,9.32,2.82,19.84,2.8,23.62l.23,1c-1.69,11.15-5.4,12.46-12.54,12.43,0,0-11.67.43-25.39.71-4.42.1-17.67-.9-17.67-.9l-10.58,0-16.51-.07a13.36,13.36,0,0,1-1.42-.09,13,13,0,0,0,12.84,11.61l16.51.08,10.58,0,16,.07,10.58,0,16.51.08a13,13,0,0,0,13-12.92h0C185.26,100.55,187.36,78.83,170.29,70.6Z"/><path class="cls-5" d="M120.72,90.3c1.73-4.46,9.08-11,12.59-12.8,6.42-3.19,17.06-5.58,20-2.8,3.83,3.64,3.6,16.34-.09,20.13C149.36,98.79,117.53,98.57,120.72,90.3Z"/><path class="cls-5" d="M163.87,73.86c-2.84.33-4,4.16-4.08,8.51-.08,4-1.5,11.84,1.93,13.34,4.85,2.1,15.67.22,16.66-3.67C179.82,86.38,172.45,72.85,163.87,73.86Z"/><path class="cls-8" d="M136.84,97.29a64.43,64.43,0,0,0,8.82-.29l4.57-23.44a26.09,26.09,0,0,0-8.71,1Z"/><path class="cls-8" d="M131.26,96.84c1.24.16,2.52.28,3.83.36L139.72,75c-1.17.35-2.32.75-3.42,1.17Z"/><path class="cls-8" d="M168.8,74.88l-4.32,21.56a22.31,22.31,0,0,0,8.91-.83l2.52-13.31A18.59,18.59,0,0,0,168.8,74.88Z"/><path class="cls-8" d="M167.36,74.23a8.28,8.28,0,0,0-3-.41L159.79,93a3.73,3.73,0,0,0,1.93,2.75,8.73,8.73,0,0,0,1.19.4Z"/><path class="cls-15" d="M182.85,119.13s-36.25,1-48.84.71c-10.87-.25-43.44-2.31-43.44-2.31-3.12,0-4.84-2.57-4.83-5.69h0c0-3.11,1.37-4.9,3.41-5.43,0,0,36.66,5.69,47.62,5.79,12.07.11,48.16-4.49,48.16-4.49,1.74.47,2.76,2.66,2.74,5.77h0C187.66,116.6,186,119.15,182.85,119.13Z"/><path class="cls-13" d="M124.21,116.77c0,9-32.53,8.83-32.49-.14a16.25,16.25,0,0,1,32.49.14Z"/><path class="cls-13" d="M181.56,117c0,9-32.53,8.82-32.49-.15a16.25,16.25,0,0,1,32.49.15Z"/><path class="cls-8" d="M109.35,92.1s-8.43-.42-12.89,3.5-6,7.94-3.26,9.12C95.71,105.81,92.85,96.11,109.35,92.1Z"/><path class="cls-4" d="M119.26,118.89A11.31,11.31,0,1,1,108,107.53,11.3,11.3,0,0,1,119.26,118.89Z"/><path class="cls-6" d="M114.72,118.87a6.77,6.77,0,1,1-6.74-6.8A6.77,6.77,0,0,1,114.72,118.87Z"/><path class="cls-8" d="M107.7,109.05a10.07,10.07,0,0,0-6.27,2.06,9.43,9.43,0,0,0-3.8,8.75c.43,2.59,2.47,1.75,2.33-.19a8.44,8.44,0,0,1,1.8-6.6A11.24,11.24,0,0,1,107.7,109.05Z"/><path class="cls-9" d="M111.86,118.86a3.91,3.91,0,1,1-3.89-3.93A3.91,3.91,0,0,1,111.86,118.86Z"/><circle class="cls-4" cx="165.31" cy="119.09" r="11.3" transform="translate(-37.05 95.38) rotate(-29.09)"/><path class="cls-6" d="M172.07,119.12a6.77,6.77,0,1,1-6.73-6.79A6.76,6.76,0,0,1,172.07,119.12Z"/><path class="cls-8" d="M165.05,109.3a10.11,10.11,0,0,0-6.26,2.07,9.41,9.41,0,0,0-3.81,8.75c.43,2.59,2.47,1.74,2.33-.19a8.5,8.5,0,0,1,1.8-6.61A11.34,11.34,0,0,1,165.05,109.3Z"/><circle class="cls-9" cx="165.31" cy="119.09" r="3.9" transform="matrix(0.27, -0.96, 0.96, 0.27, 5.42, 245.37)"/><ellipse class="cls-2" cx="39.8" cy="101.24" rx="39.8" ry="6.57"/><path class="cls-9" d="M35.41,29.36l2.45-16,2-2.06,2.77,18.06s-.5,1.34-3.6,1.32S35.41,29.36,35.41,29.36Z"/><path class="cls-13" d="M40.91,1l3.37,4.66a2.29,2.29,0,0,0,1.19.86l5.47,1.76a2.35,2.35,0,0,1,1.18,3.63l-3.39,4.64a2.37,2.37,0,0,0-.46,1.4l0,5.75a2.35,2.35,0,0,1-3.09,2.24l-5.46-1.79a2.31,2.31,0,0,0-1.47,0l-5.46,1.79a2.35,2.35,0,0,1-3.09-2.24l0-5.75a2.37,2.37,0,0,0-.46-1.4l-3.39-4.64a2.35,2.35,0,0,1,1.18-3.63L32.54,6.5a2.29,2.29,0,0,0,1.19-.86L37.1,1A2.34,2.34,0,0,1,40.91,1Z"/><path class="cls-8" d="M40.74,2.72l2.91,4a2.07,2.07,0,0,0,1,.75L49.41,9c1.32.43-18.36,14.72-18.36,13.34l0-5a2.13,2.13,0,0,0-.39-1.21l-2.94-4a2,2,0,0,1,1-3.14L33.5,7.5a2.07,2.07,0,0,0,1-.75l2.92-4A2,2,0,0,1,40.74,2.72Z"/><path class="cls-13" d="M66.2,103.91a267.2,267.2,0,0,1-54.39,0c-5.95-.74-10-6-9.09-11.32l0-.21a10.31,10.31,0,0,1,11.5-8.25,197,197,0,0,0,49.49,0,10.32,10.32,0,0,1,11.51,8.25l0,.21C76.23,97.93,72.15,103.17,66.2,103.91Z"/><path class="cls-9" d="M75.29,92.59l0-.21a9.89,9.89,0,0,0-.73-2.33,10.45,10.45,0,0,1-9,8.32c-18.57,2.79-37.69,2.79-53.81,0A10.77,10.77,0,0,1,3,91.29a10.12,10.12,0,0,0-.25,1.09l0,.21c-.93,5.34,3.14,10.58,9.09,11.32a267.2,267.2,0,0,0,54.39,0C72.15,103.17,76.23,97.93,75.29,92.59Z"/><path class="cls-8" d="M25.51,93c-6-.2-11.45-.76-14.34-1.59C9.71,91,8.45,90.18,7,90c-.74-.1-1.18.39-1.18,1.18,0,3.81,3.57,4.81,6.3,5.4a49.32,49.32,0,0,0,13.35,1.12C28.21,97.44,27.41,93.06,25.51,93Z"/><path class="cls-8" d="M32.57,92.35l-.13,0a2.73,2.73,0,1,0,0,5.27l.13,0a2.73,2.73,0,0,0,2-2.61A2.78,2.78,0,0,0,32.57,92.35Z"/><path class="cls-3" d="M62.51,87.05a230.8,230.8,0,0,1-47,0c-5.14-.64-8.67-5.17-7.86-9.79l0-.18a8.92,8.92,0,0,1,10-7.13,170.05,170.05,0,0,0,42.77,0,8.92,8.92,0,0,1,10,7.13l0,.18C71.18,81.88,67.66,86.41,62.51,87.05Z"/><path class="cls-14" d="M70.37,77.26l0-.18a8,8,0,0,0-.63-2,9,9,0,0,1-7.78,7.19c-15,2.3-32.95,1.79-46.52,0a9,9,0,0,1-7.52-6.12c-.09.31-.16.62-.22.94l0,.18c-.81,4.62,2.72,9.15,7.86,9.79a230.8,230.8,0,0,0,47,0C67.66,86.41,71.18,81.88,70.37,77.26Z"/><path class="cls-8" d="M27.34,77.62a60.69,60.69,0,0,1-12.4-1.37A26.1,26.1,0,0,0,11.3,75c-.65-.09-1,.34-1,1,0,3.3,3.08,4.16,5.44,4.66a42.08,42.08,0,0,0,11.55,1C29.67,81.46,29,77.67,27.34,77.62Z"/><path class="cls-8" d="M33.44,77.06l-.11,0a2.36,2.36,0,1,0,0,4.55l.11,0a2.36,2.36,0,0,0,1.72-2.25A2.4,2.4,0,0,0,33.44,77.06Z"/><path class="cls-9" d="M58.79,70.57a183,183,0,0,1-39.57,0,7.66,7.66,0,0,1-6.61-8.72l0-.16A7.55,7.55,0,0,1,21,55.34a135.11,135.11,0,0,0,36,0,7.55,7.55,0,0,1,8.37,6.35l0,.16A7.66,7.66,0,0,1,58.79,70.57Z"/><path class="cls-16" d="M65.4,61.85l0-.16a7.57,7.57,0,0,0-.53-1.79,7.94,7.94,0,0,1-6.55,6.4,107.71,107.71,0,0,1-39.14,0,8,8,0,0,1-6.32-5.44,7.18,7.18,0,0,0-.19.83l0,.16a7.66,7.66,0,0,0,6.61,8.72,183,183,0,0,0,39.57,0A7.66,7.66,0,0,0,65.4,61.85Z"/><path class="cls-8" d="M29.19,62.17A47.67,47.67,0,0,1,18.76,61a21.34,21.34,0,0,0-3.07-1.11c-.54-.08-.86.3-.86.91,0,2.93,2.6,3.7,4.59,4.15a33.6,33.6,0,0,0,9.71.87C31.15,65.59,30.57,62.22,29.19,62.17Z"/><path class="cls-8" d="M34.32,61.67l-.09,0a2.08,2.08,0,1,0,0,4.06l.09,0a2.12,2.12,0,0,0,0-4Z"/><path class="cls-4" d="M54.68,55.79c-13.36,1.42-18,1.42-31.35,0a7.67,7.67,0,0,1-6.61-8.72l0-.17a7.56,7.56,0,0,1,8.37-6.35C37,42.2,41,42.11,52.89,40.55a7.57,7.57,0,0,1,8.38,6.35l0,.17A7.66,7.66,0,0,1,54.68,55.79Z"/><path class="cls-17" d="M61.29,47.07l0-.17a8.06,8.06,0,0,0-.53-1.79,8,8,0,0,1-6.55,6.41,77.07,77.07,0,0,1-30.93,0,8.07,8.07,0,0,1-6.33-5.45,7.65,7.65,0,0,0-.18.83l0,.17a7.67,7.67,0,0,0,6.61,8.72c13.35,1.42,18,1.42,31.35,0A7.66,7.66,0,0,0,61.29,47.07Z"/><path class="cls-8" d="M33.3,47.39a48.37,48.37,0,0,1-10.44-1.23,22,22,0,0,0-3.06-1.11c-.54-.08-.86.3-.86.91,0,2.94,2.6,3.7,4.58,4.15a33.63,33.63,0,0,0,9.71.87C35.26,50.8,34.68,47.43,33.3,47.39Z"/><path class="cls-8" d="M38.43,46.89l-.09,0a2.08,2.08,0,1,0,0,4.07l.09,0a2.07,2.07,0,0,0,1.44-2A2.1,2.1,0,0,0,38.43,46.89Z"/><path class="cls-5" d="M51.78,41.14c-12.91,1.38-12.64,1.38-25.55,0a7.4,7.4,0,0,1-6.39-8.43l0-.16A7.32,7.32,0,0,1,28,26.41c11.5,1.6,10.6,1.51,22.09,0a7.32,7.32,0,0,1,8.1,6.14l0,.16A7.42,7.42,0,0,1,51.78,41.14Z"/><path class="cls-18" d="M58.18,32.71l0-.16a7.68,7.68,0,0,0-.51-1.73A7.78,7.78,0,0,1,51.3,37a59.55,59.55,0,0,1-25.14,0A8,8,0,0,1,20,31.75c-.07.26-.13.53-.18.8l0,.16c-.66,4,2.3,7.41,6.39,8.43,6,1.51,16.76,1.63,25.55,0A7.55,7.55,0,0,0,58.18,32.71Z"/><path class="cls-8" d="M33.49,33a24.39,24.39,0,0,1-7.71-1.18,21.08,21.08,0,0,0-3-1.08c-.53-.07-.84.3-.84.89,0,2.83,2.52,3.57,4.44,4,3.27.74,4.4,1.07,7,.84C35.39,36.33,34.82,33.07,33.49,33Z"/><path class="cls-8" d="M38.45,32.54l-.09,0a2,2,0,1,0,0,3.92l.09,0a2,2,0,0,0,0-3.88Z"/></g></g></g></svg>