<svg xmlns="http://www.w3.org/2000/svg" xmlns:xlink="http://www.w3.org/1999/xlink" viewBox="0 0 201.95 116.92"><defs><style>.cls-1{isolation:isolate;}.cls-17,.cls-2{opacity:0.3;}.cls-17,.cls-2,.cls-20,.cls-5{mix-blend-mode:multiply;}.cls-2{fill:url(#_ÂÁ_Ï_ÌÌ_È_ËÂÌÚ_42);}.cls-3{fill:#bd883b;}.cls-4,.cls-5{fill:#95a5a6;}.cls-20,.cls-5{opacity:0.4;}.cls-6{fill:#fc6d50;}.cls-7{fill:#de4430;}.cls-8{fill:#ffe060;}.cls-9{fill:#deb637;}.cls-10{fill:#4a4949;}.cls-11{fill:#3fbce5;}.cls-12{fill:#30aad4;}.cls-13{fill:#f8e1bb;}.cls-14{fill:#53e5c9;}.cls-15{fill:#30d4a9;}.cls-16{fill:#4a4444;}.cls-17,.cls-18{fill:#e3dc36;}.cls-19{mix-blend-mode:screen;}.cls-21{fill:#fff;}</style><linearGradient id="_ÂÁ_Ï_ÌÌ_È_ËÂÌÚ_42" x1="4.02" y1="100.81" x2="196.78" y2="100.81" gradientUnits="userSpaceOnUse"><stop offset="0" stop-color="#ab8049"/><stop offset="0.5" stop-color="#8e725e"/><stop offset="1" stop-color="#7d5f50"/></linearGradient></defs><title>bookswl</title><g class="cls-1"><g id="Layer_2" data-name="Layer 2"><g id="_ÎÓÈ_1" data-name="—ÎÓÈ_1"><path class="cls-2" d="M192,96.06H8.77A4.75,4.75,0,0,0,4,100.81H4a4.75,4.75,0,0,0,4.75,4.75H192a4.75,4.75,0,0,0,4.75-4.75h0A4.75,4.75,0,0,0,192,96.06Z"/><path class="cls-3" d="M4.6,86.87H197.35a4.59,4.59,0,0,1,4.6,4.59h0a4.6,4.6,0,0,1-4.6,4.6H4.6A4.6,4.6,0,0,1,0,91.46H0A4.59,4.59,0,0,1,4.6,86.87Z"/><rect class="cls-4" x="20.22" y="96.06" width="18.8" height="20.86"/><rect class="cls-4" x="162.93" y="96.06" width="18.79" height="20.86" transform="translate(344.66 212.97) rotate(180)"/><rect class="cls-5" x="20.22" y="96.06" width="18.8" height="6.4"/><rect class="cls-5" x="162.93" y="96.06" width="18.79" height="6.4"/><g id="_Group_" data-name="&lt;Group&gt;"><rect id="_Rectangle_" data-name="&lt;Rectangle&gt;" class="cls-6" x="24.74" y="14.64" width="17.68" height="72.07"/><rect id="_Rectangle_2" data-name="&lt;Rectangle&gt;" class="cls-7" x="35.71" y="14.64" width="6.72" height="72.07"/></g><g id="_Group_2" data-name="&lt;Group&gt;"><rect id="_Rectangle_3" data-name="&lt;Rectangle&gt;" class="cls-8" x="7.06" y="14.64" width="17.68" height="72.07"/><rect id="_Rectangle_4" data-name="&lt;Rectangle&gt;" class="cls-9" x="18.02" y="14.64" width="6.72" height="72.07"/><rect id="_Rectangle_5" data-name="&lt;Rectangle&gt;" class="cls-10" x="7.06" y="22.5" width="17.68" height="1.41"/><rect id="_Rectangle_6" data-name="&lt;Rectangle&gt;" class="cls-10" x="7.06" y="27.11" width="17.68" height="1.41"/><rect id="_Rectangle_7" data-name="&lt;Rectangle&gt;" class="cls-10" x="7.06" y="72.88" width="17.68" height="1.41"/><rect id="_Rectangle_8" data-name="&lt;Rectangle&gt;" class="cls-10" x="7.06" y="77.49" width="17.68" height="1.41"/></g><g id="_Group_3" data-name="&lt;Group&gt;"><rect id="_Rectangle_9" data-name="&lt;Rectangle&gt;" class="cls-11" x="43.08" y="29.82" width="15.47" height="57.24"/><rect id="_Rectangle_10" data-name="&lt;Rectangle&gt;" class="cls-12" x="52.68" y="29.82" width="5.88" height="57.24"/><rect id="_Rectangle_11" data-name="&lt;Rectangle&gt;" class="cls-13" x="43.08" y="37.18" width="15.47" height="1.83"/><rect id="_Rectangle_12" data-name="&lt;Rectangle&gt;" class="cls-13" x="43.08" y="76.64" width="15.47" height="1.83"/></g><g id="_Group_4" data-name="&lt;Group&gt;"><rect id="_Rectangle_13" data-name="&lt;Rectangle&gt;" class="cls-14" x="56.54" y="36.94" width="14.77" height="51.05"/><rect id="_Rectangle_14" data-name="&lt;Rectangle&gt;" class="cls-15" x="65.7" y="36.94" width="5.61" height="51.05"/><rect id="_Rectangle_15" data-name="&lt;Rectangle&gt;" class="cls-16" x="56.54" y="42.45" width="14.77" height="1.57"/><rect id="_Rectangle_16" data-name="&lt;Rectangle&gt;" class="cls-16" x="56.54" y="46.47" width="14.77" height="1.57"/><rect id="_Rectangle_17" data-name="&lt;Rectangle&gt;" class="cls-16" x="56.54" y="76.93" width="14.77" height="1.57"/><rect id="_Rectangle_18" data-name="&lt;Rectangle&gt;" class="cls-16" x="56.54" y="80.95" width="14.77" height="1.57"/></g></g><g id="text"><rect class="cls-17" x="77.06" y="0.36" width="117.04" height="86.36" rx="6.12" ry="6.12"/><rect class="cls-18" x="76.05" width="117.04" height="86.36" rx="6.12" ry="6.12"/><g class="cls-19"><path class="cls-18" d="M170.1,2.46H152c-.79,0-1.44-.28-1.44-.62s.65-.61,1.44-.61H170.1c.79,0,1.43.27,1.43.61S170.89,2.46,170.1,2.46Z"/></g><g class="cls-19"><path class="cls-18" d="M82.25,40.76c-.8,0-1.44-.28-1.44-.62V3.71c0-1.37,2.61-2.48,5.81-2.48h57.26c.79,0,1.44.27,1.44.61s-.65.62-1.44.62H86.62c-1.62,0-2.94.56-2.94,1.25V40.14C83.68,40.48,83,40.76,82.25,40.76Z"/></g><g class="cls-19"><path class="cls-18" d="M82.25,67.56c-.8,0-1.44-.28-1.44-.62V44.21c0-.34.64-.61,1.44-.61s1.43.27,1.43.61V66.94C83.68,67.28,83,67.56,82.25,67.56Z"/></g><g class="cls-20"><path class="cls-18" d="M190.67,81.49c-.79,0-1.44-.28-1.44-.62V22.16c0-.34.65-.62,1.44-.62s1.44.28,1.44.62V80.87C192.11,81.21,191.46,81.49,190.67,81.49Z"/></g><rect class="cls-21" x="87.77" y="7.99" width="99.59" height="71.71" rx="2.93" ry="2.93"/></g></g></g></svg>